<?xml version="1.0" encoding="UTF-8"?><svg xmlns="http://www.w3.org/2000/svg" viewBox="0 0 234.56 167.7"><defs><style>.d{fill:#f0f0f0;}.e,.f,.g,.h,.i,.j{fill:#fff;}.k,.l{fill:#fafafa;}.f{opacity:.9;}.m,.n{fill:#e1e1e1;}.m,.o,.p{opacity:.3;}.g{opacity:.4;}.q,.l{opacity:.6;}.r{fill:#f5f5f5;}.s,.j{opacity:.2;}.h{opacity:.1;}.i{opacity:.5;}.t{fill:#17d7a0;}.u,.p{fill:#007cff;}.v{fill:#002434;}.w{fill:#efefef;}.x{fill:#ececec;}</style></defs><g id="a"/><g id="b"><g id="c"><g><g><rect class="x" x="14.6" y="152.69" width="205.99" height=".1"/><rect class="x" x="36.21" y="159.33" width="13.65" height=".1"/><rect class="x" x="70.36" y="160.44" width="18.33" height=".1"/><rect class="x" x="50.27" y="155.5" width="29.01" height=".1"/><rect class="x" x="194.73" y="156.19" width="5.23" height=".1"/><rect class="x" x="175.88" y="156.19" width="15.17" height=".1"/><rect class="x" x="128.81" y="157.93" width="12.82" height=".1"/><path class="x" d="M112.25,134.32H32.69c-1.3,0-2.35-1.05-2.35-2.35V20.14c0-1.3,1.05-2.35,2.35-2.35H112.25c1.3,0,2.35,1.05,2.35,2.35v111.83c0,1.3-1.05,2.35-2.35,2.35ZM32.69,17.89c-1.24,0-2.25,1.01-2.25,2.25v111.83c0,1.24,1.01,2.25,2.25,2.25H112.25c1.24,0,2.25-1.01,2.25-2.25V20.14c0-1.24-1.01-2.25-2.25-2.25H32.69Z"/><path class="x" d="M201.36,134.32H121.81c-1.3,0-2.35-1.05-2.35-2.35V20.14c0-1.3,1.05-2.35,2.35-2.35h79.55c1.3,0,2.35,1.05,2.35,2.35v111.83c0,1.3-1.05,2.35-2.35,2.35ZM121.81,17.89c-1.24,0-2.25,1.01-2.25,2.25v111.83c0,1.24,1.01,2.25,2.25,2.25h79.55c1.24,0,2.25-1.01,2.25-2.25V20.14c0-1.24-1.01-2.25-2.25-2.25H121.81Z"/></g><g><g><rect class="x" x="63.06" y="25.59" width="77.69" height="95.5" transform="translate(175.24 -28.57) rotate(90)"/><rect class="n" x="111.1" y="73.05" width="77.69" height=".58" transform="translate(223.28 -76.61) rotate(90)"/><rect class="r" x="58.86" y="39.2" width="86.09" height="68.27" transform="translate(203.81 146.67) rotate(180)"/><polygon class="e" points="98.07 107.47 109.63 107.47 90.38 39.2 78.82 39.2 98.07 107.47"/><polygon class="e" points="88.79 107.47 95.48 107.47 76.22 39.2 69.54 39.2 88.79 107.47"/><polygon class="e" points="125.84 107.47 128.61 107.47 109.35 39.2 106.59 39.2 125.84 107.47"/></g><g><path class="n" d="M188.93,145.23H88.14c-1.47,0-2.63-1.2-2.58-2.67l2.39-72.06c.05-1.47,1.29-2.67,2.76-2.67h100.8c1.47,0,2.63,1.2,2.58,2.67l-2.39,72.06c-.05,1.47-1.29,2.67-2.76,2.67Z"/><g class="q"><path class="k" d="M188.11,145.23H87.31c-1.47,0-2.63-1.2-2.58-2.67l2.39-72.06c.05-1.47,1.29-2.67,2.76-2.67h100.8c1.47,0,2.63,1.2,2.58,2.67l-2.39,72.06c-.05,1.47-1.29,2.67-2.76,2.67Z"/></g><g><path class="n" d="M186.81,145.1H65.08c-1.27,0-2.37,.74-2.88,1.8-.29,.61,.15,1.31,.84,1.31h125.8c.69,0,1.13-.7,.84-1.31-.51-1.06-1.61-1.8-2.88-1.8Z"/><path class="l" d="M65.08,145.1h97.14c1.27,0,2.37,.74,2.88,1.8,.29,.61-.15,1.31-.84,1.31H63.04c-.69,0-1.13-.7-.84-1.31,.51-1.06,1.61-1.8,2.88-1.8Z"/><path class="m" d="M123.14,147.08h-25.27c-.62,0-1.13,.51-1.13,1.13h27.54c0-.62-.51-1.13-1.13-1.13Z"/></g><path class="f" d="M87.14,139.96l2.21-66.85c.02-.57,.5-1.04,1.07-1.04h99.41c.57,0,1.02,.47,1,1.04l-2.21,66.85c-.02,.57-.5,1.04-1.07,1.04H88.15c-.57,0-1.02-.47-1-1.04Z"/><path class="d" d="M89.78,137.12l2.03-61.25c.02-.7,.6-1.26,1.3-1.26h93.8c.74,0,1.33,.61,1.3,1.35l-2.03,61.25c-.02,.7-.6,1.26-1.3,1.26H91.08c-.74,0-1.33-.61-1.3-1.35Z"/><polygon class="e" points="166.29 141 182.77 141 163.78 72.07 147.3 72.07 166.29 141"/><polygon class="e" points="155.8 141 161.73 141 142.74 72.07 136.81 72.07 155.8 141"/><polygon class="e" points="122.06 141 127.98 141 108.99 72.07 103.06 72.07 122.06 141"/><path class="g" d="M140.98,111.53c-.01,.43-.38,.78-.81,.78s-.77-.35-.76-.78c.01-.43,.38-.78,.81-.78s.77,.35,.76,.78Z"/></g></g><g><g><path class="w" d="M183.85,35.35c-.32-.78-.24-1.43-.09-2.07,.51-2.21,1.71-3.94,3.41-5.24,1.63-1.25,3.42-2.13,5.41-2.45,.46-.07,.95,0,1.41,.08,.15,.03,.27,.29,.41,.45-.16,.11-.32,.29-.49,.32-4.2,.57-7.48,2.54-9.19,6.93-.25,.64-.54,1.25-.86,1.99Z"/><path class="w" d="M179.55,21.61c-1.14,.98-2,2.07-2.5,3.44-.5,1.36-.16,2.79-.12,4.23-.59-.07-.66-.49-.73-.85-.24-1.23-.16-2.45,.29-3.62,.45-1.16,1.12-2.15,2.01-2.95,.26-.23,.55-.54,1.06-.25Z"/><path class="w" d="M211.14,28.78c.02-2.92-2.02-4.43-3.64-6.23l.11-.17c.28,.1,.6,.13,.83,.3,1.77,1.28,2.89,3.01,3.02,5.36,.01,.23-.06,.46-.09,.7l-.23,.04Z"/><path class="w" d="M175.64,42.91c-2.19-.11-4.98-3.81-4.1-5.57,.44,2.68,2.41,3.91,4.1,5.57Z"/><path class="w" d="M183.49,31.79c.05-1.59,.68-2.9,1.85-3.9,.39-.34,.81-.78,1.48-.51-.66,.73-1.35,1.33-1.86,2.08-.51,.75-.84,1.63-1.25,2.46l-.22-.12Z"/><path class="w" d="M220.02,39.97c.2-.26,.34-.47,.51-.65,.85-.89,1.54-1.86,1.68-3.19,.01-.1,.14-.25,.21-.26,.09,0,.18,.13,.27,.2,.01,0,.01,.03,.02,.05,.29,1.16-1.14,4.21-2.69,3.83Z"/><path class="w" d="M222.05,40.59c.27-.22,.55-.44,.81-.68,.4-.36,.84-.7,1.19-1.11,.43-.51,.84-1.07,.54-1.92,.55,.21,.71,.56,.66,1.04-.13,1.33-1.86,2.88-3.2,2.67Z"/><path class="w" d="M189.44,42.63c1.61-1.13,2.74-2.67,3.59-4.49,.19,1.16-.48,1.96-1.04,2.78-.62,.9-1.28,1.79-2.54,1.71Z"/><path class="w" d="M177.93,28.66c-.57-.26-.64-.79-.68-1.29-.08-1.13,.23-2.17,.82-3.1,.08-.13,.29-.18,.45-.26,0,.17,.03,.37-.04,.51-.52,1.11-.59,2.28-.48,3.48,.01,.15,.02,.3,.02,.45,0,.05-.04,.1-.09,.21Z"/><path class="w" d="M185.56,20.15c1.27-.82,4.36,.64,4.5,2.25-1.35-1.3-2.83-1.99-4.5-2.25Z"/><path class="w" d="M207.77,24.55c.07-.06,.09-.1,.12-.11,1.04-.11,2.45,1.41,2.33,2.53-.01,.11-.09,.28-.17,.31-.08,.03-.24-.05-.31-.14-.61-.77-1.21-1.55-1.82-2.33-.06-.07-.1-.16-.16-.26Z"/><path class="w" d="M202.36,41.43c-.54,1.23-3.79,1.69-4.53,.57,1.59,.15,3.09,.03,4.53-.57Z"/><path class="w" d="M209.35,37.73c-.34,.63-.86,.78-1.45,.79-1.29,0-2.36-.63-2.83-1.83,1.38,.92,2.68,1.75,4.29,1.04Z"/><path class="w" d="M172.74,38.4c.96,1.02,1.86,1.98,2.76,2.94l-.1,.16c-.89-.16-1.5-.85-2.1-1.52-.38-.42-.66-.93-.57-1.58Z"/><path class="w" d="M217.06,38.93c.47,.56,.21,1.12,0,1.65-.34,.85-.78,1.6-1.83,1.6,.76-.98,1.61-1.9,1.83-3.25Z"/><path class="w" d="M218.44,33.33c-1.31-.15-2.5-.28-3.75-.42,.86-.72,3-.5,3.75,.42Z"/><path class="w" d="M223.49,37.49c.35,1.08-1.18,2.86-2.48,2.75,.52-.46,1-.81,1.39-1.25,.4-.45,.72-.99,1.09-1.51Z"/><path class="w" d="M181.1,44.48c1.18,.14,2.37,.28,3.64,.43-.52,.67-2.6,.42-3.64-.43Z"/><path class="w" d="M219.3,39.35c.61-.85,1.16-1.62,1.71-2.39,.36,.64-.68,2.17-1.71,2.39Z"/><path class="w" d="M175.66,40.04c-1.01-.1-1.78-1.01-1.59-1.95,.51,.62,1.01,1.24,1.59,1.95Z"/><path class="w" d="M190.38,25.62c.66-.83,1.77-1.11,2.45-.56-.77,.18-1.54,.35-2.45,.56Z"/><path class="w" d="M190.07,40.91c.44-.5,.97-1.1,1.43-1.62,.11,.74-.86,1.76-1.43,1.62Z"/><path class="w" d="M178.9,27.38c-.55-.57-.61-1.49-.17-1.98,.07-.08,.2-.1,.31-.15,.04,.11,.11,.23,.1,.34-.03,.3-.09,.59-.13,.88-.04,.27-.06,.55-.1,.9Z"/><path class="w" d="M182.95,30.19c-.07-.89,.61-1.83,1.4-1.89l-1.4,1.89Z"/><path class="w" d="M215,40.88l.75-1.05c.23,.62-.03,1.04-.75,1.05Z"/><path class="w" d="M192.28,21.13c4.5-3.93,12.72-3.95,17.93,.41,2.66,2.23,3.56,5.16,3.12,8.66-.02,.15-.04,.3-.06,.45-.02,.13-.04,.26-.05,.33,.89-.07,1.78-.25,2.65-.19,2.98,.23,5.85,.96,8.54,2.4,1.24,.66,2.13,1.73,2.71,3.09,.05,.12,.11,.23,.18,.36,1.15-.24,1.93,.36,2.47,1.33,.35,.64,.83,.88,1.49,1,.72,.14,1.43,.39,2.12,.67,.32,.13,.6,.4,.85,.66,.57,.62,.47,1.22-.3,1.46-.7,.21-1.45,.39-2.17,.37-2.04-.05-4.05,.15-6.05,.52-1.06,.19-2.12,.43-3.19,.49-1.51,.09-2.99-.13-4.41-.85-.91,1.66-2.27,2.67-4,3.09-1.39,.34-2.77,.15-4.07-.35-1.4-.54-2.76-1.23-4.1-1.93-.49-.25-.9-.17-1.37-.01-1.29,.44-2.57,.97-3.89,1.24-2.17,.46-4.32,.18-6.41-.63-.21-.08-.43-.19-.62-.32-.19-.13-.35-.3-.51-.44-.73,.68-1.42,1.39-2.17,2.01-1.81,1.48-3.88,2.11-6.14,2.12-4.79,.02-9.23-1.33-13.36-3.91-.33-.2-.62-.33-.99-.13-3.55,1.87-7.34,2.34-11.23,2.2-1.59-.06-3.17-.12-4.72-.59-3.64-1.11-3.76-4.27-2.33-6.74,1.04-1.81,2.64-2.69,4.51-2.91,1.52-.17,3.06-.08,4.6-.1,.1,0,.2,0,.32,0,.18-1.41,.71-2.62,1.42-3.78,1.28-2.08,3.14-3.08,5.37-3.44,1.96-.31,3.86-.02,5.8,.56-.02-.26-.02-.5-.05-.73-.23-2.16,.61-3.93,1.82-5.52,2.97-3.89,6.78-5.34,11.37-4.32,1.38,.31,2.53,1.14,3.59,2.11,.45,.42,.88,.87,1.35,1.33Zm13.81,14.49c.77,.74,1.57,1.02,2.5,.7,.96-.33,1.69-1,2.28-1.86,.82-1.19,1.17-2.58,1.4-4.01,.52-3.22-.16-6-2.7-8.03-3.75-3-7.95-3.74-12.45-2.61-1.59,.4-3.1,1.04-4.28,2.34-.35,.38-.73,.33-1.08-.02-.44-.44-.86-.9-1.31-1.33-1.15-1.11-2.44-1.96-3.99-2.21-4.53-.73-8.77,1.57-10.95,5.9-.67,1.34-.99,2.71-.45,4.19,.02,.05,.03,.11,.04,.16,.1,.52-.01,.65-.48,.5-.32-.1-.61-.32-.94-.37-1.53-.25-3.05-.6-4.62-.38-2.95,.41-4.88,1.57-6.19,5.06-.24,.63-.45,1.34-.15,1.99,.3,.65,.73,1.23,1.13,1.83,.15,.23,.36,.42,.55,.63l-.09,.18c-.22-.06-.46-.07-.65-.18-.73-.42-1.31-1.01-1.68-1.82-.07-.15-.25-.36-.38-.36-1.67-.06-3.35-.26-5.02,.08-1.92,.39-3.37,1.41-4.09,3.43-.65,1.82-.07,3.27,1.6,4.01,.26,.11,.53,.22,.8,.29,2.75,.71,5.54,.6,8.32,.39,2.41-.18,4.71-.94,6.89-2.06,.59-.3,1.15-.28,1.7,.12,.38,.27,.79,.51,1.19,.74,3.12,1.72,6.44,2.64,9.92,2.97,3.66,.35,6.83-.65,9.27-3.73,.41-.52,.65-1.19,.98-1.79,.08-.14,.21-.26,.31-.38,.07,.16,.16,.31,.2,.47,.03,.12,.02,.27-.03,.39-.25,.71,.18,1.12,.6,1.47,.32,.27,.72,.52,1.12,.61,.96,.22,1.94,.43,2.91,.49,2.35,.16,4.51-.64,6.61-1.66-.07-.17-.16-.33-.17-.49-.01-.19,.05-.38,.08-.57,.14,.1,.3,.17,.42,.3,.28,.3,.5,.7,.83,.93,1.62,1.2,3.44,1.91,5.36,2.32,2.63,.55,4.78-.52,6.1-3.03,.16-.3,.34-.59,.56-.95,.08,.22,.17,.34,.17,.46,0,.59,.36,.77,.8,.87,.64,.15,1.28,.28,1.91,.44,1.73,.43,3.4-.13,5.09-.3,1.96-.21,3.92-.39,5.88-.6,.43-.05,.86-.13,1.43-.22-.74-.62-1.43-.74-2.13-.82-1.02-.12-1.89-.45-2.37-1.53-.07-.15-.18-.28-.29-.4-.47-.55-.89-.6-1.49-.2-.36,.24-.62,.15-.7-.3-.36-2.01-1.59-3.19-3.26-3.94-2.04-.91-4.18-1.51-6.35-1.92-1.15-.22-2.32-.3-3.44,.2-.22,.1-.42,.36-.54,.6-.47,.9-.8,1.91-1.38,2.73-.91,1.28-2.15,2.07-3.73,2.02-.99-.04-1.59-.65-1.61-1.75Z"/></g><g><path class="w" d="M44.8,6.4c1.91-2.08,4.18-2.54,6.65-2.11,3.66,.64,5.68,4.9,4.2,8.8-.1,.28-.21,.55-.31,.82,1.25,0,2.46,.03,3.67,0,2.83-.09,5.54,.49,8.09,1.93,1.23,.69,2.34,1.6,2.87,3.14,.6,1.76,.02,3.24-.94,4.56-1.65,2.26-3.92,3.12-6.34,3.52-.84,.14-1.72,.08-2.57,.05-.58-.02-1.04,.07-1.53,.55-1.4,1.37-3.15,1.9-4.9,2.3-3.19,.73-6.4,1.35-9.62,.29-.98-.32-1.89-.87-2.85-1.29-.19-.09-.5-.16-.64-.05-2.89,2.31-6.2,3.13-9.6,3.61-3.48,.49-6.9,.08-10.27-.95-1.83-.56-3.46-1.47-4.16-3.71-4.34,2-8.64,1.97-12.92,.11-1.8-.78-3.19-2.08-3.56-4.44-.19-1.2,.1-2.22,.82-3.08,1.34-1.61,3.06-2.32,4.93-2.52,1.14-.12,2.3-.02,3.56-.02,.07-.38,.13-.96,.27-1.52,1.13-4.37,3.69-7.02,7.51-7.98,3.22-.81,6.43-.79,9.53,.99,.05-.71,.05-1.38,.15-2.03,.29-1.75,1.18-3.12,2.29-4.3,3.29-3.51,9.51-4.54,13.48-.31,.47,.5,.88,1.09,1.26,1.7,.35,.58,.62,1.23,.96,1.93ZM11.17,21.98c-.96-.56-1.35-1.3-1.64-2.16-.07-.22-.25-.53-.41-.56-2.65-.47-5.12-.03-7.21,2.07-.6,.6-.76,1.38-.53,2.29,.34,1.35,1.16,2.26,2.22,2.65,1.63,.6,3.32,1.1,5.01,1.34,2.61,.37,5.14-.4,7.65-1.18,.59-2.8,2.22-4.98,3.62-4.85-.61,.98-1.29,1.91-1.8,2.95-.95,1.9-.43,3.79,1.26,4.8,.52,.31,1.09,.57,1.65,.74,3.92,1.22,7.87,1.35,11.87,.47,3.97-.87,7.41-2.81,10.22-6.19,.08-.09,.2-.14,.38-.25-.07,1.55-.9,2.52-1.67,3.65,.51,.24,.95,.46,1.4,.64,3.27,1.27,6.57,.82,9.85,.09,2.75-.62,5.32-1.69,7.1-4.4,.02-.03,.09,0,.24-.02l-.52,1.73c2.4-.13,4.73-.41,6.77-1.94,.62-.46,1.17-1.11,1.61-1.8,.87-1.36,.74-2.66-.41-3.69-.78-.69-1.68-1.28-2.6-1.67-4.03-1.69-8.17-1.36-12.32-.72-.33,.05-.66,.06-.98,.09,.49-.82,1.08-1.4,1.61-2.04,1.95-2.3,1.56-5.89-.82-7.41-2.12-1.35-6.32-1.18-8.11,2.33-.1,.19-.25,.35-.47,.65-.11-.53-.18-.89-.26-1.24-.47-2.1-1.35-3.9-2.84-5.29-2.74-2.57-7.9-1.89-10.61,.65-1.86,1.75-2.93,3.88-2.28,6.78,.13,.59,.14,1.23,.21,1.84-.76-.42-1.26-1.07-1.88-1.42-3.5-2-7.11-1.89-10.69-.37-2.56,1.08-4.09,3.35-4.89,6.3-.45,1.66-.25,3.3,.26,5.14Z"/><path class="w" d="M34.99,22.81c.33-.29,.49-.49,.69-.59,2.1-1.09,3.33-3.09,4.33-5.36,.13-.29,.4-.5,.6-.75,.04,.36,.19,.76,.11,1.08-.57,2.19-1.69,3.94-3.35,5.21-.65,.5-1.35,.75-2.37,.4Z"/><path class="w" d="M13.43,14.02c-.33,1.34-.91,2.67-.91,4,0,1.32,.58,2.64,.95,4.11-.27-.18-.58-.28-.75-.51-1.42-1.89-1.18-5.78,.43-7.45,.09-.09,.22-.12,.29-.15Z"/><path class="w" d="M22.74,25.74c-1.01-.09-1.66-1.32-1.49-2.51,.31-2.18,1.04-3.3,2.12-3.03-1.32,1.65-1.91,3.42-.63,5.53Z"/><path class="w" d="M58.63,23.43c-.65,1.68-3.86,3.93-5.73,4.02,1.95-1.37,3.78-2.65,5.73-4.02Z"/><path class="w" d="M14.29,15.87c-.67,1.88,.23,3.38,.9,4.98-1.05-.17-1.56-.89-1.8-2.39-.21-1.27,.03-2.13,.9-2.59Z"/><path class="w" d="M66.99,20.23c.21,1.35-1.9,3.52-3.48,3.46,1.17-1.16,2.34-2.33,3.48-3.46Z"/><path class="w" d="M41.6,19.11c-.24,1.58-1.7,3.22-2.76,3.23,.88-1.03,1.84-2.15,2.76-3.23Z"/><path class="w" d="M63.18,22.53c.61-.71,1.29-1.51,1.95-2.28,.14,1.02-1.1,2.39-1.95,2.28Z"/><path class="w" d="M51.62,14.32c.54-1.18,1.01-2.23,1.49-3.29,.74,.75-.13,2.74-1.49,3.29Z"/><path class="w" d="M23.98,24.75c-.26-.35-.66-.66-.76-1.07-.2-.8-.18-1.63,.44-2.38,.17,1.15,.33,2.18,.48,3.2l-.17,.25Z"/><path class="w" d="M55.91,23.62c-.39,1.38-1.56,2.03-2.62,1.68,.92-.59,1.77-1.13,2.62-1.68Z"/><path class="w" d="M42.87,20.03c-.2,1.09-.85,1.81-1.96,1.84,.58-.69,1.16-1.38,1.73-2.08l.22,.24Z"/><path class="w" d="M8.83,21.98c-.23-.16-.54-.26-.66-.5-.16-.31-.19-.72-.24-1.1,0-.05,.28-.23,.3-.2,.21,.25,.42,.51,.57,.81,.11,.23,.14,.52,.21,.78l-.16,.2Z"/><path class="w" d="M25.04,22.76c-.63-1.07-.53-1.64,.4-2.31-.14,.82-.25,1.46-.4,2.31Z"/><path class="w" d="M15.49,17.3c.2,.68,.4,1.35,.61,2.03l-.24,.1c-.67-.47-.73-1.21-.63-2.03l.26-.1Z"/><path class="w" d="M63.83,20.61c-.39,.3-.79,.6-1.18,.91l-.23-.37,1.12-.99,.29,.45Z"/><path class="w" d="M6.77,21.76c-.16-.35-.33-.69-.46-1.05-.01-.03,.26-.19,.4-.29,.16,.36,.33,.72,.49,1.08l-.43,.26Z"/></g></g><g><path class="i" d="M64.91,128.6c-20.5-20.5-20.5-53.74,0-74.24s53.74-20.5,74.24,0c20.5,20.5,20.5,53.73,0,74.24-20.5,20.5-53.73,20.5-74.23,0Z"/><g><g><path class="t" d="M114.01,64.62c1.39-1.81,2.92-3.81,5.5-6.34,1.34-1.31,5.58-4.13,7.16-4.66,1.24-.41,3.58,5.99,3.56,9.99-.02,3.76-1.38,14.86-1.38,14.86l-14.85-13.84Z"/><path class="j" d="M116.97,68.47c2.68-.36,6.52-5.42,9.05-8.01,2.53-2.59,2.83,1.41,2.37,6.51-.23,2.52-.79,5.5-1.59,6.91-.26,.46-.97,.48-1.32,.05-1.77-2.19-5.14-4.55-8.51-5.46Z"/><path class="t" d="M132.12,137.12c-1,.66-2.01,1.29-3.04,1.87-10.13,5.79-21.72,8.06-33,6.83-10.05-1.09-19.85-4.96-28.16-11.62,2.33-3.98,4.16-7.18,4.95-8.99,3.29-7.52,5-8.58,5.22-15.14,.22-6.55-2.86-14.08-3.66-20.78,5.34-2.52,51.44,12.73,51.44,12.73-4.45,9.15,2.94,16.2,4.7,20.35,2.1,4.97,2.09,9.88,1.55,14.74Z"/><path class="t" d="M134.33,89.16c.97,.51,1.59,1.77,1.59,1.77,0,0-.09-4.68-2.62-8.37-2.61-3.81-4.58-4.99-6.93-9.56-2.41-4.68-7.96-10.34-15.54-10.93-7.58-.59-25.7-1.57-32.26,10.02-1.94,3.43-3.11,6.67-3.71,9.68-2.4,3.91-4.2,11.11-4.1,13.21,1.17-1.47,2.92-2.59,2.92-2.59,0,0-1.04,6.49-.75,9.89,1.55-1.85,3.26-2.95,4.47-3.55,3.14,5.57,14.43,13.66,30.28,11.91,12.92-1.43,18.75-3.44,21.42-7.7,.88-1.41,1.8-3.2,2.63-5.03,.46,.42,1.46,1.5,2.25,3.54,.7-3.44-.18-6.92-.18-6.92,0,0,1.27,1.28,1.91,1.99,.01-2.95-.21-4.82-1.37-7.37Z"/><path class="o" d="M97.53,77.05c1.75-2.27,5.22-3.98,8.27-1.14,1,.93-.65,8.56-8.27,1.14Z"/><path class="o" d="M126.43,76.27c-1.45-2.04-4.09-3.42-6.49-.88-1.14,1.2,1.95,7.79,6.49,.88Z"/><path class="e" d="M119.28,81.08c-4.3-.18-6.65-.09-6.25,2.3,.33,1.99,4.77,4.23,6.32,3.36,2.33-1.31,3.59-5.5-.07-5.66Z"/><path class="h" d="M117.63,86.28c-4.26-1.21-12.58-2.42-15.16,2.2-1.92,3.45-.92,7,2,9.54,3.14,2.73,8.11,5.37,13.05,5.81,6.91,.61,9.77-1.93,11.59-4.71,2.72-4.14,3.98-10.98-1.3-12.94-2.98-1.11-7.2-.51-10.18,.09Z"/><path class="h" d="M129.08,138.98c-10.13,5.79-21.72,8.06-33,6.83-1.88-5.5-2.24-12.18-.51-18.81,2.96-11.33,12.64-8.74,17.61-5.97,3.45-1.6,8.35-3.2,11.83-.64,3.91,2.89,4.77,10.68,4.06,18.58Z"/><path class="s" d="M113.41,93.54c-1.14,0-2.41-.24-3.81-.72-.17-.06-.26-.24-.2-.41,.06-.17,.24-.26,.41-.2,2.62,.9,4.75,.91,6.34,.03,1.81-1,2.26-2.81,2.27-2.83,.03-.13,.13-.22,.26-.24,.13-.02,.26,.04,.32,.15,2.71,4.52,5.66,3.04,5.69,3.02,.16-.08,.35-.02,.43,.13,.08,.16,.02,.35-.13,.43-.03,.02-3.26,1.64-6.19-2.7-.31,.71-1,1.85-2.35,2.59-.88,.48-1.9,.73-3.05,.73Z"/><g><path class="t" d="M90.13,64.77c-2.91-1.03-5.2-3.07-8.48-6.22-2.48-2.39-4.44-5.83-6.68-5.99-1.75-.12-3.18,5.99-2.19,11.91,.76,4.58,5.64,15.94,5.64,15.94l11.71-15.63Z"/><path class="j" d="M85.13,65.96c.67-.41,.65-1.38-.02-1.78-2.37-1.43-5.28-4.48-7.02-6.55-2.29-2.72-3.04,1.97-2.06,6.98,.34,1.75,1.18,3.52,1.95,4.88,.62,1.09,2.14,1.2,2.92,.21,1.08-1.37,2.58-2.74,4.24-3.74Z"/></g></g><g><path class="e" d="M129.77,72.54l-39.6,.83c-.22,0-.41-.17-.42-.39h0c0-.22,.16-.41,.39-.41l39.6-.83c.22,0,.41,.17,.42,.39h0c0,.22-.16,.41-.39,.41Z"/><polygon class="e" points="95.23 81.85 84.95 82.07 84.59 72.68 94.87 72.46 95.23 81.85"/><path class="o" d="M90.99,77.27c0,.6-.48,1.08-1.08,1.08s-1.08-.48-1.08-1.08,.48-1.08,1.08-1.08,1.08,.48,1.08,1.08Z"/><path class="j" d="M95.21,81.29l13.41-.28c1.09-.02,1.93-.92,1.89-2.01l-.25-6.46-15.38,.32,.32,8.43Z"/><g><path class="e" d="M75.54,82.26l9.42-.2-.36-9.39-9.37,.2c-.8,.02-1.44,.69-1.41,1.49l.25,6.51c.03,.78,.68,1.4,1.47,1.38Z"/><path class="p" d="M75.54,82.26l9.42-.2-.36-9.39-9.37,.2c-.8,.02-1.44,.69-1.41,1.49l.25,6.51c.03,.78,.68,1.4,1.47,1.38Z"/></g></g></g><g><path class="u" d="M178.1,158.02c-.21-1.04-.63-1.87-1.2-2.56-1.21-1.29-2.51-2.51-3.78-3.74-1.28-1.22-2.58-2.44-3.9-3.62-1.31-1.2-2.65-2.36-3.99-3.53-2.71-2.31-5.48-4.55-8.35-6.69-1.31-.97-2.64-1.93-3.99-2.85,.63-1.72,.26-3.72-1.12-5.1l-1.97-1.97c-.35-.35-.75-.64-1.17-.86,17.61-22.99,15.91-56.04-5.13-77.07-22.9-22.9-60.04-22.9-82.94,0-22.9,22.9-22.89,60.03,0,82.93,21.04,21.04,54.08,22.75,77.07,5.13,.22,.42,.51,.82,.86,1.17l1.97,1.97c1.38,1.38,3.38,1.75,5.1,1.12,.93,1.35,1.88,2.68,2.85,3.99,2.14,2.87,4.38,5.64,6.69,8.35,1.16,1.34,2.33,2.69,3.53,3.99,1.18,1.32,2.4,2.62,3.62,3.9,1.23,1.27,2.45,2.57,3.74,3.78,.69,.56,1.53,.98,2.56,1.2,1.05,.2,2.25,.25,3.91-.15,2.61-.64,4.79-2.68,5.47-5.47,.4-1.66,.35-2.86,.15-3.91Zm-114.72-27.89c-21.35-21.35-21.35-55.96,0-77.3,21.35-21.35,55.96-21.35,77.31,0,21.34,21.34,21.34,55.95,0,77.3-21.34,21.34-55.95,21.34-77.29,0Z"/><g><path class="v" d="M178.1,158.02c-.21-1.04-.63-1.87-1.2-2.56-1.21-1.29-2.51-2.51-3.78-3.74-1.28-1.22-2.58-2.44-3.9-3.62-1.31-1.2-2.65-2.36-3.99-3.53-2.71-2.31-5.48-4.55-8.35-6.69-1.31-.97-2.64-1.93-3.99-2.85,.63-1.72,.26-3.72-1.12-5.1l-1.97-1.97c-.35-.35-.75-.64-1.17-.86,17.61-22.99,15.91-56.04-5.13-77.07-22.9-22.9-60.04-22.9-82.94,0-22.9,22.9-22.89,60.03,0,82.93,21.04,21.04,54.08,22.75,77.07,5.13,.22,.42,.51,.82,.86,1.17l1.97,1.97c1.38,1.38,3.38,1.75,5.1,1.12,.93,1.35,1.88,2.68,2.85,3.99,2.14,2.87,4.38,5.64,6.69,8.35,1.16,1.34,2.33,2.69,3.53,3.99,1.18,1.32,2.4,2.62,3.62,3.9,1.23,1.27,2.45,2.57,3.74,3.78,.69,.56,1.53,.98,2.56,1.2,1.05,.2,2.25,.25,3.91-.15,2.61-.64,4.79-2.68,5.47-5.47,.4-1.66,.35-2.86,.15-3.91Zm-114.72-27.89c-21.35-21.35-21.35-55.96,0-77.3,21.35-21.35,55.96-21.35,77.31,0,21.34,21.34,21.34,55.95,0,77.3-21.34,21.34-55.95,21.34-77.29,0Z"/><path class="o" d="M145.57,142.34l7.32-7.32s-1.94,5.57-7.32,7.32Z"/></g></g></g><g><g><polygon class="w" points="20.28 108.69 22.56 109.94 20.28 111.18 19.04 113.46 17.79 111.18 15.51 109.94 17.79 108.69 19.04 106.41 20.28 108.69"/><polygon class="w" points="13.35 116.72 14.49 117.34 13.35 117.97 12.73 119.11 12.1 117.97 10.96 117.34 12.1 116.72 12.73 115.58 13.35 116.72"/></g><polygon class="w" points="189.55 47.48 191.99 48.81 189.55 50.15 188.21 52.6 186.87 50.15 184.42 48.81 186.87 47.48 188.21 45.03 189.55 47.48"/></g></g></g></g></svg>