<svg xmlns="http://www.w3.org/2000/svg" viewBox="0 0 288.7 227.5"><path d="M266.3,0h-31V12.8a2.9,2.9,0,0,1-2.9,2.9h-6.7a2.9,2.9,0,0,1-2.9-2.9V0h-31a4.2,4.2,0,0,0-4.2,4.2v66a4.2,4.2,0,0,0,4.2,4.3h74.5a4.2,4.2,0,0,0,4.2-4.3V4.2A4.2,4.2,0,0,0,266.3,0Z" fill="#17d7a0"/><path d="M223.2,227.5a34.1,34.1,0,1,1,34.1-34.1A34.1,34.1,0,0,1,223.2,227.5Zm0-51.1a17,17,0,1,0,16.9,17A17,17,0,0,0,223.2,176.4Z" fill="#002434"/><path d="M34.1,227.5a34.1,34.1,0,1,1,34.1-34.1A34.1,34.1,0,0,1,34.1,227.5Zm0-51.1a17,17,0,1,0,16.9,17A17,17,0,0,0,34.1,176.4Z" fill="#002434"/><path d="M239.5,126.6v-9.3h23.7a9.8,9.8,0,0,0,9.8-9.7v-7a9.7,9.7,0,0,0-9.8-9.7H144.1a9.6,9.6,0,0,0-9.7,9.7v7.1a9.7,9.7,0,0,0,9.7,9.7h13.2v37.4h-66a67.3,67.3,0,0,0-18.6-19L98.6,42.2h24a9.8,9.8,0,1,0,0-19.5H88.5a12.3,12.3,0,0,0-4.3,1A11,11,0,0,0,80.4,27L11.3,130.6c-2,3-3.5,6.8-2.4,10.2,1.8,5.2,7.7,7,13.8,5.2a46.7,46.7,0,0,1,13.4-1.9,46,46,0,0,1,46,46,9.8,9.8,0,0,0,9.8,9.7h75.5a9.8,9.8,0,0,0,9.8-9.7,46,46,0,1,1,92,0,9.8,9.8,0,0,0,19.5,0A65.8,65.8,0,0,0,239.5,126.6Z" fill="#002434"/></svg>