<?xml version="1.0" encoding="utf-8"?>
<!-- Generator: Adobe Illustrator 25.0.1, SVG Export Plug-In . SVG Version: 6.00 Build 0)  -->
<svg version="1.0" id="Layer_1" xmlns="http://www.w3.org/2000/svg" xmlns:xlink="http://www.w3.org/1999/xlink" x="0px" y="0px"
	 viewBox="0 0 300 300" style="enable-background:new 0 0 300 300;" xml:space="preserve">
<style type="text/css">
	.st0{fill:url(#SVGID_1_);}
	.st1{fill:url(#SVGID_2_);}
	.st2{fill:url(#SVGID_3_);}
	.st3{fill:url(#SVGID_4_);}
	.st4{fill:#042433;}
	.st5{fill:url(#SVGID_5_);}
	.st6{fill:none;stroke:#042433;stroke-miterlimit:10;}
	.st7{fill:#CCCCCC;}
	.st8{fill:#51BE98;}
	.st9{font-family:'OpenSans-SemiBold';}
	.st10{font-size:148.926px;}
	.st11{letter-spacing:-11;}
	.st12{fill:none;stroke:#000000;stroke-miterlimit:10;}
	.st13{fill:none;stroke:#042433;stroke-width:4;stroke-miterlimit:10;}
	.st14{fill:#FFFFFF;}
	.st15{fill:none;stroke:#51BE98;stroke-miterlimit:10;}
	.st16{clip-path:url(#SVGID_7_);fill:none;}
	.st17{clip-path:url(#SVGID_9_);fill:none;}
</style>
<g>
	<path class="st4" d="M202.3,4.7c-4.3,5.2-9.3,9.8-14.9,13.5c54.9,16.1,95,66.9,95,127.1c0,73.1-59.3,132.4-132.4,132.4
		c-73.1,0-132.4-59.3-132.4-132.4c0-60.1,40.1-110.9,95-127.1c-5.6-3.8-10.7-8.3-14.9-13.5C40.6,25.9,0,80.9,0,145.3
		c0,82.8,67.2,150,150,150c82.8,0,150-67.2,150-150C300,80.9,259.4,25.9,202.3,4.7z"/>
	<text transform="matrix(1 0 0 1 74.0409 201.8094)" class="st4 st9 st10 st11">03</text>
</g>
</svg>
