<?xml version="1.0" encoding="utf-8"?>
<!-- Generator: Adobe Illustrator 25.0.1, SVG Export Plug-In . SVG Version: 6.00 Build 0)  -->
<svg version="1.0" id="Layer_1" xmlns="http://www.w3.org/2000/svg" xmlns:xlink="http://www.w3.org/1999/xlink" x="0px" y="0px"
	 viewBox="0 0 1241.9 1241.9" style="enable-background:new 0 0 1241.9 1241.9;" xml:space="preserve">
<style type="text/css">
	.st0{fill:url(#SVGID_1_);}
	.st1{fill:url(#SVGID_2_);}
	.st2{fill:url(#SVGID_3_);}
	.st3{fill:url(#SVGID_4_);}
	.st4{fill:#042433;}
	.st5{fill:url(#SVGID_5_);}
	.st6{fill:none;stroke:#042433;stroke-miterlimit:10;}
	.st7{fill:#CCCCCC;}
	.st8{fill:#51BE98;}
	.st9{font-family:'OpenSans-SemiBold';}
	.st10{font-size:313.6092px;}
	.st11{letter-spacing:-25;}
	.st12{fill:none;stroke:#000000;stroke-miterlimit:10;}
	.st13{fill:none;stroke:#042433;stroke-width:4;stroke-miterlimit:10;}
	.st14{fill:#FFFFFF;}
	.st15{fill:none;stroke:#51BE98;stroke-miterlimit:10;}
	.st16{clip-path:url(#SVGID_7_);fill:none;}
	.st17{clip-path:url(#SVGID_9_);fill:none;}
</style>
<g>
	<path class="st4" d="M731.1,315c-26.1,32-65.7,52.4-110.2,52.4c-44.5,0-84.1-20.4-110.2-52.4C390.6,359.7,305.1,475.4,305.1,611
		c0,174.4,141.4,315.9,315.9,315.9c174.5,0,315.9-141.4,315.9-315.9C936.8,475.3,851.2,359.7,731.1,315z M620.9,827.6
		c-119.6,0-216.6-97-216.6-216.6c0-119.6,97-216.6,216.6-216.6s216.6,97,216.6,216.6C837.5,730.7,740.6,827.6,620.9,827.6z"/>
	<text transform="matrix(1 0 0 1 466.709 730.0359)" class="st4 st9 st10 st11">01</text>
</g>
</svg>
