<svg xmlns="http://www.w3.org/2000/svg" width="317.924" height="292.246" viewBox="0 0 317.924 292.246">
  <g id="location_not_found" data-name="location not found" transform="translate(-10.099 -17.587)">
    <g id="Group_234" data-name="Group 234" transform="translate(550.375 -143.663)">
      <path id="Path_263" data-name="Path 263" d="M-235.6,319.713h-208.05a10.543,10.543,0,0,0-10.542,10.541V456.767a10.543,10.543,0,0,0,10.542,10.542H-235.6a10.543,10.543,0,0,0,10.542-10.542V330.254A10.542,10.542,0,0,0-235.6,319.713Z" transform="translate(-7.51 -13.825)" fill="#3fa880"/>
      <path id="Path_264" data-name="Path 264" d="M-323.427,326.628V449.494a10.55,10.55,0,0,1-3.091,7.462,10.551,10.551,0,0,1-7.464,3.092H-513.065a10.547,10.547,0,0,1-7.463-3.092,10.547,10.547,0,0,1-3.092-7.462V317.177a10.556,10.556,0,0,1,.917-4.316,10.544,10.544,0,0,1,2.6-3.564L-441.05,239a10.556,10.556,0,0,1,6.892-2.662,10.555,10.555,0,0,1,6.946,2.508l103.328,87.777Z" transform="translate(-1.453 -6.551)" fill="#50bc95"/>
      <path id="Path_265" data-name="Path 265" d="M-314.062,325.573V311.385l-102.213-87.134h80.916a11.223,11.223,0,0,1,7.036,2.522l115.993,94.7a2.349,2.349,0,0,1,.72,1.173,2.34,2.34,0,0,1-.061,1.377,2.347,2.347,0,0,1-.823,1.1,2.358,2.358,0,0,1-1.3.451Z" transform="translate(-10.818 -5.496)" fill="#50bc95"/>
      <path id="Path_266" data-name="Path 266" d="M-390.108,381.651h-57.036A2.859,2.859,0,0,0-450,384.51v88.2h62.751v-88.2A2.858,2.858,0,0,0-390.108,381.651Z" transform="translate(-7.876 -19.228)" fill="#002434"/>
      <path id="Path_267" data-name="Path 267" d="M-211.96,335.258h-92.28v21.413h92.28Z" transform="translate(-20.592 -15.181)" fill="#50bc95"/>
      <path id="Path_268" data-name="Path 268" d="M-422.145,228.473l-4.76-4.222-.094.095-.106-.095-6.7,5.958-105.684,91.225a2.282,2.282,0,0,0-.717,1.15,2.27,2.27,0,0,0,.063,1.352,2.269,2.269,0,0,0,.82,1.077,2.261,2.261,0,0,0,1.287.42l10.883.141,100.244-86.311,101.568,86.311h.457l16.419-.211Z" transform="translate(0 -5.496)" fill="#3fa880"/>
      <path id="Path_269" data-name="Path 269" d="M-418.543,343.143a20.111,20.111,0,0,0,20.111-20.112,20.112,20.112,0,0,0-20.111-20.113,20.113,20.113,0,0,0-20.113,20.113A20.111,20.111,0,0,0-418.543,343.143Z" transform="translate(-8.866 -12.36)" fill="#002434"/>
      <path id="Path_270" data-name="Path 270" d="M-474.35,381.651h-32.164a2.857,2.857,0,0,0-2.857,2.859v51.255a2.855,2.855,0,0,0,2.857,2.857h32.164a2.856,2.856,0,0,0,2.857-2.857V384.509A2.858,2.858,0,0,0-474.35,381.651Z" transform="translate(-2.696 -19.228)" fill="#002434"/>
      <path id="Path_271" data-name="Path 271" d="M-331.956,402.556H-364.12a2.857,2.857,0,0,0-2.857,2.858v32.164a2.857,2.857,0,0,0,2.857,2.857h32.164a2.857,2.857,0,0,0,2.857-2.857V405.414A2.857,2.857,0,0,0-331.956,402.556Z" transform="translate(-15.119 -21.052)" fill="#002434"/>
      <path id="Path_272" data-name="Path 272" d="M-331.956,381.806H-364.12a2.858,2.858,0,0,0-2.857,2.858V390a2.857,2.857,0,0,0,2.857,2.858h32.164A2.857,2.857,0,0,0-329.1,390v-5.331A2.858,2.858,0,0,0-331.956,381.806Z" transform="translate(-15.119 -19.242)" fill="#002434"/>
      <path id="Path_273" data-name="Path 273" d="M-246,184.784a80.269,80.269,0,0,0-26.052-17.417,80.286,80.286,0,0,0-30.736-6.116,80.286,80.286,0,0,0-30.736,6.116,80.279,80.279,0,0,0-26.052,17.417,75.219,75.219,0,0,0-16.789,24.679,75.191,75.191,0,0,0-5.867,29.265c0,20.383,7.869,41.385,22.656,59.563l45.84,59.432a13.857,13.857,0,0,0,4.849,3.963,13.828,13.828,0,0,0,6.1,1.418,13.822,13.822,0,0,0,6.1-1.418,13.833,13.833,0,0,0,4.849-3.963L-246,298.29c14.788-18.178,22.645-39.18,22.645-59.563a75.171,75.171,0,0,0-5.862-29.264A75.176,75.176,0,0,0-246,184.784Z" transform="translate(-13.788)" fill="#002434"/>
      <path id="Path_274" data-name="Path 274" d="M-301.46,307.188a65.518,65.518,0,0,0,65.519-65.517,65.519,65.519,0,0,0-65.519-65.52,65.519,65.519,0,0,0-65.519,65.52A65.518,65.518,0,0,0-301.46,307.188Z" transform="translate(-15.119 -1.3)" fill="#fff"/>
      <g id="Group_233" data-name="Group 233" transform="translate(-354.466 203.98)">
        <path id="Path_275" data-name="Path 275" d="M-312.034,243.673l-23.435-35.609h22.523l14.127,23.175,14.256-23.175h22.523l-23.7,35.609,24.8,37.17h-22.589l-15.3-24.932-15.364,24.932h-22.523Z" transform="translate(336.706 -208.064)" fill="#50bc95"/>
      </g>
    </g>
  </g>
</svg>
