<svg xmlns="http://www.w3.org/2000/svg" xmlns:xlink="http://www.w3.org/1999/xlink" width="406.266" height="482.535" viewBox="0 0 406.266 482.535">
  <defs>
    <clipPath id="clip-path">
      <rect id="Rectangle_3" data-name="Rectangle 3" width="134.931" height="110.72" fill="#17d7a0" stroke="#263238" stroke-linecap="round" stroke-linejoin="round" stroke-width="1"/>
    </clipPath>
    <clipPath id="clip-path-2">
      <path id="Path_80" data-name="Path 80" d="M-75.069,212.439c-4.321-6.859-22.215-37.269-22.215-37.269h-28.565l14.7,37.269Z" transform="translate(125.849 -175.17)" fill="#17d7a0" stroke="#263238" stroke-linecap="round" stroke-linejoin="round" stroke-width="1"/>
    </clipPath>
  </defs>
  <g id="my_order" data-name="my order" transform="translate(-5 -8.475)">
    <g id="Group_46" data-name="Group 46" transform="translate(-59.74)">
      <g id="Group_24" data-name="Group 24" transform="translate(64.74 462.873)">
        <ellipse id="Ellipse_11" data-name="Ellipse 11" cx="115.744" cy="14.068" rx="115.744" ry="14.068" transform="translate(0)" fill="#f7f7f7"/>
        <ellipse id="Ellipse_12" data-name="Ellipse 12" cx="115.744" cy="14.068" rx="115.744" ry="14.068" transform="translate(0)" fill="#f7f7f7" opacity="0.5"/>
      </g>
      <g id="Group_25" data-name="Group 25" transform="translate(304.611 469.929)">
        <path id="Path_54" data-name="Path 54" d="M-80.954,336.609c0,3.873-25.832,7.013-57.7,7.013s-57.7-3.14-57.7-7.013,25.832-7.013,57.7-7.013S-80.954,332.736-80.954,336.609Z" transform="translate(196.347 -329.596)" fill="#f7f7f7"/>
        <path id="Path_55" data-name="Path 55" d="M-80.954,336.609c0,3.873-25.832,7.013-57.7,7.013s-57.7-3.14-57.7-7.013,25.832-7.013,57.7-7.013S-80.954,332.736-80.954,336.609Z" transform="translate(196.347 -329.596)" fill="#f7f7f7" opacity="0.5"/>
      </g>
      <g id="Group_27" data-name="Group 27" transform="translate(152.314 8.99)">
        <path id="Path_56" data-name="Path 56" d="M-240.175,46.417s-8.952-7.034-19.182-3.517-18.062,20.621-20.78,34.527-13.429,24.458-10.87,40.763,21.1,18.862,43.479,21.26,34.529-.32,45.078-15.026,6.074-32.611-.16-48.436-16.623-30.531-25.256-33.248S-240.175,46.417-240.175,46.417Z" transform="translate(291.398 -41.915)" fill="#002434" stroke="#263238" stroke-linecap="round" stroke-linejoin="round" stroke-width="1"/>
        <g id="Group_26" data-name="Group 26" transform="translate(4.474 9.209)">
          <path id="Path_57" data-name="Path 57" d="M-282.506,96.959a25.558,25.558,0,0,0,4.69,1.6" transform="translate(292.28 -17.974)" fill="#002434" stroke="#fff" stroke-linecap="round" stroke-linejoin="round" stroke-width="1"/>
          <path id="Path_58" data-name="Path 58" d="M-244.061,51.835a109.9,109.9,0,0,1-13.733,22.888c-9.155,11.772-29.427,22.888-30.735,35.314a11.776,11.776,0,0,0,2.847,9.251" transform="translate(288.606 -45.15)" fill="#002434" stroke="#fff" stroke-linecap="round" stroke-linejoin="round" stroke-width="1"/>
          <path id="Path_59" data-name="Path 59" d="M-236.648,88.712a21.037,21.037,0,0,1-2.525,4.347" transform="translate(318.378 -22.941)" fill="#002434" stroke="#fff" stroke-linecap="round" stroke-linejoin="round" stroke-width="1"/>
          <path id="Path_60" data-name="Path 60" d="M-242.439,69.385s10.315,11.9,9.316,24.582" transform="translate(316.411 -34.581)" fill="#002434" stroke="#fff" stroke-linecap="round" stroke-linejoin="round" stroke-width="1"/>
          <path id="Path_61" data-name="Path 61" d="M-253.531,47.809a25.253,25.253,0,0,0-21.581,8.5q-.538.615-1.027,1.245" transform="translate(296.115 -47.663)" fill="#002434" stroke="#fff" stroke-linecap="round" stroke-linejoin="round" stroke-width="1"/>
        </g>
      </g>
      <g id="Group_28" data-name="Group 28" transform="translate(96.505 257.229)">
        <path id="Path_62" data-name="Path 62" d="M-282.466,259.959l-1.995,30.831s-8.524,41.35-11.245,58.4-7.617,42.982-8.524,42.982-15.6,8.886-20.312,16.141,1.269,10.338,7.8,7.979,15.415-8.886,18.317-16.684,4.353-10.7,4.534-11.97,31.193-84.513,34.277-93.4,9.612-35,9.612-35l15.234-51.687s16.322,53.137,16.5,55.5,16.867,138.2,17.591,143.274.545,8.705,3.628,9.793,10.338,1.088,14.146,1.088,17.048,1.995,23.577.364,7.253-2.721,2.721-5.984-29.722-5.356-32.1-14.872c-.181-.726-.362-140.553-.362-140.553s-2.177-46.248-5.8-59.3h-83.787Z" transform="translate(326.23 -196.846)" fill="#fff" stroke="#263238" stroke-linecap="round" stroke-linejoin="round" stroke-width="1"/>
        <path id="Path_63" data-name="Path 63" d="M-316.743,342.179c6.529-2.357,15.415-8.886,18.317-16.684.213-.572.415-1.109.612-1.63-3.7,3.943-9.681,9.428-9.681,9.428a11.622,11.622,0,0,0-2.357-5.078,4.213,4.213,0,0,0-4.171-1.271l6.34-7.043c-4.864,2.982-13.457,9.064-16.859,14.3C-329.257,341.455-323.272,344.537-316.743,342.179Z" transform="translate(326.23 -122.735)" fill="#263238" stroke="#263238" stroke-linecap="round" stroke-linejoin="round" stroke-width="1"/>
        <path id="Path_64" data-name="Path 64" d="M-203.771,333.8c-3.1-2.235-15.882-3.921-24.4-7.813a3.019,3.019,0,0,0-.811,1.1,31.6,31.6,0,0,0-1.269,4.715l-17.66-3.765c.029.215.053.4.067.5.726,5.078.545,8.705,3.628,9.793s10.338,1.088,14.146,1.088,17.048,1.995,23.577.364S-199.238,337.063-203.771,333.8Z" transform="translate(373.399 -119.07)" fill="#263238" stroke="#263238" stroke-linecap="round" stroke-linejoin="round" stroke-width="1"/>
      </g>
      <g id="Group_30" data-name="Group 30" transform="translate(136.4 182.134)">
        <path id="Path_65" data-name="Path 65" d="M-273.037,149.978s-8.312,3.837-18.383,21.9c-11,19.732-9.112,30.691-9.271,54.509s-.641,63.3-.641,63.3,30.372,8.152,52.272,6.874,49.555-6.234,49.555-6.234-5.916-80.565-11.509-103.743-8.952-33.569-8.952-33.569a133.145,133.145,0,0,1-32.611.479C-271.119,151.577-273.037,149.978-273.037,149.978Z" transform="translate(301.331 -149.978)" fill="#002434" stroke="#263238" stroke-linecap="round" stroke-linejoin="round" stroke-width="1"/>
        <g id="Group_29" data-name="Group 29" transform="translate(44.008 25.854)">
          <path id="Path_66" data-name="Path 66" d="M-261.818,194.4c.833,2.745,1.6,5.52,2.277,8.293" transform="translate(281.12 -149.075)" fill="#002434" stroke="#fff" stroke-linecap="round" stroke-linejoin="round" stroke-width="1"/>
          <path id="Path_67" data-name="Path 67" d="M-273.865,166.114a266.894,266.894,0,0,1,16.572,37.036" transform="translate(273.865 -166.114)" fill="#002434" stroke="#fff" stroke-linecap="round" stroke-linejoin="round" stroke-width="1"/>
        </g>
      </g>
      <g id="Group_31" data-name="Group 31" transform="translate(216.257 102.377)">
        <path id="Path_68" data-name="Path 68" d="M-98.951,164.58c-.96-.639-16.7-3.11-16.7-3.11l-3.084-1.271s19.065,1.525,19.224.726.8-1.758-.479-1.918-25.817-5.154-25.817-5.154,6.234-5.9,7.034-7.177,1.918-3.836.639-3.836-1.6.8-3.357,1.918-8.631,3.837-10.551,5.435-7.672,5.755-7.672,5.755l-66.617-9.17s-23.4-28.836-28.474-35a66.147,66.147,0,0,0-11.97-10.883c-4.9-2.176-4.715,1.452-4.715,1.452l10.157,45.52s26.479,15.779,28.11,15.779,73.19,2.373,73.19,2.373a88.114,88.114,0,0,1,7.833,4.156c3.036,1.918,22.219,7.992,22.219,7.992s1.279-.639-.16-1.758-10.709-5.6-10.709-5.6l19.182,4.156s1.118-.8.639-1.6-17.583-7.353-17.583-7.353l19.182.96S-97.992,165.22-98.951,164.58Z" transform="translate(251.491 -100.2)" fill="#fff" stroke="#263238" stroke-linecap="round" stroke-linejoin="round" stroke-width="1"/>
        <path id="Path_69" data-name="Path 69" d="M-210.347,141.83c-6.915-8.518-20.7-25.489-24.457-30.052a66.147,66.147,0,0,0-11.97-10.883c-4.9-2.176-4.715,1.452-4.715,1.452l10.157,45.52s11.948,7.12,20.288,11.794Z" transform="translate(251.491 -100.2)" fill="#fff" stroke="#263238" stroke-linecap="round" stroke-linejoin="round" stroke-width="1"/>
      </g>
      <g id="Group_32" data-name="Group 32" transform="translate(157.647 97.986)">
        <path id="Path_70" data-name="Path 70" d="M-259.123,98.645s-13.908.639-22.379,10.072-7.513,30.212-4,42.679,7.992,19.342,7.032,23.659-4.475,5.754-2.557,9.75,12.948,8.313,32.451,7.673,23.178-4.8,23.339-8.471-1.28-6.715-.8-8.952,14.547-14.707,14.547-28.454-6.076-18.543-7.513-28.453-.96-11.35-6.874-15.665S-251.29,95.927-259.123,98.645Z" transform="translate(288.07 -97.459)" fill="#fff" stroke="#002434" stroke-linecap="round" stroke-linejoin="round" stroke-width="1"/>
        <path id="Path_71" data-name="Path 71" d="M-268.178,127.983s-7.667,6.518-15.335,9.585" transform="translate(290.815 -79.076)" fill="none" stroke="#002434" stroke-linecap="round" stroke-linejoin="round" stroke-width="1"/>
        <path id="Path_72" data-name="Path 72" d="M-268.518,128.94s-3.45,11.12-11.884,17.253" transform="translate(292.689 -78.5)" fill="none" stroke="#002434" stroke-linecap="round" stroke-linejoin="round" stroke-width="1"/>
      </g>
      <g id="Group_35" data-name="Group 35" transform="translate(185.635 71.997)">
        <g id="Group_33" data-name="Group 33" transform="translate(21.74 28.454)">
          <path id="Path_73" data-name="Path 73" d="M-249.525,104.485l1.6,15.346L-254.64,112Z" transform="translate(258.476 -95.693)" fill="#fff" stroke="#263238" stroke-linecap="round" stroke-linejoin="round" stroke-width="1"/>
          <path id="Path_74" data-name="Path 74" d="M-257.034,124.414l8.952-16.625L-256.235,99Z" transform="translate(257.034 -98.998)" fill="#fff" stroke="#263238" stroke-linecap="round" stroke-linejoin="round" stroke-width="1"/>
        </g>
        <path id="Path_75" data-name="Path 75" d="M-267.809,81.239s2.4,9.112,2.078,16.944a62.711,62.711,0,0,1-1.118,11.03l16.3,25.9,4.635-23.978,3.038-16.623S-261.414,93.387-267.809,81.239Z" transform="translate(272.285 -81.239)" fill="#fff" stroke="#263238" stroke-linecap="round" stroke-linejoin="round" stroke-width="1"/>
        <g id="Group_34" data-name="Group 34" transform="translate(0 18.223)">
          <path id="Path_76" data-name="Path 76" d="M-256.191,106.181l.959,13.907-4.8-7.513Z" transform="translate(276.971 -84.441)" fill="#fff" stroke="#263238" stroke-linecap="round" stroke-linejoin="round" stroke-width="1"/>
          <path id="Path_77" data-name="Path 77" d="M-270.6,101.724l14.866,26.7,5.914-14.067-15.825-21.74Z" transform="translate(270.602 -92.612)" fill="#fff" stroke="#263238" stroke-linecap="round" stroke-linejoin="round" stroke-width="1"/>
        </g>
      </g>
      <g id="Group_37" data-name="Group 37" transform="translate(311.2 111.778)">
        <rect id="Rectangle_1" data-name="Rectangle 1" width="134.931" height="110.72" transform="translate(0 0)" fill="#17d7a0" stroke="rgba(0,0,0,0)" stroke-width="1"/>
        <g id="Group_36" data-name="Group 36" transform="translate(0 0)" clip-path="url(#clip-path)">
          <rect id="Rectangle_2" data-name="Rectangle 2" width="134.931" height="110.72" fill="#17d7a0" stroke="rgba(0,0,0,0)" stroke-width="1" opacity="0.2"/>
        </g>
        <rect id="Rectangle_4" data-name="Rectangle 4" width="134.931" height="110.72" transform="translate(0 0)" fill="#17d7a0" stroke="#263238" stroke-linecap="round" stroke-linejoin="round" stroke-width="1"/>
      </g>
      <rect id="Rectangle_5" data-name="Rectangle 5" width="134.931" height="110.72" transform="translate(282.636 111.778)" fill="#17d7a0" stroke="#263238" stroke-linecap="round" stroke-linejoin="round" stroke-width="1"/>
      <g id="Group_39" data-name="Group 39" transform="translate(417.568 222.498)">
        <path id="Path_78" data-name="Path 78" d="M-75.069,212.439c-4.321-6.859-22.215-37.269-22.215-37.269h-28.565l14.7,37.269Z" transform="translate(125.849 -175.17)" fill="#17d7a0" stroke="rgba(0,0,0,0)" stroke-width="1"/>
        <g id="Group_38" data-name="Group 38" transform="translate(0)" clip-path="url(#clip-path-2)">
          <path id="Path_79" data-name="Path 79" d="M-75.069,212.439c-4.321-6.859-22.215-37.269-22.215-37.269h-28.565l14.7,37.269Z" transform="translate(125.849 -175.17)" fill="#17d7a0" stroke="rgba(0,0,0,0)" stroke-width="1" opacity="0.2"/>
        </g>
        <path id="Path_81" data-name="Path 81" d="M-75.069,212.439c-4.321-6.859-22.215-37.269-22.215-37.269h-28.565l14.7,37.269Z" transform="translate(125.849 -175.17)" fill="#17d7a0" stroke="#263238" stroke-linecap="round" stroke-linejoin="round" stroke-width="1"/>
      </g>
      <path id="Path_82" data-name="Path 82" d="M-223.985,212.439c4.321-6.859,22.217-37.269,22.217-37.269H-173.2l-14.7,37.269Z" transform="translate(484.313 47.328)" fill="#17d7a0" stroke="#002434" stroke-linecap="round" stroke-linejoin="round" stroke-width="1"/>
      <path id="Path_83" data-name="Path 83" d="M-205.45,175.17l-12.422,37.269H-76.956l6.529-37.269Z" transform="translate(487.995 47.328)" fill="#17d7a0" stroke="#263238" stroke-linecap="round" stroke-linejoin="round" stroke-width="1"/>
      <g id="Group_40" data-name="Group 40" transform="translate(262.124 151.845)">
        <line id="Line_1" data-name="Line 1" y2="37.068" transform="translate(201.37 0)" fill="none" stroke="#263238" stroke-linecap="round" stroke-linejoin="round" stroke-width="1"/>
        <line id="Line_2" data-name="Line 2" y2="30.055" transform="translate(208.383 16.029)" fill="none" stroke="#263238" stroke-linecap="round" stroke-linejoin="round" stroke-width="1"/>
        <line id="Line_3" data-name="Line 3" y2="23.042" transform="translate(6.011 37.068)" fill="none" stroke="#263238" stroke-linecap="round" stroke-linejoin="round" stroke-width="1"/>
        <line id="Line_4" data-name="Line 4" y2="18.033" transform="translate(0 50.092)" fill="none" stroke="#263238" stroke-linecap="round" stroke-linejoin="round" stroke-width="1"/>
      </g>
      <g id="Group_42" data-name="Group 42" transform="translate(163.416 119.473)">
        <path id="Path_84" data-name="Path 84" d="M-284.47,130.371a74.089,74.089,0,0,0,16.465,13.908c9.591,5.754,44.918,25.735,47.635,26.855s86.959-12.629,86.959-12.629a88.107,88.107,0,0,1,7.833,4.156c3.036,1.918,22.219,7.992,22.219,7.992s1.279-.639-.159-1.758-10.711-5.6-10.711-5.6l19.182,4.156s1.12-.8.639-1.6-17.583-7.353-17.583-7.353l19.182.96s1.439-1.759.479-2.4-20.621-5.114-20.621-5.114,20.942-1.759,21.1-2.559.8-1.758-.481-1.918-27.495-2.717-27.495-2.717,6.874-4.316,7.673-5.6,1.918-3.836.639-3.836-1.6.8-3.357,1.918-8.631,3.837-10.549,5.435-7.673,5.755-7.673,5.755l-77.049.16-47.8-37.725" transform="translate(284.47 -110.87)" fill="#fff" stroke="#263238" stroke-linecap="round" stroke-linejoin="round" stroke-width="1"/>
        <path id="Path_85" data-name="Path 85" d="M-112.12,138.282c-1.279-.16-27.495-2.717-27.495-2.717s6.874-4.316,7.673-5.6,1.918-3.836.639-3.836-1.6.8-3.357,1.918-8.631,3.837-10.549,5.435-7.673,5.755-7.673,5.755l-77.049.16-8.582-6.774c-3.269,5.621-9.2,16.167-13.1,23.119,6,3.342,10.543,5.821,11.448,6.194,2.717,1.118,86.959-12.629,86.959-12.629a88.112,88.112,0,0,1,7.833,4.156c3.036,1.918,22.219,7.992,22.219,7.992s1.279-.639-.159-1.758-10.711-5.6-10.711-5.6l19.182,4.156s1.12-.8.639-1.6-17.583-7.353-17.583-7.353l19.182.96s1.439-1.759.479-2.4-20.621-5.114-20.621-5.114,20.942-1.759,21.1-2.559S-110.841,138.443-112.12,138.282Z" transform="translate(304.261 -101.677)" fill="#fff" stroke="#263238" stroke-linecap="round" stroke-linejoin="round" stroke-width="1"/>
      </g>
      <g id="Group_45" data-name="Group 45" transform="translate(180.227 30.556)">
        <path id="Path_86" data-name="Path 86" d="M-244.341,73.179c0-.481,3.2-2.078,4,.958s-.8,8.152-2.557,9.912-3.357,2.238-3.357,0S-244.341,73.179-244.341,73.179Z" transform="translate(290.672 -45.165)" fill="#fff" stroke="#263238" stroke-linecap="round" stroke-linejoin="round" stroke-width="1"/>
        <g id="Group_44" data-name="Group 44" transform="translate(0 0)">
          <path id="Path_87" data-name="Path 87" d="M-247.328,55.375s-.314,11.914-9.407,20.693a78.18,78.18,0,0,1-17.243,12.855s.941,5.015,2.822,6.584,5.643,1.255,5.643,1.255a40.626,40.626,0,0,0,10.347,15.675c7.524,6.9,16.3,6.271,21.32-4.075s7.524-20.693,6.9-26.65l-.628-5.957S-243.88,66.661-247.328,55.375Z" transform="translate(273.978 -55.375)" fill="#fff" stroke="#263238" stroke-linecap="round" stroke-linejoin="round" stroke-width="1"/>
          <g id="Group_43" data-name="Group 43" transform="translate(21.546 19.414)">
            <ellipse id="Ellipse_13" data-name="Ellipse 13" cx="1.439" cy="2.558" rx="1.439" ry="2.558" transform="translate(2.719 6.456)" fill="#263238"/>
            <ellipse id="Ellipse_14" data-name="Ellipse 14" cx="1.439" cy="2.558" rx="1.439" ry="2.558" transform="translate(10.551 26.917)" fill="#263238"/>
            <ellipse id="Ellipse_15" data-name="Ellipse 15" cx="1.439" cy="2.558" rx="1.439" ry="2.558" transform="translate(16.626 6.456)" fill="#263238"/>
            <path id="Path_88" data-name="Path 88" d="M-249.131,71.421a15.094,15.094,0,0,0-.479,5.916c.479,2.717,2.717,7.353.8,8.152s-4.475.479-5.435-.639" transform="translate(264.317 -65.125)" fill="none" stroke="#263238" stroke-linecap="round" stroke-linejoin="round" stroke-width="1"/>
            <path id="Path_89" data-name="Path 89" d="M-260.531,71.886s.756-4.916,7.185-4.349" transform="translate(260.531 -67.492)" fill="none" stroke="#263238" stroke-linecap="round" stroke-linejoin="round" stroke-width="1"/>
            <path id="Path_90" data-name="Path 90" d="M-249.792,68.96s5.988-4.826,7.933,3.975" transform="translate(266.999 -67.402)" fill="none" stroke="#263238" stroke-linecap="round" stroke-linejoin="round" stroke-width="1"/>
          </g>
        </g>
      </g>
    </g>
  </g>
</svg>
