<svg xmlns="http://www.w3.org/2000/svg" xmlns:xlink="http://www.w3.org/1999/xlink" width="500.176" height="442.355" viewBox="0 0 500.176 442.355">
  <defs>
    <linearGradient id="linear-gradient" x1="0.5" y1="1.267" x2="0.5" y2="0.195" gradientUnits="objectBoundingBox">
      <stop offset="0" stop-color="#8ad3ff"/>
      <stop offset="1" stop-color="#5f9cff"/>
    </linearGradient>
    <linearGradient id="linear-gradient-2" x1="0.5" y1="1.267" x2="0.5" y2="0.195" gradientUnits="objectBoundingBox">
      <stop offset="0" stop-color="#e2f4ff"/>
      <stop offset="1" stop-color="#d7ecff"/>
    </linearGradient>
    <linearGradient id="linear-gradient-5" x1="0.5" y1="1.267" x2="0.5" y2="0.195" gradientUnits="objectBoundingBox">
      <stop offset="0" stop-color="#9972ff"/>
      <stop offset="1" stop-color="#7f85ff"/>
    </linearGradient>
  </defs>
  <g id="network_issue" data-name="network issue" transform="translate(0 -29.369)">
    <path id="Path_1" data-name="Path 1" d="M-235.573,67.321c-19.951,3.967-40.657,6.822-62.66,6.556-4.254-.114-8.524-.353-12.81-.746a162.286,162.286,0,0,1-25.923-4.446,90.547,90.547,0,0,0-14.507-2.949,80.838,80.838,0,0,0-14.7-.367c-34.921,2.244-65.715,27.587-66.255,61.949,1.335,28.828,15.611,55.872,23.786,84.417a106.562,106.562,0,0,1-.168,17.361,99.79,99.79,0,0,1-3.212,17.682c-1.23,5.035-2.728,10.071-4.3,15.094-6.306,20.091-13.764,39.967-16.941,59.638a67.015,67.015,0,0,0-.593,12.551,56.04,56.04,0,0,0,6.939,24.593c20.166,31.507,59.614,49.809,98.621,44.579,5.221-.22,10.466-.638,15.7-1.171a75.925,75.925,0,0,0,12.7-3.129c20.521-6.92,38.24-21.666,56.092-33.313,21.594-14.087,47.2-22.041,72.512-26.227,28-4.628,56.96.905,85.093,3.09,4.754.371,9.576.633,14.446.89,50.211,9.529,135.982.346,138-68.293A55.545,55.545,0,0,0,62.8,260.314c-7.122-19.11-22.94-36.178-30.653-54.178-2.351-4.841-4.445-9.7-6.332-14.633A212.594,212.594,0,0,1,12.2,114.652c-.145-5.373-.184-10.7-.25-16-.2-15.875-.738-31.6-3.543-46.67a65.893,65.893,0,0,0-3.8-11.231A54.809,54.809,0,0,0-1.431,30.37,61.751,61.751,0,0,0-9.992,19.448,57.773,57.773,0,0,0-35.052,4.614a96.766,96.766,0,0,0-13.22-2.735c-22.318-3.057-45.8,1-67.993,6.245q-7.818,1.843-15.4,4.349a202.8,202.8,0,0,0-34.61,16.994c-3.672,2.2-7.307,4.471-10.938,6.764a242.205,242.205,0,0,1-44.677,27.155C-225.867,64.717-230.422,66.016-235.573,67.321Z" transform="translate(433.933 47.13)" fill="#f7f7f7"/>
    <g id="Group_1" data-name="Group 1" transform="translate(371.053 276.77)">
      <path id="Path_2" data-name="Path 2" d="M-221.635,131.742" transform="translate(221.635 -131.742)" fill="#abefe7"/>
    </g>
    <g id="Group_2" data-name="Group 2" transform="translate(90.202 276.77)">
      <path id="Path_3" data-name="Path 3" d="M-382.324,131.742" transform="translate(382.324 -131.742)" fill="#abefe7"/>
    </g>
    <g id="Group_3" data-name="Group 3" transform="translate(135.997 338.058)">
      <path id="Path_4" data-name="Path 4" d="M-356.122,166.808" transform="translate(356.122 -166.808)" fill="#abefe7"/>
    </g>
    <g id="Group_4" data-name="Group 4" transform="translate(325.257 338.058)">
      <path id="Path_5" data-name="Path 5" d="M-247.837,166.808" transform="translate(247.837 -166.808)" fill="#abefe7"/>
    </g>
    <g id="Group_5" data-name="Group 5" transform="translate(135.997 338.058)">
      <path id="Path_6" data-name="Path 6" d="M-356.122,166.808" transform="translate(356.122 -166.808)" fill="#abefe7"/>
    </g>
    <g id="Group_6" data-name="Group 6" transform="translate(325.257 338.058)">
      <path id="Path_7" data-name="Path 7" d="M-247.837,166.808" transform="translate(247.837 -166.808)" fill="#abefe7"/>
    </g>
    <g id="Group_10" data-name="Group 10" transform="translate(32.344 141.531)">
      <g id="Group_7" data-name="Group 7">
        <path id="Path_8" data-name="Path 8" d="M-21.976,141.185a14.691,14.691,0,0,1-11.6,5.656,14.667,14.667,0,0,1-9.045-3.1A280.188,280.188,0,0,0-176.446,86.65a289.624,289.624,0,0,0-40.692-2.861A289.846,289.846,0,0,0-257.83,86.65a280.1,280.1,0,0,0-133.827,57.086,14.708,14.708,0,0,1-20.643-2.552,14.686,14.686,0,0,1,2.533-20.643,309.231,309.231,0,0,1,150.595-63.4,316.453,316.453,0,0,1,42.034-2.774A316.728,316.728,0,0,1-175.1,57.139a309.362,309.362,0,0,1,150.595,63.4A14.705,14.705,0,0,1-21.976,141.185Z" transform="translate(415.427 -54.365)" fill="#17d7a0" stroke="#daebfe" stroke-miterlimit="10" stroke-width="1"/>
      </g>
      <g id="Group_8" data-name="Group 8" transform="translate(43.151 71.899)">
        <path id="Path_9" data-name="Path 9" d="M-83.64,167.95a14.689,14.689,0,0,1-11.553,5.612,14.558,14.558,0,0,1-9.089-3.169,209.16,209.16,0,0,0-93.928-42.232A214.925,214.925,0,0,0-235.6,124.9a214.925,214.925,0,0,0-37.39,3.258,209.161,209.161,0,0,0-93.928,42.232,14.725,14.725,0,0,1-20.664-2.443,14.727,14.727,0,0,1,2.443-20.664A238.149,238.149,0,0,1-274.333,98.561,242.887,242.887,0,0,1-235.6,95.5a242.888,242.888,0,0,1,38.733,3.059A238.242,238.242,0,0,1-86.061,147.286,14.7,14.7,0,0,1-83.64,167.95Z" transform="translate(390.738 -95.502)" fill="#17d7a0" stroke="#daebfe" stroke-miterlimit="10" stroke-width="1"/>
      </g>
      <g id="Group_9" data-name="Group 9" transform="translate(88.943 148.286)">
        <path id="Path_10" data-name="Path 10" d="M-149.14,196.711a14.688,14.688,0,0,1-20.687,2.157,135.991,135.991,0,0,0-53.016-26.32,135.154,135.154,0,0,0-32.35-3.94,135.013,135.013,0,0,0-32.35,3.94,135.991,135.991,0,0,0-53.016,26.32,14.6,14.6,0,0,1-9.267,3.281,14.658,14.658,0,0,1-11.422-5.437,14.689,14.689,0,0,1,2.157-20.685,165.327,165.327,0,0,1,68.686-32.99,164.055,164.055,0,0,1,35.211-3.829,164.054,164.054,0,0,1,35.211,3.829,165.31,165.31,0,0,1,68.685,32.99A14.724,14.724,0,0,1-149.14,196.711Z" transform="translate(364.538 -139.207)" fill="#17d7a0" stroke="#daebfe" stroke-miterlimit="10" stroke-width="1"/>
      </g>
    </g>
    <g id="Group_11" data-name="Group 11" transform="translate(200.573 358.504)">
      <circle id="Ellipse_1" data-name="Ellipse 1" cx="30.054" cy="30.054" r="30.054" fill="#002434"/>
    </g>
    <path id="Path_11" data-name="Path 11" d="M-286.61,289.56h0a25.543,25.543,0,0,1-25.516-24.373L-322.493,38.924A35.921,35.921,0,0,1-286.61,1.36h0a35.921,35.921,0,0,1,35.884,37.564l-10.368,226.264A25.54,25.54,0,0,1-286.61,289.56Z" transform="translate(517.238 47.53)" fill="url(#linear-gradient)"/>
    <path id="Path_12" data-name="Path 12" d="M-286.911,139.207a164.054,164.054,0,0,1,35.211,3.829l-.9,19.476a34.219,34.219,0,0,1-1.959,10.036,135.154,135.154,0,0,0-32.35-3.94,135.013,135.013,0,0,0-32.35,3.94,34.218,34.218,0,0,1-1.959-10.036l-.9-19.476A164.054,164.054,0,0,1-286.911,139.207Z" transform="translate(517.544 150.61)" fill="url(#linear-gradient-2)" style="mix-blend-mode: multiply;isolation: isolate"/>
    <path id="Path_13" data-name="Path 13" d="M-285.4,95.5a242.888,242.888,0,0,1,38.733,3.059l-1.342,29.6A214.926,214.926,0,0,0-285.4,124.9a214.925,214.925,0,0,0-37.39,3.258l-1.342-29.6A242.887,242.887,0,0,1-285.4,95.5Z" transform="translate(516.037 117.928)" fill="url(#linear-gradient-2)" style="mix-blend-mode: multiply;isolation: isolate"/>
    <path id="Path_14" data-name="Path 14" d="M-241.957,57.139-243.3,86.65a289.624,289.624,0,0,0-40.692-2.861,289.846,289.846,0,0,0-40.692,2.861l-1.342-29.511a316.454,316.454,0,0,1,42.034-2.774A316.728,316.728,0,0,1-241.957,57.139Z" transform="translate(514.625 87.166)" fill="url(#linear-gradient-2)" style="mix-blend-mode: multiply;isolation: isolate"/>
    <path id="Path_15" data-name="Path 15" d="M-286.61,289.56h0a25.543,25.543,0,0,1-25.516-24.373L-322.493,38.924A35.921,35.921,0,0,1-286.61,1.36h0a35.921,35.921,0,0,1,35.884,37.564l-10.368,226.264A25.54,25.54,0,0,1-286.61,289.56Z" transform="translate(517.238 47.53)" fill="url(#linear-gradient-5)"/>
    <path id="Path_16" data-name="Path 16" d="M-360.185,203.752l-38.923,67.416a1.491,1.491,0,0,0,1.292,2.237h77.847a1.492,1.492,0,0,0,1.292-2.237L-357.6,203.752A1.491,1.491,0,0,0-360.185,203.752Z" transform="translate(459.823 198.319)" fill="#17d7a0"/>
    <g id="Group_15" data-name="Group 15" transform="translate(97.238 423.384)">
      <g id="Group_14" data-name="Group 14" transform="translate(0.595 32.612)">
        <path id="Path_17" data-name="Path 17" d="M-371.764,237.383a3.1,3.1,0,0,1-3.1,3.1,3.1,3.1,0,0,1-3.1-3.1,3.1,3.1,0,0,1,3.1-3.1A3.1,3.1,0,0,1-371.764,237.383Z" transform="translate(377.958 -234.286)" fill="#fff"/>
      </g>
      <path id="Path_18" data-name="Path 18" d="M-374.606,245.242h0a2.623,2.623,0,0,1-2.622-2.5l-1.066-23.249a3.692,3.692,0,0,1,3.688-3.861h0a3.691,3.691,0,0,1,3.686,3.861l-1.064,23.249A2.625,2.625,0,0,1-374.606,245.242Z" transform="translate(378.298 -215.627)" fill="#fff"/>
    </g>
    <path id="Path_19" data-name="Path 19" d="M-345.247-9.261l-28.568,49.482a1.094,1.094,0,0,0,.947,1.641h57.135a1.1,1.1,0,0,0,.949-1.641L-343.35-9.261A1.094,1.094,0,0,0-345.247-9.261Z" transform="translate(478.778 39.178)" fill="#f0f0f0"/>
    <g id="Group_18" data-name="Group 18" transform="translate(131.77 45.56)">
      <g id="Group_17" data-name="Group 17" transform="translate(0.435 23.936)">
        <circle id="Ellipse_2" data-name="Ellipse 2" cx="2.273" cy="2.273" r="2.273" transform="translate(0 0)" fill="#fff"/>
      </g>
      <path id="Path_20" data-name="Path 20" d="M-355.832,21.191h0a1.926,1.926,0,0,1-1.924-1.837l-.781-17.065a2.708,2.708,0,0,1,2.706-2.833h0a2.708,2.708,0,0,1,2.706,2.833l-.781,17.065A1.926,1.926,0,0,1-355.832,21.191Z" transform="translate(358.541 0.545)" fill="#fff"/>
    </g>
    <path id="Path_21" data-name="Path 21" d="M-286.61,289.56h0a25.543,25.543,0,0,1-25.516-24.373L-322.493,38.924A35.921,35.921,0,0,1-286.61,1.36h0a35.921,35.921,0,0,1,35.884,37.564l-10.368,226.264A25.54,25.54,0,0,1-286.61,289.56Z" transform="translate(517.238 47.53)" fill="#002434"/>
    <g id="Group_21" data-name="Group 21" transform="translate(467.512 158.055)">
      <g id="Group_20" data-name="Group 20" transform="translate(0 48.722)">
        <path id="Path_22" data-name="Path 22" d="M-156.978,97.983a4.841,4.841,0,0,1-6.067,3.179,4.843,4.843,0,0,1-3.179-6.067,4.845,4.845,0,0,1,6.068-3.179A4.842,4.842,0,0,1-156.978,97.983Z" transform="translate(166.446 -91.695)" fill="#f0f0f0"/>
      </g>
      <path id="Path_23" data-name="Path 23" d="M-160.815,108.288h0a4.105,4.105,0,0,1-2.746-4.962l9.253-35.2a5.774,5.774,0,0,1,7.3-4.043h0a5.775,5.775,0,0,1,3.7,7.482l-12.432,34.208A4.106,4.106,0,0,1-160.815,108.288Z" transform="translate(168.501 -63.819)" fill="#f0f0f0"/>
    </g>
  </g>
</svg>
