<?xml version="1.0" encoding="UTF-8"?><svg xmlns="http://www.w3.org/2000/svg" viewBox="0 0 130.2 143.4"><defs><style>.d{fill:#fff;}.e{fill:#d6f1fc;}.f{fill:#16c48e;}.g{fill:#7dd2f7;}.h{fill:#99dcf9;}.i{opacity:.54;}.j{fill:#09593e;}.k{fill:#17d7a0;}.l{fill:#ffe9f2;}.m{fill:#002343;}.n{fill:#efefef;}.o{fill:#68b9e8;}</style></defs><g id="a"/><g id="b"><g id="c"><g><g class="i"><circle class="n" cx="66.96" cy="63.24" r="63.24"/><circle class="n" cx="10.89" cy="18.04" r="4.07"/><circle class="n" cx="123.02" cy="18.04" r="4.07"/><circle class="n" cx="10.89" cy="108.45" r="4.07"/><circle class="n" cx="123.02" cy="108.45" r="4.07"/></g><ellipse class="n" cx="62.21" cy="138.82" rx="54.95" ry="4.58"/><path class="f" d="M79.85,31.38c-.23-1.53,.27-2.87,1.12-3s1.72,1.01,1.95,2.54c.23,1.53-.27,2.87-1.12,3s-1.72-1.01-1.95-2.54Z"/><g><path class="h" d="M114.6,141.01c-1.86,0-3.94-.18-5.56-.49-2.71-.51-3.14-1.13-3.22-1.62-.09-.59,.29-1.38,1.08-2.96,1.38-2.75,3.46-6.91,2.74-11.22-.21-1.28-.41-2.71-.58-4.24-.02-.2,.06-.39,.22-.5,.09-.07,.21-.1,.32-.1,.08,0,.15,.02,.23,.05,.64,.29,1.34,.45,2.01,.45,.54,0,1.06-.1,1.52-.3,.23-.1,.46-.22,.69-.36,.09-.06,.19-.08,.29-.08,.07,0,.14,.01,.21,.04,.16,.07,.28,.21,.32,.39,.33,1.57,1.26,4.16,2.25,6.9,2.68,7.46,4.19,12.07,2.52,13.17-1.07,.71-3.33,.86-5.05,.86h0Z"/><path class="o" d="M114.34,120.18c1.01,4.75,7.16,18.07,5,19.51-.82,.55-2.68,.77-4.74,.77-3.72,0-8.1-.73-8.24-1.64-.22-1.42,4.91-7.64,3.82-14.19-.21-1.28-.41-2.71-.57-4.21,.7,.32,1.47,.5,2.24,.5,.59,0,1.18-.11,1.73-.34,.27-.11,.52-.25,.77-.4m0-1.09c-.2,0-.4,.06-.58,.17-.2,.12-.4,.23-.61,.32-.4,.17-.84,.25-1.31,.25-.59,0-1.21-.14-1.78-.4-.14-.07-.3-.1-.45-.1-.23,0-.45,.07-.64,.21-.32,.23-.49,.61-.44,1,.17,1.54,.37,2.98,.58,4.27,.69,4.13-1.35,8.19-2.69,10.88-.81,1.61-1.25,2.5-1.13,3.29,.15,.94,1.16,1.35,1.49,1.49,.54,.22,1.27,.42,2.16,.58,1.66,.31,3.78,.5,5.67,.5,2.6,0,4.4-.32,5.35-.95,1.4-.93,1-3.33,.35-5.77-.63-2.38-1.66-5.26-2.66-8.04-.98-2.72-1.9-5.3-2.23-6.83-.07-.35-.31-.64-.64-.78-.14-.06-.28-.09-.43-.09h0Z"/></g><path class="g" d="M116.5,126.85h0c.65,1.79,1.75,9.35,.44,11.09-1.31,1.75-1.53-5.24-2.95-8.73s.11,4.91-2.29,7.75c-2.4,2.84,.11-8.62,0-13.42-.02-.79-.1-1.67-.23-2.63-.64-.05-1.28-.21-1.87-.48,.17,1.5,.36,2.93,.57,4.21,1.09,6.55-4.04,12.77-3.82,14.19s10.7,2.4,12.99,.87c1.45-.97-.87-7.34-2.84-12.84Z"/><path class="f" d="M103.84,64.17c6.5-2.22,10.6,.33,10.6,.33v.03c-.12-.02-.23-.03-.34-.03-.77,0-5.22,.65-7.95,2.61-.73-.97-1.53-1.93-2.39-2.85l.08-.08Z"/><path class="l" d="M112.08,64.79c.99-.2,1.75-.29,2.02-.29,.11,0,.22,.01,.34,.03v-.03s-4.09-2.55-10.6-.33l-.08,.08c.28,.3,.56,.61,.83,.92,3.19-.96,5.76-.78,7.49-.38Z"/><path class="f" d="M114.44,64.53c3.3,.63,6.82,10.29-.8,18.59l-.31,.07c-1.08-4.94-3.17-10.77-7.17-16.08,2.73-1.95,7.18-2.61,7.95-2.61,.11,0,.22,.01,.34,.03Z"/><path class="f" d="M101.6,127.27l.06,.09c-1.96,6.88-6.62,11.62-11.57,10.48-4.26-.98-4.69-5.24-4.69-5.24v-.02c3.5-.13,10.16-.99,16.2-5.3Z"/><path class="f" d="M63.13,135.42h0c-2.51,6.78-10.26,5.25-11.68,3.29-1.98-2.74-4.04-3.82-4.24-3.92,4.31,.95,10.05,1.63,15.92,.64Z"/><path class="k" d="M114.43,94.7c5.75,.99,8.57,5.02,8.18,13.46-.37,8.08-7.45,12.45-13.75,11.22v.02c-2.09,3.44-4.62,5.99-7.27,7.88-6.04,4.31-12.7,5.18-16.2,5.3-1.54,.06-2.46-.03-2.46-.03h-.05c-1.87,6.81-7.1,11.96-11.46,9.55-4.08-2.26-5.34-5.54-5.73-7.22h-.06c-.84,.23-1.68,.41-2.51,.55-5.86,1-11.6,.32-15.92-.64h0c-1.5-.33-2.83-.7-3.94-1.03-.36,.71-9.1,17.72-18.39-.44-7.6-14.85-13.92-24.03-11.44-45.51,2.11-18.29,20.1-39.23,61.15-36.08,14.13,1.09,23.26,6.19,29.17,12.52,.87,.93,1.66,1.88,2.39,2.85,4,5.31,6.09,11.15,7.17,16.08,1.38,6.27,1.13,11.08,1.1,11.51Z"/><path class="l" d="M76.34,66.03s-5.9,.92-9.12,7.39c0,0,1.26-8.15,9.12-7.39Z"/><path class="l" d="M13.44,89.22c2.11-18.29,20.1-39.23,61.15-36.08,14.13,1.09,23.26,6.19,29.17,12.52,.87,.93,1.66,1.88,2.39,2.85,4,5.31,6.09,11.15,7.17,16.08,.87,3.95,1.09,7.33,1.13,9.39,.03-1.61-.02-5.73-1.13-10.81-1.08-4.94-3.17-10.77-7.17-16.08-.73-.97-1.53-1.93-2.39-2.85-5.9-6.33-15.04-11.43-29.17-12.52-41.05-3.16-59.04,17.79-61.15,36.08-.4,3.5-.57,6.68-.54,9.6,.03-2.53,.2-5.24,.54-8.19Z"/><path class="f" d="M113.56,117.21c-2.73,.33-7.75-.11-9.93-8.95-2.18-8.84,4.8-13.6,4.8-13.6-6.55,1.79-8.13,6.12-8.84,12.29-.71,6.17,5.29,13.7,5.29,13.7-4.42,7.04-18.06,10.97-19.54,10.7s-1.64-2.73-1.64-2.73l-.73,3.59c19.18,.48,25.32-12.81,25.32-12.81,.17,.04,.34,.07,.51,.09,.02-.03,.04-.06,.06-.09v-.02c4.45,.87,9.29-1.06,11.88-5.12,0,0-4.46,2.63-7.19,2.95Z"/><path class="f" d="M75.34,142.42c-5.03-.33-6.64-6-6.48-8.24s4.8-3.27,4.8-3.27c-61.5,2.89-57.06-54.03-57.06-54.03h0c-1.71,3.61-2.74,7.32-3.16,10.93-2.48,21.48,3.85,30.66,11.44,45.51,9.29,18.16,18.03,1.15,18.39,.44,1.1,.34,2.43,.7,3.94,1.03h0c4.31,.95,10.05,1.63,15.92,.64,.84-.14,1.68-.32,2.51-.53h.06c.38,1.66,1.64,4.94,5.73,7.2,.42,.23,.85,.39,1.28,.49l2.63-.16h0Z"/><path class="f" d="M87.42,72.11s-5.95-6.52-8.35-6.09-7.11,2.85-6.88,9.61c.23,6.76,2.41,7.42,2.41,7.42,2.75-6.93,7.02-10.58,12.83-10.94Z"/><path class="f" d="M67.72,71.05s.44,11.13,2.29,10.15,.17-11,6.36-14.5c0,0-7.69,5.66-2.22,15.92,0,0-.75,2.73-5.67,1.75,0,0-3.71-9.71-.76-13.31Z"/><path class="m" d="M87.48,72.5c-1.09-.77-2.14-1.58-3.19-2.39l-.78-.61-.78-.62c-.52-.41-1.03-.84-1.54-1.22-.5-.38-1.03-.71-1.57-.9-.27-.1-.55-.16-.83-.18-.07-.01-.14,0-.21,0-.07,0-.14,0-.21,0-.14,.02-.28,.02-.42,.06-.28,.05-.56,.15-.83,.27-.13,.07-.27,.13-.4,.21l-.19,.11-.19,.13c-.5,.34-.95,.78-1.35,1.26-.1,.12-.19,.24-.29,.37-.09,.13-.18,.25-.27,.39-.17,.26-.34,.54-.49,.82-.3,.56-.55,1.14-.76,1.74-.41,1.2-.63,2.48-.65,3.76-.04,2.56,.74,5.15,2.28,7.2h0c.13,.17,.09,.41-.08,.54-.17,.13-.4,.09-.53-.07-.84-1.09-1.49-2.32-1.92-3.62-.43-1.3-.65-2.67-.67-4.05-.03-2.74,.79-5.54,2.56-7.74,.45-.54,.96-1.04,1.55-1.45l.22-.15,.23-.14c.15-.1,.32-.17,.48-.25,.34-.15,.68-.28,1.06-.35,.18-.05,.37-.06,.56-.08,.09,0,.19,0,.29,0,.1,0,.19,0,.29,0,.38,.02,.76,.09,1.12,.21,.36,.12,.69,.28,1,.46,.31,.18,.61,.38,.88,.59,.28,.21,.54,.43,.79,.65,.25,.22,.5,.43,.75,.66l.75,.66,.74,.67c.99,.89,1.97,1.79,2.92,2.72,.1,.1,.11,.27,0,.37-.09,.09-.24,.1-.34,.03Z"/><path class="m" d="M105.98,66.9c.5-.41,1.04-.77,1.61-1.08,.14-.08,.29-.15,.43-.22,.14-.07,.29-.14,.44-.21l.44-.19,.45-.18c.6-.23,1.21-.43,1.83-.59,.62-.17,1.24-.3,1.88-.4,.16-.03,.32-.04,.48-.06,.17-.02,.33-.03,.52-.04,.41,0,.81,.1,1.15,.27,.34,.17,.64,.39,.9,.63,.26,.24,.49,.5,.69,.77,.81,1.1,1.29,2.34,1.59,3.61,.07,.32,.13,.64,.18,.96,.04,.32,.08,.65,.11,.97,.05,.65,.05,1.3,0,1.94-.09,1.29-.35,2.57-.77,3.78-.42,1.22-.97,2.38-1.65,3.47-.67,1.09-1.46,2.1-2.33,3.03-.14,.16-.39,.16-.54,.02-.15-.14-.16-.38-.02-.54h0c1.64-1.82,2.96-3.94,3.67-6.27,.36-1.16,.58-2.36,.64-3.56,.05-1.2-.03-2.41-.31-3.58-.14-.58-.32-1.15-.55-1.69-.23-.54-.52-1.06-.87-1.51-.35-.45-.76-.84-1.21-1.04-.11-.05-.22-.09-.33-.11-.11-.03-.21-.03-.33-.03-.12,0-.27,.02-.41,.04-.15,.02-.29,.04-.44,.06-1.2,.18-2.4,.43-3.57,.77-.59,.17-1.16,.38-1.72,.6-.56,.23-1.1,.5-1.63,.8h0c-.13,.08-.29,.03-.36-.09-.06-.11-.04-.25,.06-.33Z"/><path class="m" d="M114.17,94.71c.04-1.11,.01-2.25-.05-3.37-.06-1.13-.17-2.25-.32-3.37-.29-2.24-.73-4.45-1.32-6.63-1.18-4.34-3-8.52-5.5-12.24-2.5-3.72-5.7-6.96-9.41-9.46-3.71-2.51-7.87-4.32-12.19-5.51-2.16-.6-4.37-1.05-6.6-1.37l-.42-.06-.42-.05-.84-.1c-.56-.08-1.12-.12-1.68-.17l-.84-.08-.85-.05-1.69-.1c-4.51-.25-9.04-.22-13.53,.18-4.49,.4-8.95,1.17-13.28,2.43l-1.61,.51-.81,.25-.79,.29-1.58,.58c-.52,.21-1.04,.43-1.56,.65l-.78,.33c-.13,.05-.26,.11-.38,.18l-.38,.18-1.52,.73c-.5,.26-.99,.53-1.48,.8l-.74,.4-.72,.44c-1.94,1.13-3.76,2.46-5.49,3.88l-.64,.54-.32,.27-.16,.14-.15,.14-1.23,1.15c-.21,.19-.39,.4-.59,.6l-.58,.61-.29,.3-.15,.15c-.05,.05-.09,.11-.14,.16l-.55,.64-.55,.64c-.09,.1-.18,.21-.26,.33l-.26,.33-.52,.66-.26,.33c-.09,.11-.16,.23-.24,.34l-.96,1.38-.89,1.43c-1.14,1.93-2.11,3.96-2.88,6.06-.77,2.1-1.34,4.28-1.69,6.49l-.12,.83-.06,.42-.04,.42c-.06,.56-.12,1.12-.18,1.68l-.14,1.69-.1,1.69c-.23,4.5-.04,9.03,.8,13.46,.82,4.43,2.31,8.71,4.18,12.82,.93,2.06,1.94,4.08,2.98,6.1l3.14,6.04,.78,1.51c.13,.25,.26,.5,.39,.74l.41,.73c.56,.97,1.17,1.91,1.86,2.78l.26,.33,.27,.32c.18,.21,.37,.41,.56,.61,.39,.39,.79,.76,1.23,1.09,.87,.65,1.85,1.15,2.89,1.31,.52,.08,1.05,.08,1.57,0,.52-.08,1.04-.24,1.53-.45,.99-.43,1.88-1.09,2.68-1.85,.81-.75,1.53-1.61,2.19-2.51,.33-.45,.64-.91,.94-1.39,.29-.47,.58-.96,.82-1.45h0c.1-.2,.33-.27,.52-.18s.26,.33,.17,.52c-.27,.53-.55,1.02-.86,1.51-.3,.49-.62,.97-.96,1.44-.68,.93-1.43,1.82-2.28,2.62-.85,.8-1.8,1.51-2.9,2-.55,.24-1.13,.43-1.73,.52-.6,.09-1.22,.09-1.82,0-.6-.09-1.18-.28-1.73-.53-.55-.25-1.05-.57-1.53-.92-.47-.36-.91-.75-1.32-1.17-.2-.21-.41-.42-.59-.64l-.28-.33-.27-.34c-.72-.91-1.35-1.88-1.93-2.87l-.42-.75c-.14-.25-.27-.51-.4-.76l-.78-1.51-3.15-6.04c-1.05-2.02-2.07-4.05-3.01-6.13-.95-2.07-1.81-4.19-2.54-6.36-.74-2.17-1.32-4.39-1.75-6.64-.87-4.5-1.08-9.11-.86-13.67l.1-1.71,.14-1.71c.05-.57,.11-1.14,.17-1.7l.04-.43,.06-.43,.12-.86c.35-2.28,.93-4.52,1.71-6.68,.79-2.16,1.77-4.25,2.94-6.24l.91-1.47c.32-.48,.66-.95,.98-1.42,.08-.12,.16-.24,.25-.35l.26-.34,.53-.68,.26-.34c.09-.11,.18-.23,.27-.33l.56-.65,.56-.65c.05-.05,.09-.11,.14-.16l.15-.16,.3-.31,.6-.62c.2-.21,.39-.42,.61-.61l1.26-1.18,.16-.15,.16-.14,.33-.28,.66-.56c1.77-1.46,3.64-2.81,5.62-3.97l.73-.45,.76-.41c.51-.27,1.01-.55,1.51-.82l1.55-.75,.39-.19c.13-.06,.26-.13,.39-.18l.79-.33c.53-.22,1.05-.45,1.59-.66l1.61-.59,.81-.29,.82-.26,1.64-.52c.14-.05,.27-.08,.41-.12l.41-.11,.83-.22,.83-.22,.41-.11c.14-.03,.28-.06,.42-.09l1.68-.37,.84-.18,.85-.15,1.69-.29,.42-.07c.14-.02,.28-.04,.42-.06l.85-.11,1.7-.22c.28-.04,.57-.06,.85-.09l.85-.08c4.55-.42,9.13-.46,13.69-.22,4.55,.2,9.14,.79,13.57,2.01,2.21,.62,4.38,1.39,6.48,2.34,2.09,.95,4.12,2.06,6.01,3.38,3.8,2.61,7.07,5.98,9.6,9.82,1.27,1.92,2.35,3.96,3.25,6.07,.11,.26,.23,.53,.33,.79l.32,.8,.3,.81c.1,.27,.19,.54,.28,.81,.37,1.09,.69,2.18,.98,3.29,.57,2.22,.97,4.47,1.22,6.75,.12,1.14,.21,2.28,.26,3.42,.02,.57,.03,1.14,.03,1.71,0,.57-.01,1.14-.05,1.72,0,.14-.14,.25-.28,.24-.14,0-.25-.13-.24-.27h0Z"/><path class="m" d="M39.94,132.3c2.08,.63,4.19,1.18,6.3,1.68,1.06,.25,2.11,.5,3.18,.7,1.07,.2,2.14,.35,3.22,.47,1.08,.12,2.16,.2,3.24,.24,1.08,.05,2.17,.06,3.25,.01,.54-.01,1.08-.06,1.62-.1,.27-.02,.54-.06,.81-.08l.4-.04c.13-.02,.27-.04,.4-.06l.8-.12,.8-.15,.4-.07,.4-.09,.79-.18h0c.21-.05,.41,.08,.46,.29,.05,.2-.08,.4-.28,.45-2.15,.56-4.35,.91-6.57,1.05-2.22,.16-4.44,.1-6.65-.13-1.1-.11-2.2-.28-3.29-.46-1.09-.19-2.18-.38-3.26-.65-.54-.14-1.07-.28-1.6-.45-.53-.16-1.06-.34-1.58-.53-.52-.19-1.04-.39-1.55-.61-.51-.22-1.01-.45-1.51-.71-.13-.07-.18-.23-.11-.36,.06-.11,.19-.16,.31-.13h0Z"/><g><path class="h" d="M113.97,94.51s-.07,0-.11-.01c-1.13-.22-2.35-.43-3.62-.43-.14,0-.28,0-.41,0-.07,0-.14,0-.21,.02-.02,0-.05,0-.07,0-.12,0-.24-.04-.34-.12-.12-.09-.19-.23-.2-.38-.19-2.08-.46-3.68-.47-3.69-.03-.16,.02-.32,.12-.45,.1-.12,.26-.19,.42-.19h3.93c.23,0,.43,.14,.51,.35,.03,.07,.66,1.78,.99,4.27,.02,.17-.04,.35-.17,.47-.1,.1-.24,.15-.37,.15Z"/><path class="o" d="M113.01,89.82s.63,1.7,.96,4.15c-1.22-.24-2.45-.44-3.73-.44-.14,0-.29,0-.43,0-.09,0-.17,.01-.26,.02-.19-2.13-.47-3.74-.47-3.74h3.93m0-1.09h-3.93c-.32,0-.63,.14-.84,.39-.21,.25-.3,.57-.24,.89,0,.02,.28,1.59,.46,3.65,.03,.3,.17,.57,.4,.75,.19,.16,.44,.24,.68,.24,.05,0,.09,0,.14,0,.05,0,.11-.01,.16-.01,.13,0,.26,0,.4,0,1.22,0,2.41,.2,3.51,.42,.07,.01,.14,.02,.21,.02,.28,0,.54-.1,.75-.3,.26-.24,.38-.59,.33-.94-.34-2.54-.99-4.31-1.02-4.38-.16-.43-.57-.71-1.02-.71h0Z"/></g><path class="m" d="M65.8,133.79c.02,.14,.05,.3,.09,.45,.04,.15,.07,.31,.12,.46,.09,.3,.19,.6,.3,.89,.23,.59,.5,1.15,.83,1.68,.08,.13,.16,.27,.25,.4,.08,.13,.18,.26,.27,.38,.09,.13,.19,.25,.28,.37,.1,.12,.2,.24,.3,.36,.41,.47,.85,.91,1.32,1.31,.47,.41,.97,.78,1.5,1.12,.13,.09,.26,.17,.4,.25l.2,.12c.07,.04,.13,.07,.2,.1,.26,.14,.53,.24,.81,.32,1.11,.33,2.34,.1,3.41-.46,.54-.28,1.05-.63,1.52-1.03l.35-.31,.34-.33c.11-.11,.22-.23,.33-.34,.11-.11,.22-.23,.32-.35,.83-.95,1.53-2.02,2.12-3.14,.59-1.13,1.06-2.32,1.42-3.55,.35-1.23,.59-2.49,.7-3.77h0c.02-.21,.21-.37,.42-.35,.21,.02,.36,.2,.35,.41-.1,1.33-.32,2.65-.67,3.93-.18,.64-.38,1.28-.62,1.9-.23,.63-.5,1.24-.79,1.84-.15,.3-.3,.6-.47,.89-.08,.15-.16,.29-.25,.44l-.26,.43c-.37,.56-.75,1.12-1.19,1.63-.86,1.04-1.9,1.96-3.14,2.62-.62,.32-1.3,.57-2.01,.67-.71,.11-1.46,.07-2.16-.11-.35-.1-.69-.22-1.01-.39-.08-.04-.17-.08-.24-.12l-.22-.12c-.15-.08-.3-.17-.44-.26-.58-.35-1.13-.76-1.65-1.2-1.03-.9-1.89-2-2.5-3.22-.08-.15-.15-.31-.22-.46-.07-.16-.14-.31-.19-.47-.13-.32-.23-.64-.32-.97-.09-.33-.16-.66-.21-.99-.03-.17-.04-.34-.06-.51-.01-.17-.02-.33-.02-.52,0-.15,.12-.26,.27-.26,.13,0,.24,.1,.26,.22v.02Z"/><path class="m" d="M85.66,132.57c.03,.11,.06,.23,.1,.34,.04,.12,.08,.23,.12,.35,.08,.23,.18,.46,.28,.68,.21,.44,.46,.85,.75,1.23,.07,.1,.15,.18,.22,.28,.08,.09,.16,.18,.24,.26,.16,.17,.34,.32,.52,.47,.37,.29,.76,.53,1.19,.72,.42,.19,.87,.34,1.33,.44,.46,.1,.93,.15,1.4,.13,.94-.03,1.88-.3,2.73-.74,.43-.22,.84-.47,1.23-.77,.39-.29,.76-.61,1.12-.95,.35-.34,.69-.71,1-1.09,.32-.38,.61-.78,.89-1.2,.56-.83,1.04-1.71,1.45-2.63,.41-.92,.76-1.87,1.05-2.83h0c.06-.2,.27-.32,.48-.26,.2,.06,.31,.27,.26,.47-.55,2.01-1.36,3.96-2.48,5.75-.28,.45-.58,.88-.91,1.3-.32,.42-.67,.82-1.05,1.2-.37,.39-.78,.74-1.21,1.06-.43,.33-.89,.62-1.37,.87-.49,.25-.99,.46-1.53,.61-.53,.15-1.08,.24-1.64,.27-.56,.03-1.11-.01-1.66-.11-.55-.1-1.08-.26-1.59-.5-.51-.24-.99-.55-1.4-.93-.42-.38-.78-.81-1.07-1.28-.15-.23-.28-.48-.39-.73-.12-.25-.21-.5-.3-.76-.08-.26-.15-.52-.2-.79-.05-.27-.08-.53-.09-.81,0-.15,.11-.27,.25-.27,.13,0,.24,.08,.26,.2v.02Z"/><path class="m" d="M47.32,134.54c.22,.08,.41,.17,.61,.27l.29,.15c.09,.05,.19,.11,.28,.17,.37,.23,.72,.48,1.07,.75,.34,.27,.67,.56,.97,.87,.31,.3,.6,.63,.88,.96,.07,.08,.14,.17,.2,.26l.19,.26,.1,.13s.03,.03,.04,.05l.03,.04c.04,.06,.1,.11,.16,.17,.24,.23,.57,.43,.91,.59,.35,.16,.72,.29,1.1,.39,.38,.1,.77,.16,1.16,.21,1.57,.17,3.19-.1,4.55-.89,.67-.4,1.27-.92,1.76-1.54,.49-.62,.87-1.33,1.17-2.08h0c.08-.2,.3-.3,.5-.22,.19,.08,.29,.29,.22,.49-.3,.82-.69,1.61-1.22,2.32-.53,.71-1.2,1.33-1.95,1.81-.75,.48-1.6,.81-2.47,1.01-.87,.19-1.77,.23-2.66,.14-.89-.09-1.76-.3-2.59-.66l-.31-.15-.31-.17c-.1-.06-.2-.13-.3-.19-.1-.08-.2-.14-.29-.23-.09-.09-.19-.17-.28-.28l-.07-.08s-.05-.06-.06-.07l-.09-.12c-.13-.16-.24-.33-.37-.48-.25-.32-.51-.63-.77-.93l-.2-.23-.21-.22c-.14-.15-.28-.29-.42-.44-.29-.29-.58-.56-.89-.83-.16-.13-.31-.26-.47-.39-.16-.12-.33-.25-.48-.36h-.02c-.12-.1-.15-.26-.06-.38,.07-.1,.2-.14,.31-.1Z"/><path class="m" d="M82.96,132.28c.62,0,1.25-.04,1.88-.08,.16-.01,.31-.02,.47-.04,.16-.01,.31-.02,.47-.04,.31-.03,.62-.06,.94-.1,.31-.03,.62-.08,.93-.12,.31-.04,.62-.09,.93-.14l.92-.16,.92-.18,.92-.2c.3-.07,.61-.15,.91-.22,.61-.15,1.21-.32,1.8-.52,.15-.05,.3-.09,.45-.14l.44-.16,.44-.16c.15-.05,.29-.12,.43-.17l.43-.18c.14-.06,.29-.12,.43-.18l.85-.39c1.12-.55,2.2-1.17,3.25-1.85,.51-.36,1.03-.7,1.52-1.09l.37-.29,.19-.14,.18-.15,.71-.61c.92-.84,1.81-1.73,2.6-2.71l.3-.36c.05-.06,.1-.12,.15-.18l.14-.19,.56-.76c.19-.25,.36-.51,.53-.78l.52-.79h0c.12-.19,.35-.24,.53-.12,.17,.11,.22,.34,.12,.52-1.33,2.21-2.95,4.25-4.83,6.03l-.72,.65-.18,.16-.19,.15-.38,.31c-.5,.42-1.03,.79-1.55,1.17-1.07,.73-2.2,1.38-3.36,1.96-1.17,.57-2.37,1.05-3.6,1.47-.61,.21-1.23,.4-1.86,.58-.31,.08-.63,.17-.94,.24-.32,.07-.63,.14-.95,.21-.32,.06-.64,.12-.96,.17-.32,.04-.64,.09-.96,.13-.64,.07-1.29,.13-1.93,.15-.65,.03-1.29,.03-1.94,0-.65-.02-1.29-.07-1.94-.17-.14-.02-.24-.16-.22-.3,.02-.13,.13-.22,.26-.22h.01Z"/><path class="m" d="M101.35,113.27c.97,1.7,2.31,3.18,3.94,4.2,.41,.25,.83,.48,1.27,.67,.44,.19,.89,.36,1.34,.49,.46,.13,.92,.24,1.4,.3,.47,.07,.95,.11,1.42,.12,.48,0,.95-.02,1.42-.08,.47-.05,.94-.13,1.4-.25,.46-.11,.92-.26,1.36-.43l.33-.13,.33-.14c.22-.1,.43-.2,.64-.31,1.68-.89,3.13-2.21,4.14-3.82,.51-.8,.91-1.68,1.2-2.59,.14-.46,.26-.92,.35-1.39,.05-.23,.08-.47,.11-.71l.04-.36,.02-.18v-.18l.04-.36v-.37l.03-.37v-1.47l-.02-.37c-.04-.98-.14-1.95-.32-2.9-.19-.95-.45-1.88-.85-2.73-.09-.22-.21-.42-.32-.63-.12-.2-.24-.41-.37-.6-.26-.39-.55-.76-.88-1.09-.33-.33-.69-.64-1.07-.91-.39-.26-.8-.5-1.23-.7-.43-.2-.88-.36-1.33-.5-.46-.14-.93-.24-1.4-.33h-.04c-.08-.03-.18-.05-.28-.07-.1-.02-.2-.04-.29-.06-.2-.04-.4-.07-.6-.09-.4-.05-.81-.09-1.21-.11-.81-.03-1.62,0-2.43,.1-1.6,.21-3.17,.73-4.54,1.58-.35,.21-.67,.44-.99,.69l-.06,.04s-.03,.02-.05,.04c-.04,.03-.07,.06-.11,.09-.07,.07-.14,.13-.21,.2-.07,.07-.14,.14-.21,.22-.07,.07-.14,.15-.2,.22-.52,.61-.97,1.28-1.34,2-.37,.72-.65,1.48-.86,2.26l-.15,.59c-.04,.2-.07,.4-.11,.6l-.05,.3-.03,.3-.06,.61v.03c-.02,.21-.21,.36-.42,.34-.21-.02-.36-.21-.34-.42l.06-.64,.03-.32,.05-.32c.04-.21,.07-.43,.11-.64l.15-.63c.22-.83,.52-1.65,.91-2.43,.39-.78,.87-1.51,1.43-2.17,.07-.08,.14-.17,.22-.25,.07-.08,.15-.16,.23-.24,.08-.08,.16-.16,.24-.23,.04-.04,.08-.08,.13-.11,.02-.02,.04-.04,.07-.06l.07-.05c.34-.27,.69-.52,1.06-.75,1.47-.92,3.15-1.49,4.86-1.74,.86-.13,1.72-.17,2.58-.14,.43,.01,.86,.05,1.29,.1,.21,.03,.43,.06,.64,.09,.11,.02,.21,.04,.32,.06,.11,.02,.21,.04,.33,.07h-.04c.51,.08,1.02,.18,1.51,.33,.5,.15,.99,.32,1.47,.54,.48,.22,.94,.47,1.38,.77,.44,.3,.85,.64,1.22,1.02,.38,.37,.71,.79,1.01,1.23,.15,.22,.28,.45,.42,.67,.12,.23,.25,.46,.36,.7,.45,.95,.73,1.96,.94,2.97,.2,1.01,.3,2.03,.35,3.05l.02,.38v1.9l-.02,.38-.02,.39c-.14,2.06-.75,4.12-1.86,5.9-.14,.22-.29,.44-.43,.65-.16,.21-.31,.42-.48,.62-.33,.4-.69,.79-1.07,1.15-.76,.72-1.62,1.33-2.55,1.82-.92,.5-1.91,.86-2.93,1.1-1.02,.24-2.07,.34-3.11,.3-1.04-.04-2.08-.22-3.08-.55-.5-.16-.98-.35-1.45-.59-.47-.23-.91-.5-1.34-.79-.43-.29-.83-.62-1.22-.97-.38-.35-.74-.72-1.07-1.12-.66-.79-1.21-1.66-1.65-2.58-.06-.13,0-.29,.12-.35,.12-.06,.27-.01,.34,.1h0Z"/><g><ellipse class="f" cx="82.27" cy="98.99" rx="4.81" ry="4.36"/><path class="f" d="M80.3,96.44c-.4,1.39-.79,2.78-1.19,4.17-.07,.24,.34,.34,.41,.1,.4-1.39,.79-2.78,1.19-4.17,.07-.24-.34-.34-.41-.1Z"/><path class="f" d="M82.41,95.96c-.4,1.74-.79,3.49-1.19,5.23-.07,.3,.34,.43,.41,.13l1.19-5.23c.07-.3-.34-.43-.41-.13Z"/><path class="f" d="M84.96,96.44l-1.19,4.17c-.07,.24,.34,.34,.41,.1,.4-1.39,.79-2.78,1.19-4.17,.07-.24-.34-.34-.41-.1Z"/></g><ellipse class="m" cx="110.01" cy="106.79" rx="1.58" ry="4.64"/><ellipse class="m" cx="117.1" cy="106.79" rx="1.58" ry="4.64"/><path class="m" d="M78.57,66.28c-.25-.03-.52-.05-.79-.07-.27-.01-.53-.02-.8-.02-.53,0-1.06,.03-1.58,.09-1.04,.13-2.06,.37-2.98,.79-.24,.1-.46,.22-.68,.34-.22,.13-.44,.25-.64,.4-.21,.14-.4,.3-.6,.46-.1,.08-.18,.17-.28,.26l-.14,.13-.13,.14c-.69,.75-1.22,1.65-1.6,2.62-.38,.97-.63,2.01-.78,3.05l-.06,.39c-.02,.13-.02,.26-.04,.4-.02,.26-.05,.53-.06,.79l-.02,.8c0,.13,0,.27,0,.4v.4c.06,1.06,.21,2.13,.45,3.17l.09,.39,.1,.39c.07,.26,.15,.51,.23,.77,.04,.13,.08,.25,.13,.38,.04,.13,.09,.25,.13,.38,.05,.12,.09,.25,.14,.37,.05,.12,.1,.25,.15,.36h0c.09,.2,0,.43-.19,.52-.19,.09-.41,0-.5-.18-.07-.14-.12-.26-.18-.39-.06-.13-.11-.26-.16-.39-.05-.13-.1-.26-.15-.39-.05-.13-.1-.26-.14-.39-.09-.26-.18-.53-.25-.8l-.12-.4-.1-.41c-.27-1.08-.45-2.19-.54-3.31l-.03-.42c0-.14-.02-.28-.02-.42v-.84c0-.28,.02-.56,.04-.84,.01-.14,.01-.28,.03-.42l.05-.42,.05-.42,.03-.21,.04-.21,.17-.83c.02-.14,.07-.27,.11-.41l.12-.41c.04-.14,.09-.27,.13-.41l.14-.4,.04-.1,.04-.1,.09-.2,.17-.39c.06-.13,.13-.26,.2-.38l.1-.19c.03-.06,.07-.13,.11-.19l.23-.37c.04-.06,.08-.12,.12-.18l.13-.17,.26-.35,.29-.33,.14-.16,.16-.15c.1-.1,.21-.21,.31-.31,.22-.19,.44-.39,.68-.55,.23-.18,.49-.33,.73-.48,.26-.14,.52-.28,.79-.39,.54-.23,1.09-.41,1.66-.52,.14-.03,.28-.05,.43-.08,.14-.03,.28-.04,.43-.06,.14-.02,.29-.03,.43-.04,.14,0,.29-.02,.43-.02,.57-.02,1.14,.01,1.7,.08,.28,.03,.56,.08,.83,.14,.28,.06,.55,.13,.83,.22,.14,.05,.21,.19,.17,.33-.04,.12-.16,.19-.28,.18h-.01Z"/><path class="m" d="M114.31,64.72l-.31-.08c-.1-.03-.21-.06-.32-.09-.21-.06-.42-.11-.64-.16-.21-.05-.42-.1-.64-.14-.11-.02-.21-.05-.32-.07-.11-.02-.21-.04-.32-.06l-.32-.07-.32-.06-.32-.07c-.11-.02-.22-.03-.32-.05-.43-.07-.87-.07-1.31-.09-.22,0-.44,0-.66,0-.22,0-.44,.01-.66,.03l-.33,.02c-.11,0-.22,0-.33,.02l-.66,.08c-.11,.01-.22,.03-.33,.04l-.33,.06-.65,.13c-.43,.1-.86,.23-1.29,.35h-.03c-.2,.06-.41-.06-.47-.26-.05-.2,.06-.4,.25-.47l.66-.22,.33-.11c.11-.04,.22-.08,.33-.1l.68-.17,.34-.09c.11-.03,.23-.05,.34-.07l.69-.13c.23-.04,.46-.06,.7-.09l.35-.04c.12-.01,.23-.01,.35-.02,.24-.01,.47-.02,.71-.02l.71,.03h.18c.06,.01,.12,.02,.18,.02l.35,.03c.12,.01,.24,.02,.35,.03l.35,.05,.35,.05c.12,.02,.23,.05,.35,.08,.12,.03,.23,.06,.35,.09,.11,.04,.23,.07,.34,.11,.11,.04,.23,.08,.33,.13l.33,.15c.11,.05,.21,.11,.32,.16l.16,.09c.05,.03,.1,.06,.15,.1,.1,.06,.2,.13,.3,.2,.1,.07,.19,.15,.29,.24,.11,.1,.12,.27,.02,.38-.07,.08-.17,.1-.27,.08h-.03Z"/><path class="j" d="M43.22,62.75c-.73,0-1.43-.42-1.75-1.13-.43-.96,0-2.09,.97-2.52,6.41-2.85,14.54-3.89,24.19-3.1,7.12,.58,12.33,1.96,12.55,2.02,1.02,.27,1.62,1.32,1.35,2.34-.27,1.02-1.32,1.62-2.34,1.35h0c-.05-.01-5.16-1.36-11.94-1.91-6.17-.5-15.03-.42-22.26,2.79-.25,.11-.52,.17-.77,.17Z"/><path class="m" d="M14.03,85.62c-.43,.5-.97,.91-1.56,1.23-.15,.09-.3,.15-.45,.22-.08,.03-.15,.07-.23,.1l-.24,.08-.24,.08c-.08,.03-.16,.04-.24,.07-.16,.04-.33,.09-.5,.11-.67,.12-1.36,.15-2.05,.07-.69-.08-1.37-.28-2-.58-.16-.07-.31-.16-.47-.25l-.23-.14c-.07-.05-.15-.1-.22-.15-.29-.21-.56-.45-.81-.72-.5-.54-.92-1.21-1.1-2.01-.09-.39-.11-.8-.07-1.21,.04-.41,.15-.82,.35-1.2,.1-.19,.22-.38,.37-.55,.04-.04,.07-.08,.11-.13l.13-.12c.09-.08,.18-.15,.27-.22,.38-.26,.8-.42,1.24-.49,.44-.07,.91-.02,1.37,.16,.23,.09,.44,.22,.64,.38,.18,.16,.35,.34,.47,.54,.26,.4,.38,.82,.44,1.22,.05,.4,.04,.77,0,1.13-.02,.18-.05,.35-.09,.53-.04,.17-.09,.33-.13,.49l-.07,.24-.09,.24c-.06,.16-.12,.31-.18,.47-.15,.3-.28,.61-.46,.89l-.13,.21c-.04,.07-.08,.14-.13,.21l-.29,.4c-.4,.52-.84,1.01-1.34,1.44l-.18,.16c-.06,.05-.13,.1-.19,.15l-.39,.3-.41,.27c-.07,.04-.14,.09-.21,.13l-.21,.12c-.57,.33-1.18,.57-1.8,.76l-.47,.13c-.16,.04-.32,.06-.48,.09l-.24,.04c-.08,.01-.16,.02-.24,.03l-.49,.04c-.38,.03-.71-.25-.75-.63-.03-.37,.24-.7,.6-.74h.06l.4-.06c.07,0,.13-.01,.2-.03l.2-.04c.13-.03,.27-.05,.4-.09l.39-.12c.51-.18,1.02-.39,1.48-.68l.18-.1c.06-.03,.11-.08,.17-.12l.33-.23,.32-.26c.05-.04,.11-.09,.16-.13l.15-.14c.1-.1,.2-.19,.29-.28l.27-.31c.09-.1,.17-.21,.25-.32l.12-.16,.06-.08,.05-.09,.22-.34c.04-.06,.07-.12,.1-.17l.09-.18c.14-.23,.22-.48,.33-.73,.04-.12,.08-.25,.12-.38l.06-.19,.04-.19c.03-.13,.06-.26,.09-.38,.02-.12,.04-.24,.05-.36,.02-.24,.01-.46-.02-.66-.03-.19-.09-.35-.17-.46-.03-.06-.08-.09-.12-.13-.04-.03-.08-.05-.13-.08-.1-.04-.25-.06-.4-.03-.15,.02-.3,.08-.42,.17-.03,.02-.06,.04-.08,.07-.01,.01-.02,.02-.04,.03-.01,.01-.02,.03-.04,.04-.05,.06-.09,.13-.13,.2-.08,.15-.13,.32-.14,.51-.02,.19,0,.39,.05,.58,.05,.18,.13,.37,.25,.55,.11,.18,.26,.35,.42,.51,.17,.16,.35,.31,.55,.45,.05,.03,.1,.07,.15,.1l.16,.09,.16,.09c.05,.03,.11,.05,.16,.08,.44,.22,.91,.39,1.41,.5,.13,.02,.25,.04,.38,.07,.13,.02,.25,.03,.38,.04,.26,.02,.52,.03,.78,.02,1.04-.04,2.09-.34,3.04-.91h.01c.23-.14,.52-.07,.66,.16,.11,.18,.08,.41-.05,.56Z"/><g><g><path class="h" d="M89.16,141.66c-1.71,0-3.98-.15-5.05-.86-1.66-1.11-.16-5.72,2.52-13.17,1.16-3.22,2.25-6.26,2.36-7.63,.09-1.02,.29-2.16,.5-3.36,.6-3.38,1.35-7.58,.16-12.39-1.65-6.73,.46-13.54,.56-13.83,.07-.23,.28-.38,.52-.38h3.93c.16,0,.31,.07,.41,.19,.1,.12,.15,.28,.13,.44-.01,.08-1.18,8.05-.33,12.81,.89,5.01,.33,15.37-.76,21.9-.72,4.31,1.36,8.47,2.74,11.22,.79,1.58,1.17,2.37,1.08,2.96-.07,.49-.51,1.11-3.22,1.62-1.63,.31-3.71,.49-5.56,.49h0Z"/><path class="o" d="M94.68,90.58h0m0,0s-1.2,8.08-.33,12.99c.87,4.91,.33,15.17-.76,21.72s4.04,12.77,3.82,14.19c-.14,.91-4.52,1.64-8.24,1.64-2.06,0-3.93-.23-4.74-.77-2.29-1.53,4.8-16.48,5.13-20.3s2.29-9.28,.65-15.93c-1.64-6.66,.55-13.53,.55-13.53h3.93m0-1.09h-3.93c-.48,0-.9,.31-1.04,.76-.09,.29-2.26,7.25-.57,14.12,1.15,4.7,.42,8.84-.17,12.17-.22,1.22-.42,2.37-.51,3.41-.11,1.3-1.24,4.45-2.33,7.49-1,2.78-2.03,5.66-2.66,8.04-.65,2.45-1.05,4.84,.35,5.77,.95,.63,2.75,.95,5.35,.95,1.89,0,4.01-.19,5.67-.5,.89-.17,1.62-.36,2.16-.58,.33-.13,1.35-.54,1.49-1.49,.12-.79-.32-1.68-1.13-3.29-1.35-2.69-3.38-6.75-2.69-10.88,1.1-6.57,1.66-17.02,.76-22.09-.81-4.54,.25-12.09,.33-12.61,.01-.06,.02-.12,.02-.19,0-.6-.49-1.09-1.09-1.09h0Zm0,2.18h0Z"/></g><path class="g" d="M87.26,127.51c-1.98,5.5-4.3,11.87-2.84,12.84,2.29,1.53,12.77,.55,12.99-.87s-4.91-7.64-3.82-14.19,1.64-16.81,.76-21.72c-.69-3.89-.08-9.76,.2-12.04l-1.07,.14s-1.31,6.55,0,12.88c1.31,6.33-1.31,14.84-1.42,19.64-.11,4.8,2.4,16.26,0,13.42-2.4-2.84-.87-11.24-2.29-7.75s-1.64,10.48-2.95,8.73c-1.31-1.75-.21-9.31,.44-11.09h0Z"/><path class="e" d="M90.97,92.44s-1.31,4.69-.65,8.19c.65,3.49,.65-8.19,.65-8.19Z"/></g><path class="m" d="M98.76,88.21c-.06,.14-.12,.25-.18,.37-.07,.12-.14,.22-.21,.33-.15,.21-.32,.41-.5,.6-.36,.38-.75,.74-1.18,1.06-.43,.32-.91,.6-1.44,.8-.53,.2-1.1,.32-1.68,.35-.58,.03-1.18-.04-1.73-.2-.56-.16-1.08-.42-1.55-.71-.92-.61-1.7-1.35-2.18-2.27-.13-.25-.03-.55,.21-.68,.16-.08,.34-.07,.48,0l.04,.02c.21,.12,.39,.25,.59,.37,.1,.06,.19,.12,.29,.18l.14,.09s.1,.05,.14,.08l.28,.16c.09,.06,.19,.09,.28,.14l.14,.07,.07,.03,.07,.03,.29,.11c.09,.04,.19,.06,.29,.09l.14,.04s.1,.02,.14,.03c.1,.02,.19,.04,.29,.05,.1,0,.19,.02,.28,.03,.38,.02,.74,.01,1.11-.03,.09-.02,.18-.02,.28-.04,.09-.02,.18-.03,.28-.05,.09-.02,.19-.05,.28-.07,.09-.02,.19-.05,.28-.08,.37-.11,.76-.23,1.16-.38,.4-.15,.8-.32,1.18-.54,.1-.05,.19-.11,.29-.17l.29-.17c.1-.05,.2-.11,.3-.16,.1-.05,.21-.11,.31-.15l.1-.03c.27-.09,.56,.04,.65,.31,.04,.12,.04,.25,0,.37Z"/><path class="m" d="M107.4,87.12c.07,.03,.14,.08,.21,.12,.07,.04,.14,.09,.2,.14l.38,.27c.25,.18,.51,.32,.77,.43,.26,.11,.5,.19,.73,.27,.23,.07,.46,.13,.69,.16h.09s.06,.02,.09,.02c.06,0,.12,.02,.18,.01h.38c.06,0,.13-.01,.2-.02,.07,0,.13-.01,.2-.03l.21-.04c.07-.02,.14-.04,.21-.06,.57-.15,1.12-.48,1.76-.74h.01c.24-.1,.51,0,.61,.25,.06,.14,.04,.29-.03,.41-.38,.66-.95,1.17-1.63,1.61-.33,.23-.72,.41-1.13,.55-.41,.14-.87,.2-1.32,.18-.45-.02-.91-.12-1.32-.3-.41-.18-.77-.44-1.07-.73-.3-.3-.55-.62-.76-.95-.11-.17-.21-.34-.28-.52-.04-.09-.07-.18-.1-.28-.03-.1-.05-.19-.07-.31-.04-.25,.14-.49,.39-.52,.08-.01,.16,0,.23,.02l.16,.06Z"/><g><g><path class="h" d="M81.03,137.18c-.17,0-.33-.08-.44-.22-.7-.95-2-2.28-2.71-2.28-.03,0-.07,0-.09,.01-.13,.03-.27,.05-.4,.05h0c-.89,0-1.71-.75-1.81-1.68-.07-.64,.24-1.48,1.37-1.75,.14-.03,.28-.05,.42-.05,2.36,0,4,4.67,4.18,5.2,.09,.26-.03,.54-.27,.66-.08,.04-.17,.06-.25,.06Z"/><path class="o" d="M77.37,131.81c2.03,0,3.67,4.83,3.67,4.83,0,0-1.83-2.51-3.15-2.51-.08,0-.15,0-.23,.03-.09,.02-.18,.03-.27,.03-1.19,0-2.01-1.95-.32-2.35,.1-.02,.2-.04,.3-.04m0-1.09h0c-.18,0-.37,.02-.55,.06-1.38,.33-1.9,1.41-1.79,2.34,.14,1.19,1.2,2.16,2.36,2.16,.17,0,.34-.02,.51-.06,.12,.02,.56,.2,1.29,.93,.55,.56,.97,1.12,.97,1.13,.21,.29,.54,.45,.88,.45,.17,0,.34-.04,.5-.12,.48-.25,.7-.81,.53-1.32-.02-.05-.45-1.31-1.15-2.59-1.1-2.01-2.26-2.98-3.55-2.98h0Z"/></g><path class="g" d="M77.77,133.83c-.87,.22-1.64-.67-1.54-1.43-.44,.79,.43,2.01,1.43,1.76,1.32-.33,3.38,2.48,3.38,2.48,0,0-.12-.37-.35-.9-.68-.8-1.99-2.15-2.92-1.91Z"/><ellipse class="d" cx="77.76" cy="132.65" rx=".65" ry=".49"/></g><g><g><path class="h" d="M99.15,135.87c-.09,0-.17-.02-.25-.06-.24-.12-.35-.4-.27-.66,.18-.53,1.83-5.2,4.18-5.2,.14,0,.28,.02,.42,.05,1.13,.27,1.45,1.11,1.37,1.75-.11,.93-.92,1.68-1.81,1.68-.13,0-.27-.02-.4-.05-.03,0-.06-.01-.09-.01-.72,0-2.02,1.34-2.71,2.28-.11,.14-.27,.22-.44,.22Z"/><path class="o" d="M102.82,130.5c.1,0,.2,.01,.3,.04,1.69,.4,.87,2.35-.32,2.35-.09,0-.18-.01-.27-.03-.07-.02-.15-.03-.23-.03-1.32,0-3.15,2.51-3.15,2.51,0,0,1.64-4.83,3.67-4.83m0-1.09c-1.29,0-2.45,.98-3.55,2.98-.7,1.28-1.13,2.54-1.15,2.59-.17,.51,.05,1.07,.53,1.32,.16,.08,.33,.12,.5,.12,.34,0,.67-.16,.88-.45,0,0,.42-.57,.97-1.13,.72-.73,1.16-.92,1.29-.93,.17,.04,.34,.06,.51,.06,1.16,0,2.22-.97,2.36-2.16,.11-.93-.4-2.01-1.79-2.34-.18-.04-.37-.06-.55-.06h0Z"/></g><path class="g" d="M102.42,132.52c.87,.22,1.64-.67,1.54-1.43,.44,.79-.43,2.01-1.43,1.76-1.32-.33-3.38,2.48-3.38,2.48,0,0,.12-.37,.35-.9,.68-.8,1.99-2.15,2.92-1.91Z"/><ellipse class="d" cx="102.42" cy="131.34" rx=".65" ry=".49"/></g><g><g><path class="h" d="M125.02,135.82c-.48,0-1.01-.3-1.11-.88-.05-.29-.96-.69-1.74-.87-.18-.04-.31-.21-.3-.4,.01-.19,.16-.34,.35-.36,.01,0,.32-.03,.75-.03,1.82,0,2.86,.45,3.02,1.29,.08,.45-.06,.73-.19,.89-.18,.22-.46,.34-.77,.34Z"/><path class="o" d="M122.97,133.67c.94,0,2.49,.13,2.64,.98,.1,.54-.23,.78-.59,.78-.33,0-.67-.2-.73-.56-.13-.75-2.04-1.18-2.04-1.18,0,0,.3-.03,.72-.03m0-.76h0c-.45,0-.77,.03-.79,.03-.38,.03-.67,.34-.7,.71-.02,.38,.23,.71,.6,.8,.61,.14,1.3,.43,1.46,.61,.14,.67,.75,1.14,1.48,1.14,.42,0,.81-.17,1.06-.48,.26-.31,.36-.74,.28-1.21-.09-.47-.43-1.1-1.58-1.41-.49-.13-1.1-.2-1.81-.2h0Z"/></g><path class="g" d="M124.43,134.74c.08,.5,.72,.69,1.08,.47-.31,.4-1.13,.23-1.23-.34-.13-.75-2.04-1.18-2.04-1.18,0,0,.22-.02,.54-.02,.57,.17,1.55,.54,1.64,1.07Z"/><path class="d" d="M124.89,134.14c-.14,.06-.19,.26-.1,.45,.08,.19,.26,.29,.4,.23,.14-.06,.19-.26,.1-.45-.08-.19-.26-.29-.4-.23Z"/></g><ellipse class="f" cx="80.64" cy="34.99" rx="3.79" ry="1.62" transform="translate(-5.76 18.83) rotate(-12.86)"/><ellipse class="f" cx="78.75" cy="31.87" rx="1.94" ry="3.64" transform="translate(.69 65.4) rotate(-45.27)"/><g><path class="k" d="M57.51,57.83c.8-.74,1.57-1.52,2.31-2.32,.02-.02,.06-.03,.09,0,.02,.02,.03,.06,0,.09h0c-.76,.79-1.54,1.55-2.35,2.28-.01,.01-.03,.01-.05,0-.01-.01-.01-.03,0-.05Z"/><path class="k" d="M61.95,53.04c.68-.85,1.33-1.73,1.95-2.62,.04-.05,.11-.07,.16-.03,.05,.04,.07,.11,.03,.16h0c-.63,.89-1.3,1.76-2,2.6-.03,.04-.09,.04-.12,.01-.04-.03-.04-.09-.01-.12Z"/><path class="k" d="M65.65,47.66c.55-.94,1.06-1.9,1.54-2.87,.04-.08,.14-.12,.23-.08,.08,.04,.12,.14,.08,.23h0c-.5,.98-1.03,1.93-1.6,2.87-.04,.07-.13,.09-.2,.05-.07-.04-.09-.13-.05-.2Z"/><path class="k" d="M68.26,41.76c.08-.52,.08-1.05-.01-1.56-.1-.51-.29-1.01-.56-1.46-.06-.1-.03-.23,.07-.29,.1-.06,.23-.03,.29,.07h0c.28,.5,.49,1.04,.59,1.6,.1,.56,.08,1.14,0,1.69-.02,.1-.11,.17-.22,.16-.1-.02-.17-.11-.16-.22Z"/><path class="k" d="M65.39,36.68l-.36-.15c-.12-.05-.25-.09-.37-.12-.25-.07-.51-.13-.77-.17-.52-.08-1.05-.08-1.57-.03h0c-.14,.01-.26-.09-.28-.23-.01-.14,.09-.26,.23-.28h0c.56-.05,1.13-.04,1.69,.05,.28,.04,.56,.11,.83,.19,.14,.04,.27,.09,.4,.14l.39,.17c.12,.05,.17,.19,.12,.3-.05,.12-.18,.17-.3,.12h-.02Z"/><path class="k" d="M59.35,37.22c-.45,.27-.87,.59-1.23,.96-.37,.37-.68,.79-.91,1.24-.07,.15-.26,.21-.4,.13-.15-.07-.21-.26-.13-.4h0c.27-.52,.63-.98,1.04-1.38,.41-.4,.87-.74,1.36-1.03,.13-.08,.3-.03,.38,.1,.08,.13,.03,.3-.1,.37Z"/><path class="k" d="M56.96,42.35c.16,.47,.44,.88,.81,1.22,.36,.34,.8,.6,1.27,.8h0c.17,.07,.26,.27,.19,.44-.07,.17-.27,.26-.44,.19-.27-.11-.53-.24-.78-.4-.25-.16-.49-.34-.7-.54-.21-.21-.41-.44-.57-.69-.16-.25-.3-.52-.39-.81h0c-.06-.17,.03-.36,.2-.42,.17-.06,.36,.03,.41,.2Z"/><path class="k" d="M62.08,44.65c.52-.08,1.03-.21,1.55-.37,.51-.16,1.02-.34,1.52-.53,.16-.06,.33,.02,.39,.17,.06,.15-.02,.33-.17,.39-.51,.21-1.02,.41-1.55,.58-.53,.17-1.07,.32-1.63,.41-.18,.03-.35-.09-.38-.27-.03-.18,.09-.35,.27-.38h0Z"/><path class="k" d="M68.17,42.52c1-.44,1.99-.89,2.96-1.37,.1-.05,.22,0,.27,.09,.05,.1,0,.22-.09,.27-.97,.52-1.94,1.02-2.93,1.48-.13,.06-.28,0-.35-.13-.06-.13,0-.28,.13-.35h0Z"/><path class="k" d="M74.03,39.65l1.29-.74c.43-.25,.87-.49,1.3-.73h0s.04,0,.04,.01c0,.02,0,.03-.01,.04-.42,.27-.83,.55-1.25,.82l-1.25,.81c-.06,.04-.13,.02-.17-.04-.04-.06-.02-.13,.04-.17h.01Z"/></g></g></g></g></svg>