<?xml version="1.0" encoding="UTF-8"?><svg xmlns="http://www.w3.org/2000/svg" viewBox="0 0 162.96 159.28"><defs><style>.d{fill:#16c48e;}.e{fill:#fff;opacity:.67;}.f{fill:#42cca1;}.g{fill:#6ae2ba;}.h{fill:#002343;}.i{fill:#ebfff7;}.j{fill:#efefef;}</style></defs><g id="a"/><g id="b"><g id="c"><g><path class="j" d="M155.58,109.53c-16.89,37.29-59.72,52.55-92.95,49.1-9.07-.94-27.33-2.84-41.33-16.65C-5.58,115.47-.22,61.35,26.7,29.99,30.17,25.95,54.15-1.1,90.61,.03c26.69,.83,45.12,16.31,47.36,18.23,2.83,2.43,9.06,8.21,14.59,17.28,13,21.31,13.57,50.68,3.02,73.98Z"/><g><g><path class="f" d="M43.9,96.17s.49-20.66-9.03-26.19c-9.52-5.53-27.61-8.99-28.29-38.66-.4-17.37-.83-24.96-1.11-28.27-.11-1.29,1.04-2.33,2.31-2.09,9.01,1.7,38.29,8.69,44.43,28.67,7.28,23.69-8.31,66.55-8.31,66.55Z"/><path class="d" d="M14.75,9.21c9.89,8.82,21.33,24.44,27.43,40.06,.78,2.57,3.07,8.05,4.07,17.77,.89,8.11,.45,16.68-.63,22.35-.07,.36-.41,.59-.77,.53-.62-.12-.53-.78-.53-.76,1.23-9.69,.72-21.76-2.1-32.64-3.6-13.37-11.63-26.32-19.93-37.31l-.85-1.08c-6.43-8.26-7.79-8.32-7.19-8.9,.14-.14,.36-.14,.51,0Z"/></g><g><path class="f" d="M59.19,135.89c1.29,.63-12.19-16.32-16.41-42.93-1.99-12.54-2.02-28.26-9.16-34.31-5.95-5.04-26.18-1.86-32.8-.65-.83,.15-1.11,1.2-.46,1.74,3.18,2.67,9.97,8.96,11.74,15.29,2.33,8.35,10.28,13.67,17.39,15.11,7.11,1.44,11.07,2.83,14.53,14.21,3.46,11.37,11.52,29.76,15.18,31.55Z"/><path class="d" d="M10.13,61.53c8.45,.35,17.51,4.21,22.12,11.44l.43,.69c1,1.62,6.69,13.11,9.85,22.64,.04,.12-.03,.25-.14,.29-.2,.07-.3-.16-.28-.14-2.2-5.38-5.36-12.21-7.88-17.31-2.7-5.57-4.59-9.34-10.74-12.96-6.85-3.89-13.4-4.29-13.38-4.29-.1-.01-.17-.1-.16-.2,0-.1,.09-.17,.19-.16Z"/></g><g><path class="f" d="M53.41,138.12c.76,.4-4.3-8.32-4.69-16.01-.39-7.69-2.12-20.8-8.75-28.65-6.63-7.85-13.88-8.56-23.03-1.43-7.62,5.94-12.37,8.94-15.16,9.5-.69,.14-1.04,.92-.71,1.54,1.79,3.29,6.84,10.86,15.33,10.32,10.83-.68,23.95-7.72,27.95-1.85,4,5.87,3.49,9.16,3.61,11.94,.12,2.78,.4,11.96,5.45,14.63Z"/><path class="d" d="M20.01,101.46c3.32-3.18,8.72-6.3,13.44-5.72,6.14,.99,10.23,5.09,12.47,11.2,.87,2.59,1.23,3.98,1.75,7.15,.04,.25-.33,.33-.4,.08-.38-1.49-.75-3.06-1.3-4.67-3.24-10.43-10.15-11.83-10.42-12.05-.52,.05-3.69-2.32-11.21,1.72-1.4,.76-2.77,1.64-4.05,2.6h0c-.09,.07-.22,.06-.29-.04-.06-.09-.05-.21,.02-.28Z"/></g></g><g><g><path class="h" d="M43.62,12.44c-3.84,.33-6.79,3.55-6.8,7.41-.07,23.6-.18,105,1.36,133.81,.16,3.05,2.67,5.45,5.72,5.48,15.12,.16,58.6,.46,83.29-1.12,5.14-.33,9.14-4.59,9.14-9.74-.03-24.77-.43-94.42-3.82-126.26-.41-3.81-3.47-6.79-7.3-7.09-16.49-1.28-60.27-4.35-81.59-2.49Z"/><path class="i" d="M42.88,26.04c-.3,20.19-1.14,87.34,.33,112.12,.22,3.62,3.03,6.48,6.5,6.6,14.31,.5,50.99,1.46,71.9-.84,3.76-.41,6.64-3.68,6.74-7.63,.52-20.6,1.94-83.15,.5-107.65-.23-3.91-3.22-7.03-6.96-7.28-15.49-1.04-55.27-3.45-73.04-1.97-3.34,.28-5.92,3.15-5.97,6.64Z"/></g><g><g><path class="f" d="M81.87,15.19c.1,0,.2,.02,.29,.06l5.11,2.46c.37,.18,.78,.26,1.19,.25s.81-.13,1.17-.33l4.93-2.82c.09-.05,.19-.08,.29-.09,.18,0,.36,.07,.49,.21,.09,.1,.18,.26,.15,.5l-.76,5.62c-.11,.82,.19,1.65,.81,2.21l4.2,3.82c.26,.24,.21,.52,.18,.63-.03,.11-.14,.38-.49,.44l-5.58,1.01c-.82,.15-1.51,.69-1.85,1.45l-2.33,5.17c-.14,.32-.43,.36-.55,.37-.12,0-.41-.02-.57-.33l-2.69-5c-.39-.73-1.12-1.22-1.95-1.31l-5.64-.62c-.35-.04-.48-.3-.52-.41-.04-.11-.11-.39,.14-.64l3.92-4.1c.58-.6,.82-1.45,.65-2.26l-1.16-5.56c-.05-.24,.03-.41,.11-.51,.12-.15,.29-.24,.47-.25Z"/><path class="e" d="M93.95,22.45c.06,0,.12,.03,.14,.09,.18,.51,.49,.97,.89,1.33l1.6,1.45c.06,.05,.06,.14,0,.2-.05,.06-.14,.06-.2,0l-1.6-1.45c-.43-.39-.77-.89-.97-1.44-.03-.07,.01-.16,.09-.18,.01,0,.03,0,.04,0Z"/><path class="e" d="M90.75,17.94c.05,0,.1,.02,.13,.07,.04,.07,.02,.16-.05,.19l-.66,.38c-.51,.29-1.09,.45-1.67,.48-.58,.02-1.17-.1-1.7-.36-.07-.03-.1-.12-.07-.19,.03-.07,.12-.1,.19-.07,.49,.23,1.03,.35,1.57,.33,.54-.02,1.07-.17,1.54-.44l.66-.38s.04-.02,.07-.02Z"/><path class="e" d="M83.72,17.05c.11,0,.23,0,.34,.04,.08,.02,.12,.1,.1,.17-.02,.08-.1,.12-.17,.1-.29-.08-.6,0-.83,.21-.23,.21-.32,.51-.25,.82l.6,2.88c.24,1.17-.1,2.38-.93,3.24l-2.03,2.13c-.24,.25-.31,.59-.19,.91,.12,.32,.39,.54,.73,.57l2.92,.32c1.19,.13,2.23,.83,2.8,1.88l1.39,2.59c.16,.3,.46,.47,.8,.46,.34-.01,.63-.21,.77-.52l1.21-2.68c.49-1.09,1.48-1.86,2.66-2.08l2.89-.53c.17-.03,.33-.11,.45-.23,.06-.05,.15-.05,.2,0,.05,.06,.05,.15,0,.2-.16,.16-.37,.26-.6,.3l-2.89,.53c-1.08,.2-2,.91-2.45,1.91l-1.21,2.68c-.18,.41-.57,.67-1.02,.69-.45,.02-.85-.22-1.07-.61l-1.39-2.59c-.52-.97-1.48-1.62-2.57-1.74l-2.92-.32c-.44-.05-.81-.34-.97-.76-.15-.42-.06-.88,.25-1.2l2.03-2.13c.76-.79,1.08-1.91,.86-2.99l-.6-2.88c-.08-.4,.04-.8,.34-1.08,.21-.2,.48-.31,.76-.32Z"/></g><g><path class="f" d="M55.83,24.77c.07,0,.15,.01,.22,.05l3.91,1.88c.28,.14,.59,.2,.91,.19,.31-.01,.62-.1,.89-.25l3.77-2.15c.07-.04,.15-.06,.22-.07,.14,0,.28,.06,.38,.16,.07,.07,.14,.2,.11,.38l-.58,4.3c-.09,.63,.14,1.26,.62,1.69l3.21,2.92c.2,.18,.16,.4,.14,.48-.02,.09-.11,.29-.37,.34l-4.27,.77c-.63,.11-1.16,.53-1.42,1.11l-1.78,3.96c-.11,.24-.33,.28-.42,.28-.09,0-.31-.02-.44-.25l-2.06-3.82c-.3-.56-.86-.94-1.49-1.01l-4.31-.47c-.27-.03-.37-.23-.4-.31-.03-.08-.08-.3,.1-.49l3-3.14c.44-.46,.62-1.11,.5-1.73l-.88-4.25c-.04-.18,.03-.31,.09-.39,.09-.11,.22-.18,.36-.19Z"/><path class="e" d="M65.07,30.32s.09,.03,.11,.07c.14,.39,.38,.74,.68,1.01l1.22,1.11s.05,.11,0,.15c-.04,.04-.11,.05-.15,0l-1.22-1.11c-.33-.3-.59-.68-.74-1.1-.02-.06,0-.12,.07-.14,.01,0,.02,0,.03,0Z"/><path class="e" d="M62.62,26.87s.08,.02,.1,.05c.03,.05,.01,.12-.04,.15l-.5,.29c-.39,.22-.83,.35-1.28,.36-.45,.02-.9-.08-1.3-.27-.05-.03-.08-.09-.05-.15,.03-.05,.09-.08,.15-.05,.37,.18,.78,.27,1.2,.25,.41-.01,.82-.13,1.18-.33l.5-.29s.03-.01,.05-.01Z"/><path class="e" d="M57.25,26.19c.09,0,.17,0,.26,.03,.06,.02,.09,.08,.08,.13-.02,.06-.08,.09-.13,.08-.22-.06-.46,0-.63,.16-.17,.16-.24,.39-.19,.62l.46,2.2c.19,.89-.08,1.82-.71,2.48l-1.55,1.63c-.18,.19-.24,.45-.15,.69,.09,.25,.3,.41,.56,.44l2.23,.24c.91,.1,1.71,.64,2.14,1.44l1.07,1.98c.12,.23,.35,.36,.62,.35,.26,0,.48-.16,.59-.4l.92-2.05c.37-.83,1.13-1.42,2.03-1.59l2.21-.4c.13-.02,.25-.08,.34-.17,.04-.04,.11-.04,.15,0,.04,.04,.04,.11,0,.15-.12,.12-.28,.2-.46,.23l-2.21,.4c-.83,.15-1.53,.7-1.87,1.46l-.92,2.05c-.14,.31-.44,.51-.78,.52-.34,.01-.65-.17-.82-.47l-1.07-1.98c-.4-.74-1.13-1.24-1.97-1.33l-2.23-.24c-.34-.04-.62-.26-.74-.58-.12-.32-.04-.67,.19-.92l1.55-1.63c.58-.61,.82-1.46,.65-2.28l-.46-2.2c-.06-.3,.03-.61,.26-.83,.16-.15,.37-.24,.58-.25Z"/></g><g><path class="f" d="M45.32,44.58s.09,0,.14,.03l2.45,1.18c.18,.08,.37,.13,.57,.12,.2,0,.39-.06,.56-.16l2.36-1.35s.09-.04,.14-.04c.09,0,.17,.04,.23,.1,.04,.05,.09,.12,.07,.24l-.36,2.69c-.05,.39,.09,.79,.39,1.06l2.01,1.83c.12,.11,.1,.25,.09,.3-.02,.05-.07,.18-.23,.21l-2.67,.48c-.39,.07-.72,.33-.89,.69l-1.12,2.48c-.07,.15-.21,.17-.26,.18-.06,0-.19,0-.27-.16l-1.29-2.39c-.19-.35-.54-.59-.93-.63l-2.7-.3c-.17-.02-.23-.14-.25-.19-.02-.05-.05-.19,.06-.31l1.88-1.96c.28-.29,.39-.69,.31-1.08l-.55-2.66c-.02-.11,.02-.19,.05-.24,.06-.07,.14-.12,.23-.12Z"/><path class="e" d="M51.1,48.06s.06,.02,.07,.04c.09,.24,.24,.46,.43,.64l.76,.69s.03,.07,0,.1c-.03,.03-.07,.03-.1,0l-.76-.69c-.21-.19-.37-.43-.46-.69-.01-.04,0-.07,.04-.09,0,0,.01,0,.02,0Z"/><path class="e" d="M49.57,45.9s.05,.01,.06,.03c.02,.03,0,.07-.03,.09l-.32,.18c-.24,.14-.52,.22-.8,.23-.28,0-.56-.05-.81-.17-.03-.02-.05-.06-.03-.09,.02-.03,.06-.05,.09-.03,.23,.11,.49,.17,.75,.16,.26,0,.51-.08,.74-.21l.32-.18s.02,0,.03,0Z"/><path class="e" d="M46.21,45.48c.05,0,.11,0,.16,.02,.04,0,.06,.05,.05,.08,0,.04-.05,.06-.08,.05-.14-.04-.29,0-.4,.1-.11,.1-.15,.24-.12,.39l.29,1.38c.12,.56-.05,1.14-.44,1.55l-.97,1.02c-.11,.12-.15,.28-.09,.43,.06,.15,.19,.26,.35,.27l1.4,.15c.57,.06,1.07,.4,1.34,.9l.67,1.24c.08,.14,.22,.23,.38,.22,.16,0,.3-.1,.37-.25l.58-1.28c.23-.52,.71-.89,1.27-.99l1.38-.25c.08-.02,.16-.05,.22-.11,.03-.03,.07-.03,.1,0,.03,.03,.03,.07,0,.1-.08,.07-.18,.12-.29,.14l-1.38,.25c-.52,.09-.95,.44-1.17,.91l-.58,1.28c-.09,.19-.27,.32-.49,.33-.21,0-.41-.1-.51-.29l-.67-1.24c-.25-.46-.71-.77-1.23-.83l-1.4-.15c-.21-.02-.39-.16-.46-.36-.07-.2-.03-.42,.12-.58l.97-1.02c.36-.38,.52-.91,.41-1.43l-.29-1.38c-.04-.19,.02-.38,.16-.52,.1-.1,.23-.15,.36-.15Z"/></g><g><path class="f" d="M120.5,27.75c-.07,0-.15,.02-.22,.06l-3.85,2c-.28,.14-.59,.22-.9,.22-.31,0-.62-.08-.9-.23l-3.83-2.04c-.07-.04-.15-.06-.22-.06-.14,0-.28,.06-.37,.17-.06,.07-.13,.2-.1,.38l.71,4.28c.1,.63-.11,1.27-.56,1.71l-3.12,3.01c-.19,.19-.15,.4-.12,.49,.03,.08,.12,.29,.38,.33l4.29,.64c.63,.09,1.17,.49,1.45,1.06l1.9,3.9c.12,.24,.34,.27,.43,.27,.09,0,.31-.02,.43-.26l1.94-3.88c.28-.57,.83-.96,1.46-1.05l4.3-.6c.27-.04,.36-.24,.39-.32,.03-.08,.07-.3-.12-.49l-3.09-3.04c-.45-.45-.66-1.09-.55-1.71l.75-4.27c.03-.18-.04-.31-.1-.38-.09-.11-.23-.18-.37-.18Z"/><path class="e" d="M111.43,33.58s-.09,.03-.1,.07c-.13,.39-.35,.75-.65,1.04l-1.19,1.15s-.04,.11,0,.15c.04,.04,.11,.04,.15,0l1.19-1.15c.32-.31,.57-.7,.71-1.12,.02-.06-.01-.12-.07-.14-.01,0-.02,0-.03,0Z"/><path class="e" d="M113.77,30.06s-.08,.02-.1,.06c-.03,.05,0,.12,.05,.15l.51,.27c.39,.21,.84,.32,1.29,.32,.45,0,.89-.11,1.29-.31,.05-.03,.07-.09,.05-.15-.03-.05-.09-.07-.15-.05-.37,.19-.78,.29-1.19,.29-.41,0-.82-.11-1.19-.3l-.51-.27s-.03-.01-.05-.01Z"/><path class="e" d="M119.12,29.22c-.09,0-.17,.01-.26,.04-.06,.02-.09,.08-.07,.14,.02,.06,.08,.09,.14,.07,.22-.07,.46-.01,.64,.14,.18,.16,.26,.38,.21,.62l-.39,2.21c-.16,.9,.14,1.82,.78,2.45l1.6,1.58c.19,.18,.25,.44,.17,.69-.08,.25-.29,.42-.54,.45l-2.23,.31c-.9,.13-1.68,.69-2.09,1.5l-1,2.01c-.12,.23-.34,.37-.6,.37-.26,0-.49-.14-.6-.38l-.99-2.02c-.4-.82-1.18-1.39-2.08-1.52l-2.22-.33c-.13-.02-.25-.08-.35-.16-.04-.04-.11-.04-.15,0-.04,.04-.04,.11,0,.15,.13,.12,.29,.19,.46,.22l2.22,.33c.83,.12,1.55,.65,1.91,1.4l.99,2.02c.15,.31,.45,.5,.8,.5,.34,0,.65-.19,.8-.49l1-2.01c.38-.75,1.1-1.27,1.93-1.39l2.23-.31c.34-.05,.61-.28,.72-.6,.11-.32,.02-.67-.22-.91l-1.6-1.58c-.6-.59-.87-1.43-.72-2.26l.39-2.21c.05-.31-.05-.61-.28-.82-.17-.15-.37-.23-.59-.23Z"/></g><g><path class="f" d="M129.93,43.29s-.09,.01-.14,.04l-2.41,1.25c-.17,.09-.37,.14-.56,.14-.2,0-.39-.05-.56-.14l-2.4-1.27s-.09-.04-.14-.04c-.09,0-.17,.04-.23,.11-.04,.05-.08,.13-.06,.24l.45,2.68c.07,.39-.07,.79-.35,1.07l-1.95,1.89c-.12,.12-.09,.25-.08,.31,.02,.05,.07,.18,.24,.2l2.69,.4c.39,.06,.73,.31,.91,.67l1.19,2.44c.07,.15,.21,.17,.27,.17,.06,0,.19-.02,.27-.17l1.21-2.43c.18-.36,.52-.6,.91-.66l2.69-.38c.17-.02,.22-.15,.24-.2,.02-.05,.05-.19-.07-.31l-1.94-1.9c-.28-.28-.41-.68-.34-1.07l.47-2.67c.02-.11-.02-.19-.06-.24-.06-.07-.14-.11-.23-.11Z"/><path class="e" d="M124.26,46.94s-.06,.02-.07,.05c-.08,.24-.22,.47-.41,.65l-.74,.72s-.03,.07,0,.1c.03,.03,.07,.03,.1,0l.74-.72c.2-.19,.35-.44,.44-.7,.01-.04,0-.07-.04-.09,0,0-.01,0-.02,0Z"/><path class="e" d="M125.73,44.74s-.05,.01-.06,.04c-.02,.03,0,.07,.03,.09l.32,.17c.25,.13,.53,.2,.81,.2,.28,0,.56-.07,.81-.2,.03-.02,.05-.06,.03-.09-.02-.03-.06-.05-.09-.03-.23,.12-.49,.18-.74,.18-.26,0-.51-.07-.74-.19l-.32-.17s-.02,0-.03,0Z"/><path class="e" d="M129.07,44.21c-.05,0-.11,0-.16,.02-.04,.01-.06,.05-.05,.09,.01,.04,.05,.06,.09,.05,.14-.04,.29,0,.4,.09,.11,.1,.16,.24,.13,.39l-.24,1.39c-.1,.56,.08,1.14,.49,1.54l1,.99c.12,.11,.16,.28,.1,.43-.05,.16-.18,.26-.34,.28l-1.39,.2c-.56,.08-1.05,.43-1.31,.94l-.63,1.26c-.07,.15-.21,.23-.38,.23-.16,0-.3-.09-.38-.24l-.62-1.26c-.25-.51-.74-.87-1.3-.95l-1.39-.21c-.08-.01-.16-.05-.22-.1-.03-.03-.07-.02-.1,0-.03,.03-.02,.07,0,.1,.08,.07,.18,.12,.29,.14l1.39,.21c.52,.08,.97,.41,1.2,.88l.62,1.26c.09,.19,.28,.31,.5,.31,.21,0,.41-.12,.5-.31l.63-1.26c.23-.47,.69-.79,1.21-.87l1.39-.2c.21-.03,.38-.17,.45-.38,.07-.2,.01-.42-.14-.57l-1-.99c-.37-.37-.54-.9-.45-1.41l.24-1.39c.03-.19-.03-.38-.18-.51-.1-.09-.23-.14-.37-.14Z"/></g></g><g><rect class="f" x="47.18" y="58.97" width="76.91" height="74.75" rx="1.04" ry="1.04"/><g><rect class="g" x="69.59" y="62.57" width="35.77" height="4.57" rx=".37" ry=".37"/><rect class="g" x="51.62" y="72.37" width="69.04" height="4.18" rx=".37" ry=".37"/><rect class="g" x="51.41" y="81.77" width="44.12" height="4.18" rx=".37" ry=".37"/><rect class="g" x="51.73" y="91.32" width="66.94" height="4.18" rx=".37" ry=".37"/><rect class="g" x="51.51" y="100.72" width="55.47" height="4.18" rx=".37" ry=".37"/><rect class="g" x="51.84" y="110.78" width="69.04" height="4.18" rx=".37" ry=".37"/><rect class="g" x="51.62" y="120.19" width="40.79" height="4.18" rx=".37" ry=".37"/></g></g></g></g></g></g></svg>