<?xml version="1.0" encoding="UTF-8"?><svg xmlns="http://www.w3.org/2000/svg" xmlns:xlink="http://www.w3.org/1999/xlink" viewBox="0 0 218.83 172.72"><defs><style>.e,.f{fill:#fff;}.g{opacity:.28;}.g,.h{mix-blend-mode:multiply;}.i{fill:#298969;}.h{opacity:.26;}.f{font-family:MyriadPro-Regular, Myriad Pro;font-size:12px;}.j{isolation:isolate;}.k{fill:#ee5c6a;}.l{fill:#42cca1;}.m{fill:#052e4c;}.n{fill:#dd5266;}.o{fill:#002343;}.p{clip-path:url(#d);}.q{letter-spacing:0em;}.r{fill:#2c2056;}.s{fill:none;}.t{fill:#efefef;}.u{fill:#f9a600;}.v{letter-spacing:-.01em;}.w{fill:#653e24;}.x{fill:#8c2f3c;}</style><clipPath id="d"><path class="s" d="M87.82,164.8c-21.2-.89-41.98-9.77-57.27-24.49-12.63-12.15-21.43-28.18-25.08-45.3-1.75-8.21-1.84-17.14-1.79-25.53,.05-9.38,1.57-18.77,4.91-27.55C16.02,22.4,35.93,1.99,58.34,4.48c16.81,1.87,29.88,15.46,45.8,21.24,23.71,8.61,50.9-.96,74.86,6.89,17.45,5.72,31.33,20.73,36.88,38.34,5.55,17.61,3.05,37.39-5.65,53.65-8.7,16.27-23.29,29.03-40.03,36.61"/></clipPath></defs><g class="j"><g id="a"/><g id="b"><g id="c"><g><g><path class="e" d="M87.82,164.8c-21.2-.89-41.98-9.77-57.27-24.49-12.63-12.15-21.43-28.18-25.08-45.3-1.75-8.21-1.84-17.14-1.79-25.53,.05-9.38,1.57-18.77,4.91-27.55C16.02,22.4,35.93,1.99,58.34,4.48c16.81,1.87,29.88,15.46,45.8,21.24,23.71,8.61,50.9-.96,74.86,6.89,17.45,5.72,31.33,20.73,36.88,38.34,5.55,17.61,3.05,37.39-5.65,53.65-8.7,16.27-23.29,29.03-40.03,36.61"/><path class="e" d="M87.82,164.8c-21.2-.89-41.98-9.77-57.27-24.49-12.63-12.15-21.43-28.18-25.08-45.3-1.75-8.21-1.84-17.14-1.79-25.53,.05-9.38,1.57-18.77,4.91-27.55C16.02,22.4,35.93,1.99,58.34,4.48c16.81,1.87,29.88,15.46,45.8,21.24,23.71,8.61,50.9-.96,74.86,6.89,17.45,5.72,31.33,20.73,36.88,38.34,5.55,17.61,3.05,37.39-5.65,53.65-8.7,16.27-23.29,29.03-40.03,36.61"/><g class="p"><g><rect class="t" x="162.9" y="43.79" width="23.36" height="7.67" rx="3.83" ry="3.83"/><rect class="t" x="147.81" y="47.82" width="48.46" height="47.99" rx="3.17" ry="3.17"/><g><g><rect class="e" x="154.56" y="55.43" width="15.8" height="9.15" rx="2.94" ry="2.94"/><rect class="e" x="176.3" y="55.43" width="15.8" height="9.15" rx="2.94" ry="2.94"/></g><g><rect class="e" x="154.56" y="70.5" width="15.8" height="9.15" rx="2.94" ry="2.94"/><rect class="e" x="176.3" y="70.5" width="15.8" height="9.15" rx="2.94" ry="2.94"/></g></g><rect class="t" y="25.33" width="42.85" height="112.1" rx="6.07" ry="6.07"/><g><rect class="e" x="31.84" y="32.73" width="3.76" height="104.12" rx="1.88" ry="1.88"/><rect class="e" x="19.84" y="32.73" width="3.76" height="104.12" rx="1.88" ry="1.88"/><rect class="e" x="7.84" y="32.73" width="3.76" height="104.12" rx="1.88" ry="1.88"/></g><path class="t" d="M78.63,49.52v-4.75c0-1.13-.92-2.04-2.04-2.04h-24.85c-1.13,0-2.04,.92-2.04,2.04v4.75h28.94Z"/><rect class="t" x="26.98" y="48.18" width="61.38" height="124.54" rx="4.34" ry="4.34"/><g><g><rect class="e" x="34.39" y="55.43" width="11.21" height="17.75" rx="3.88" ry="3.88"/><rect class="e" x="52.07" y="55.43" width="11.21" height="17.75" rx="3.88" ry="3.88"/><rect class="e" x="69.75" y="55.43" width="11.21" height="17.75" rx="3.88" ry="3.88"/></g><g><rect class="e" x="34.39" y="80.13" width="11.21" height="17.75" rx="3.88" ry="3.88"/><rect class="e" x="52.07" y="80.13" width="11.21" height="17.75" rx="3.88" ry="3.88"/><rect class="e" x="69.75" y="80.13" width="11.21" height="17.75" rx="3.88" ry="3.88"/></g><g><rect class="e" x="34.39" y="104.83" width="11.21" height="17.75" rx="3.88" ry="3.88"/><rect class="e" x="52.07" y="104.83" width="11.21" height="17.75" rx="3.88" ry="3.88"/><rect class="e" x="69.75" y="104.83" width="11.21" height="17.75" rx="3.88" ry="3.88"/></g><g><rect class="e" x="34.39" y="129.53" width="11.21" height="17.75" rx="3.88" ry="3.88"/><rect class="e" x="52.07" y="129.53" width="11.21" height="17.75" rx="3.88" ry="3.88"/><rect class="e" x="69.75" y="129.53" width="11.21" height="17.75" rx="3.88" ry="3.88"/></g></g><rect class="t" x="159.93" y="85.59" width="56.1" height="78.45" rx="3.78" ry="3.78"/><g><rect class="e" x="167.13" y="92.94" width="43.36" height="4.12" rx="2.06" ry="2.06"/><rect class="e" x="167.13" y="103.06" width="43.36" height="4.12" rx="2.06" ry="2.06"/><rect class="e" x="167.13" y="113.17" width="43.36" height="4.12" rx="2.06" ry="2.06"/><rect class="e" x="167.13" y="123.29" width="43.36" height="4.12" rx="2.06" ry="2.06"/><rect class="e" x="167.13" y="133.41" width="43.36" height="4.12" rx="2.06" ry="2.06"/><rect class="e" x="167.13" y="143.52" width="43.36" height="4.12" rx="2.06" ry="2.06"/></g></g></g></g><path class="k" d="M158.85,106.52s15.4,21.33,16.89,37.16c1.49,15.83-21.31,19.62-32.56,7.71-11.26-11.91,3.34-12.69,3.34-12.69l-4.01-25.99,16.34-6.19Z"/><path class="n" d="M91.44,35.9c-2.02-.2-3.95,1.17-4.95,2.94-.99,1.77-1.21,3.87-1.2,5.9,0,2.14,.25,4.33,1.17,6.27s2.58,3.6,4.67,4.1"/><path class="w" d="M91.33,52.27c.09,.02,.41-.72,.56-2.01,.08-.64,.09-1.42,.02-2.27-.08-.85-.26-1.79-.55-2.74-.31-.94-.71-1.8-1.14-2.55-.44-.74-.9-1.36-1.34-1.83-.87-.96-1.56-1.38-1.62-1.31-.09,.1,.45,.66,1.18,1.67,.36,.5,.75,1.12,1.14,1.84,.37,.72,.73,1.54,1.02,2.43,.28,.89,.47,1.77,.58,2.57,.1,.81,.15,1.54,.15,2.16,0,1.24-.11,2.01,.02,2.04Z"/><path class="o" d="M160.86,106.12c5.29,1.33,11.27-.74,14.61-5.05,5.06-6.54,2.79-14.57-2.32-20.2-2.18-2.39-2.97-3.62-3.17-6.98-.22-3.68-.02-7.78-2.13-11-2.63-4.01-6.74-6.87-8.93-11.2-3.68-7.29-2.41-15.26-2.75-23.12-.45-10.3-4.47-19.55-13.88-24.5-4.19-2.21-8.76-3.49-13.47-3.94-2.42-.23-4.88-.17-7.29,.18-1.27,.18-2.53,.44-3.76,.78-.64,.18-2.32,1.1-2.92,.96-13.1-2.96-25.57,7.28-27.44,20.15-.78,5.39-.74,10.07-5.22,14.03-3.12,2.76-7.53,5.25-8.62,9.62-1.26,5.06,.93,10.68-2.21,15.32-1.63,2.42-4.53,2.95-6.44,5.23-2.67,3.19-4.04,7.43-3.74,11.58s2.27,8.15,5.37,10.92"/><path class="k" d="M114.95,88.16c4.88,.02,9.58-2.97,11.89-7.24-.39-.05-.76-.09-1.07-.13-.96-.11-1.7-.9-1.74-1.87l-.31-7.57c9.58-1.52,14.97-9.01,14.97-9.01,9.5,1.34,13.1-4.96,14.06-7.21,.19-.43,.32-.88,.41-1.34,1.81-9.26-4.71-10.07-7.55-9.99-.69,.02-1.26-.54-1.26-1.24v-9.84c-1.05-11.55-25.28-26.23-25.28-26.23,0,0-22.86-2.25-26.23,15.85s-5.59,38.28,3.51,44.72c0,0,4.5,3.5,9.99,4.29l.12,7.11c.02,1.05-.79,1.92-1.83,1.99-.47,.03-1.01,.07-1.6,.13,2.22,4.4,6.96,7.53,11.92,7.56Z"/><path class="m" d="M126.83,80.92c-2.3,4.27-7,7.26-11.89,7.24-4.96-.02-9.69-3.16-11.92-7.56-5.65,.52-16.4,2.19-18.18,7.52-2.43,7.29,3.85,36.42,3.85,36.42,0,0-15.93,19.71-20,29.73,0,0,41.12,36.08,86.15,3.41-2.26-15.41-13.67-28.18-13.67-28.18,1.69-3.08,2.18-8.02,2.18-8.02,18.27-3.71,23.25-15.12,23.25-15.12,0,0-3.03-4.23-10.08-13.93-5.63-7.75-22.93-10.65-29.68-11.5Z"/><path class="l" d="M130.85,81.51c-1.55-.26-2.92-.45-4.02-.59-2.3,4.27-7,7.26-11.89,7.24-4.96-.02-9.69-3.16-11.92-7.56-.82,.07-1.74,.17-2.73,.3,1.19,4.25,4.36,7.99,8.38,9.68,5.8,2.43,12.78,.84,17.56-3.32,1.86-1.62,3.39-3.59,4.6-5.76Z"/><path class="l" d="M164.85,103.93c-.14,.14-.28,.27-.42,.41-.73,.76-1.58,1.5-2.45,2.3-1.79,1.55-3.84,3.16-6.12,4.68-2.29,1.5-4.58,2.75-6.71,3.78-1.08,.49-2.1,.97-3.08,1.35-.49,.19-.96,.4-1.42,.56l-.81,.29c.03,.21,.03,.41,.02,.62l1-.31c.47-.15,.95-.34,1.45-.53,1.01-.35,2.05-.82,3.16-1.3,2.18-1.01,4.52-2.26,6.84-3.78,2.31-1.54,4.38-3.19,6.17-4.8,.87-.83,1.71-1.6,2.43-2.39,.11-.12,.22-.23,.33-.34-.12-.17-.25-.35-.39-.54Z"/><path class="l" d="M139.36,102.13l.52-18.69c-.7-.19-1.39-.37-2.08-.53l-3.78,20.81-18.15,1.31-18.91-1.81,.87-21.95c-1.06,.19-2.16,.41-3.24,.68l-4.66,18.84-4.67,4.11c1.3,9.71,3.43,19.62,3.43,19.62,0,0-15.93,19.71-20,29.73,0,0,41.12,36.08,86.15,3.41-2.26-15.41-13.67-28.18-13.67-28.18,1.69-3.08,2.18-8.02,2.18-8.02,0,0,2.58-4.42-3.99-19.34Z"/><path class="i" d="M153.72,152.46c-.19,.14-.38,.28-.58,.42-.68,.45-1.38,.92-2.08,1.38-.35,.23-.7,.48-1.07,.7l-1.12,.66c-.76,.44-1.51,.91-2.3,1.34-.8,.41-1.61,.83-2.42,1.26-.81,.45-1.67,.8-2.53,1.19-.86,.38-1.72,.81-2.63,1.13-.9,.35-1.81,.7-2.73,1.06-.94,.3-1.88,.61-2.83,.92-3.84,1.16-7.9,2.05-12.12,2.55-4.23,.45-8.39,.48-12.39,.2-1-.09-1.99-.18-2.97-.27-.97-.14-1.94-.28-2.89-.42-.96-.12-1.89-.34-2.81-.52-.92-.2-1.84-.35-2.73-.6-.89-.23-1.77-.46-2.64-.69-.86-.25-1.7-.54-2.53-.8-.42-.13-.83-.26-1.24-.4-.41-.14-.8-.3-1.2-.45-.79-.3-1.57-.6-2.34-.89-.76-.31-1.49-.65-2.21-.97-.72-.33-1.44-.61-2.11-.98l-1.99-1.02c-.32-.17-.65-.32-.96-.5-.31-.18-.61-.36-.92-.53-1.2-.7-2.37-1.34-3.41-2.06-1.04-.7-2.07-1.31-2.94-1.99-.87-.65-1.7-1.24-2.44-1.81-.06,.12-.13,.23-.19,.35,.71,.58,1.52,1.18,2.36,1.83,.87,.71,1.88,1.34,2.93,2.06,1.03,.74,2.2,1.4,3.4,2.13l.92,.55c.31,.18,.64,.34,.96,.51,.65,.34,1.32,.69,2,1.05,.67,.37,1.4,.67,2.12,1.01,.73,.33,1.46,.68,2.23,1l2.35,.92c.4,.15,.8,.32,1.21,.46l1.25,.41c.84,.27,1.69,.57,2.56,.82,.88,.23,1.77,.47,2.67,.71,.89,.26,1.83,.42,2.76,.62,.94,.19,1.87,.42,2.84,.54,.96,.15,1.94,.29,2.92,.44,.99,.09,1.99,.19,3,.28,4.04,.3,8.26,.27,12.54-.19,4.28-.51,8.39-1.41,12.27-2.6,.96-.32,1.92-.63,2.86-.94,.93-.36,1.84-.72,2.75-1.08,.92-.33,1.78-.77,2.65-1.16,.86-.4,1.74-.77,2.55-1.22l2.44-1.29c.79-.44,1.55-.92,2.31-1.37,.38-.23,.75-.45,1.13-.68,.37-.23,.72-.48,1.08-.72,.71-.48,1.41-.95,2.09-1.42,.13-.09,.25-.19,.38-.28-.06-.23-.12-.46-.19-.69Z"/><path class="k" d="M164.73,139.22s-19.7-12.39-40.86-14.78l-6.21,14.13s25.59,21.99,46.47,19.39l.61-18.74Z"/><path class="k" d="M127.88,129.45c1.59-7.73,.18-16.04-3.86-22.82-1.23,6.7-1.36,13.54-1.48,20.35-.02,1.17,.01,2.48,.85,3.3,1.01,.99,2.66,.76,4.04,.46l.52-2.71"/><path class="o" d="M91.61,19.69c2.07-2.83,5.38-4.47,8.72-5.53s6.82-1.64,10.09-2.9c3.26-1.26,6.4-3.35,7.91-6.51,.2-.42-6.24-1.3-6.81-1.29-2.56,.03-4.72,.87-7.16,1.47-4.37,1.09-7.91,3.1-9.61,7.64"/><g class="g"><path class="k" d="M115.46,9.24c-1.64,2.28-2.3,5.25-1.77,8.01,.53,2.76,2.25,5.27,4.62,6.77,2.62,1.66,5.9,2.09,8.38,3.94,4.93,3.67,4.88,11.24,8.85,15.94,1.02,1.21,2.35,2.22,3.9,2.52s3.32-.26,4.15-1.61c1.24-2,.02-4.54-.81-6.75-1.29-3.43-1.56-7.13-2.11-10.75-.55-3.62-1.46-7.33-3.76-10.18-2.3-2.85-6.32-4.59-9.73-3.26"/></g><g class="g"><path class="k" d="M141.75,58.87c-.63-1.98-.52-4.2,.32-6.1s2.4-3.48,4.29-4.35c1.29-.59,2.91-.82,4.07,0,1.14,.8,1.48,2.35,1.44,3.75-.06,2.47-1.11,4.99-3.09,6.47-1.98,1.48-4.94,1.7-6.92,.21"/></g><g><g><g><path class="x" d="M150.43,48.52s-.17-.21-.58-.39c-.41-.18-1.05-.35-1.87-.33-.81,.02-1.78,.23-2.73,.77-.95,.53-1.82,1.38-2.47,2.43-.65,1.05-1.03,2.18-1.21,3.21-.19,1.04-.2,1.98-.16,2.76,.09,1.57,.36,2.5,.46,2.48,.12-.01,.06-.97,.11-2.49,.07-1.5,.3-3.63,1.49-5.54,.59-.95,1.35-1.72,2.16-2.21,.81-.5,1.66-.75,2.39-.84,1.47-.17,2.36,.28,2.41,.15Z"/><path class="x" d="M146.87,55.62c.1,.03,.34-.35,.34-1.05,.01-.68-.29-1.69-1.15-2.41-.86-.71-1.91-.82-2.58-.68-.69,.13-1.01,.44-.97,.53,.05,.11,.43,.02,1.01,.05,.57,.02,1.37,.2,2.02,.74,.64,.54,.97,1.29,1.1,1.84,.14,.56,.12,.96,.23,.98Z"/></g><path class="x" d="M115.87,47.21s-.31,.25-.84,.66c-.53,.4-1.37,.94-2.53,1.18-.29,.06-.59,.11-.87,.09-.29-.02-.55-.12-.62-.29-.1-.16-.04-.42,.14-.72,.18-.28,.43-.62,.66-.97,.93-1.38,1.77-3.01,2.41-4.82,1.27-3.63,1.39-7.19,1.07-9.66-.07-.62-.18-1.18-.28-1.66-.12-.48-.21-.9-.32-1.23-.22-.66-.37-1.02-.42-1-.14,.04,.29,1.51,.44,3.95,.17,2.42-.04,5.84-1.26,9.34-.61,1.75-1.41,3.33-2.27,4.68-.21,.34-.43,.64-.65,1.03-.1,.19-.2,.4-.24,.65-.04,.24,0,.54,.13,.76,.13,.24,.36,.39,.57,.47,.21,.08,.42,.11,.61,.11,.39,0,.73-.08,1.04-.16,1.26-.35,2.11-1,2.6-1.5,.5-.51,.67-.87,.63-.9Z"/><path class="x" d="M104.97,44.91c.23,0,.41-1.79,.41-4s-.18-4-.41-4-.41,1.79-.41,4,.18,4,.41,4Z"/><path class="x" d="M128.39,45.37c.23,0,.48-1.77,.56-3.98,.09-2.21-.03-4.01-.25-4.01-.23,0-.48,1.77-.56,3.98-.09,2.21,.03,4.01,.25,4.01Z"/><path class="x" d="M120.34,52.45c.02-.1-.29-.29-.85-.41-.55-.12-1.36-.15-2.21,.02-.86,.18-1.58,.53-2.04,.87-.46,.33-.68,.63-.61,.71,.14,.19,1.28-.47,2.82-.78,1.53-.33,2.84-.19,2.89-.42Z"/></g><g><path class="x" d="M109.42,23.89c.02-.18-.57-.43-1.58-.52-1.01-.1-2.43,0-3.92,.49-1.48,.49-2.69,1.25-3.44,1.93-.76,.68-1.08,1.23-.96,1.36,.27,.29,2.15-1.14,4.83-2,2.67-.9,5.03-.87,5.07-1.26Z"/><path class="x" d="M133.81,27.7c.15-.09-.03-.75-.68-1.62-.32-.44-.78-.9-1.35-1.35-.57-.43-1.26-.85-2.03-1.16-.78-.31-1.56-.48-2.27-.57-.72-.07-1.37-.05-1.9,.04-1.07,.18-1.66,.54-1.61,.7,.05,.2,.69,.18,1.66,.26,.48,.03,1.05,.11,1.67,.24,.62,.14,1.28,.33,1.96,.59,.67,.28,1.28,.6,1.82,.93,.53,.34,1,.67,1.37,.98,.75,.61,1.2,1.07,1.37,.96Z"/></g></g><g><circle class="u" cx="145.06" cy="61.61" r="2.97"/><circle class="u" cx="87.24" cy="54.42" r="2.97"/></g><path class="o" d="M116.62,4.2c-2.38,5.19-.83,11.89,3.59,15.5,4,3.27,9.9,4.15,12.85,8.39,2,2.87,2.13,6.6,3.04,9.97s3.38,6.96,6.88,6.87c3.02-.08,5.29-2.93,6.17-5.83,1.66-5.41,.03-11.4-2.99-16.2-3.02-4.79-7.3-8.63-11.46-12.48-2.39-2.21-4.81-4.49-7.78-5.83s-6.65-1.57-9.35,.24"/><path class="r" d="M120.99,86.07H45.3c-2.26,0-4.09,1.83-4.09,4.09v46.53c0,2.26,1.83,4.09,4.09,4.09H120.99c2.26,0,4.09-1.83,4.09-4.09v-46.53c0-2.26-1.83-4.09-4.09-4.09Zm-69.28,7.69c-1.01,0-1.83-.82-1.83-1.83s.82-1.83,1.83-1.83,1.83,.82,1.83,1.83-.82,1.83-1.83,1.83Zm62.86,0c-1.01,0-1.83-.82-1.83-1.83s.82-1.83,1.83-1.83,1.83,.82,1.83,1.83-.82,1.83-1.83,1.83Z"/><g><path class="x" d="M161.91,137.96c.04-.06-1.07-.91-2.98-2.09-1.91-1.18-4.64-2.68-7.79-4.05-3.15-1.37-6.11-2.34-8.28-2.93-2.17-.59-3.54-.83-3.56-.75-.02,.09,1.31,.48,3.43,1.17,2.12,.69,5.03,1.73,8.16,3.08,3.12,1.36,5.86,2.78,7.82,3.86,1.96,1.08,3.15,1.79,3.2,1.71Z"/><path class="x" d="M160.84,134.91c.08-.15-1.28-.95-3.17-1.35-1.88-.41-3.45-.24-3.45-.08,0,.18,1.51,.29,3.31,.69,1.81,.38,3.23,.91,3.3,.74Z"/></g><g class="h"><path class="r" d="M115.49,120.95c-11.76-1.15-23.13,3.37-34.86,3.14-11.97-.23-23.35-6.2-28.55-17.35-2.08-4.47-3-8.95-3.81-13.75-.31-1.87-.68-4.2-1.51-5.68-.31-.54-.59-.94-.94-1.24h-.52c-2.26,0-4.09,1.83-4.09,4.09v46.53c0,2.26,1.83,4.09,4.09,4.09H120.99c2.26,0,4.09-1.83,4.09-4.09v-13.9c-3.26-.91-6.83-1.57-9.59-1.84Z"/></g><path class="k" d="M45.75,125.46c-1.07,.89-2.09,1.69-2.96,2.8-.31,.39-2.14,2.72-1.87,3.19-1.58-2.76-2.54-5-3.15-8.12s-.68-6.48-.36-9.7c.6-6.11,3.45-12.18,8.45-15.75,.72-.51,1.78-.94,2.4-.31,.67,.69,.07,1.81-.52,2.57-2.7,3.51-4.98,7.35-6.75,11.4,2.11-3.61,5.24-6.61,8.93-8.56,.43-.23,.9-.45,1.38-.41s.97,.45,.93,.93c-.03,.28-.21,.51-.39,.72l-10.68,12.99c2.92-2.91,5.86-5.85,9.33-8.07,.54-.34,1.11-.68,1.74-.75s1.35,.2,1.6,.79c.37,.84-.32,1.73-.96,2.38l-10.77,10.99c2.42-1.97,4.87-3.95,7.63-5.41,.98-.52,2.42-.86,3.03,.07,.52,.8-.07,1.86-.73,2.56-1.84,1.98-4.19,3.92-6.25,5.64l-.05,.04Z"/><text class="f" transform="translate(57.38 113.43)"><tspan x="0" y="0">No </tspan><tspan class="q" x="17.03" y="0">v</tspan><tspan x="22.68" y="0">endors</tspan><tspan class="v" x="13.7" y="14.4">f</tspan><tspan x="17.05" y="14.4">ound</tspan></text></g></g></g></g></svg>