<svg xmlns="http://www.w3.org/2000/svg" width="488.574" height="449.199" viewBox="0 0 488.574 449.199">
  <g id="product_not_found" data-name="product not found" transform="translate(-5.76 -12.644)">
    <path id="Path_276" data-name="Path 276" d="M-155.59-4.295l-.211-.143L-346.072,68.356-402.7-17.105v-1.883l204.658-68.221L-155.8-2.935Z" transform="translate(408.456 99.853)" fill="#002434"/>
    <path id="Path_277" data-name="Path 277" d="M-267.007-4.295l-.211,1.36,56.29-84.274L-32.558,16.128V18.7l-65.466,92.488Z" transform="translate(519.874 99.853)" fill="#002434"/>
    <path id="Path_278" data-name="Path 278" d="M-155.59-4.295l-.211-.143L-346.376,65.994-402.7-18.988l204.658-68.221L-155.8-2.935Z" transform="translate(408.456 99.853)" fill="#17d7a0"/>
    <path id="Path_279" data-name="Path 279" d="M-267.007-4.295l-.211,1.36,56.29-84.274L-32.558,16.128-96.52,107.673Z" transform="translate(519.874 99.853)" fill="#17d7a0"/>
    <path id="Path_280" data-name="Path 280" d="M-371.792-3.142l6.13,146.263,164.783,149.733,1.385-.665-3.645-172.39Z" transform="translate(433.872 168.99)" fill="#17d7a0"/>
    <path id="Path_281" data-name="Path 281" d="M-86.627,19.728l-192.62,81.262,3.645,172.39,188.975-91.128Z" transform="translate(509.981 187.798)" fill="#17d7a0"/>
    <path id="Path_282" data-name="Path 282" d="M-181.217-40.287l.211-1.36-.211-.143L-371.792,28.642-242.486,122.9-177.35,95.68Z" transform="translate(433.872 137.206)" fill="#3fa880"/>
    <path id="Path_283" data-name="Path 283" d="M-267.007-41.712l-.211,1.36,3.866,135.967,1.269-.528,35.91,29.865,129.653-54.7Z" transform="translate(519.874 137.27)" fill="#3fa880"/>
    <path id="Path_284" data-name="Path 284" d="M-234.433,33.354l-1.269.528L-300.838,61.1l39.348,28.687,27.057-11.418L-193.5,61.1Z" transform="translate(492.225 199.004)" fill="#002434"/>
    <g id="Group_237" data-name="Group 237" transform="translate(230.734 207.527)">
      <path id="Path_285" data-name="Path 285" d="M-86.627,142.409V19.728l-192.62,81.262,49.67,111.431Z" transform="translate(279.247 -19.728)" fill="#2abf8f" opacity="0.77"/>
    </g>
    <g id="Group_238" data-name="Group 238" transform="translate(230.734 278.501)">
      <path id="Path_286" data-name="Path 286" d="M-222.024,63.093l-57.223,2.235v1.691l74.182,81.027,2.566-6.536Z" transform="translate(279.247 -55.04)" fill="#002434"/>
      <path id="Path_287" data-name="Path 287" d="M-247.847,66.727l19.526,78.416-2.566,6.536L-42.2,60.845l.732-2.171Z" transform="translate(305.07 -58.674)" fill="#002434"/>
    </g>
    <path id="Path_288" data-name="Path 288" d="M-86.627,19.728l-192.62,81.262,74.622,80.844L-15.647,90.7Z" transform="translate(509.981 187.798)" fill="#17d7a0"/>
    <g id="Group_240" data-name="Group 240" transform="translate(62.081 165.847)">
      <path id="Path_289" data-name="Path 289" d="M-203.013,119.806l-.126-.007L-371.792-3.142l5.374,110.067,124.912,106.42Z" transform="translate(371.792 3.142)" fill="#3fa880" opacity="0.5"/>
    </g>
    <path id="Path_290" data-name="Path 290" d="M-348.64-3.142l-51.3,76.537L-239.051,210.84l59.064-89.35V119.8Z" transform="translate(410.72 168.99)" fill="#002434"/>
    <path id="Path_291" data-name="Path 291" d="M-348.64-3.142l-51.3,76.537,159.882,136.332,60.075-89.928Z" transform="translate(410.72 168.99)" fill="#17d7a0"/>
  </g>
</svg>
