<?xml version="1.0" encoding="utf-8"?>
<!-- Generator: Adobe Illustrator 17.0.0, SVG Export Plug-In . SVG Version: 6.00 Build 0)  -->
<!DOCTYPE svg PUBLIC "-//W3C//DTD SVG 1.1//EN" "http://www.w3.org/Graphics/SVG/1.1/DTD/svg11.dtd">
<svg version="1.1" id="Layer_1" xmlns="http://www.w3.org/2000/svg" xmlns:xlink="http://www.w3.org/1999/xlink" x="0px" y="0px"
	 width="100px" height="35px" viewBox="0 0 100 35" enable-background="new 0 0 100 35" xml:space="preserve">
<g>
	<path fill="#002434" d="M29.228,16.514c-0.36-0.726-0.861-1.343-1.491-1.857c-0.63-0.508-1.388-0.945-2.268-1.304
		c-0.88-0.366-1.87-0.72-2.956-1.067c-0.803-0.244-1.51-0.488-2.108-0.733c-0.598-0.238-1.086-0.501-1.465-0.784
		c-0.373-0.276-0.655-0.604-0.835-0.964c-0.186-0.366-0.276-0.803-0.276-1.311c0-0.797,0.244-1.452,0.733-1.973
		c0.495-0.514,1.324-0.771,2.499-0.771c0.912,0,1.709,0.141,2.39,0.424c0.681,0.283,1.304,0.668,1.863,1.163
		c0.315,0.302,0.546,0.495,0.707,0.598c0.154,0.096,0.341,0.148,0.559,0.148c0.559,0,1.054-0.199,1.484-0.598
		c0.43-0.392,0.643-1.009,0.643-1.838c0-1.202-0.63-2.165-1.902-2.904c-1.266-0.739-3.129-1.105-5.584-1.105
		c-1.568,0-2.93,0.186-4.087,0.559c-1.163,0.373-2.127,0.88-2.898,1.529c-0.771,0.649-1.343,1.414-1.716,2.287
		c-0.379,0.874-0.565,1.806-0.565,2.808c0,1.073,0.148,2.005,0.443,2.795c0.289,0.79,0.732,1.491,1.317,2.095
		c0.585,0.604,1.304,1.124,2.159,1.555c0.848,0.431,1.851,0.835,2.994,1.208l2.268,0.758c0.643,0.225,1.182,0.469,1.606,0.733
		c0.43,0.27,0.758,0.572,0.983,0.912c0.225,0.334,0.341,0.758,0.341,1.266c0,1.047-0.341,1.851-1.015,2.41
		c-0.341,0.283-0.771,0.501-1.291,0.636c-0.514,0.141-1.118,0.212-1.806,0.212c-1.054,0-2.159-0.334-3.322-1.009
		c-0.54-0.308-1.028-0.675-1.471-1.099v-0.006c-0.52-0.488-0.977-1.067-1.362-1.722c-0.218-0.334-0.514-0.501-0.88-0.501
		c-0.643,0-1.169,0.302-1.587,0.9c-0.418,0.604-0.623,1.33-0.623,2.191c0,0.289,0.026,0.565,0.077,0.829
		c0.109,0.565,0.334,1.086,0.675,1.561l0.006,0.006c0.392,0.546,0.938,1.041,1.645,1.478c1.6,0.99,3.817,1.484,6.637,1.484
		c1.555,0,2.949-0.206,4.177-0.623c1.234-0.411,2.287-0.989,3.155-1.735c0.874-0.739,1.542-1.606,1.998-2.609
		c0.463-0.996,0.694-2.095,0.694-3.29C29.774,18.159,29.594,17.247,29.228,16.514z"/>
	<path fill="#002434" d="M51.247,24.565c-0.109-0.109-0.283-0.186-0.514-0.244c-0.61-0.148-1.067-0.398-1.356-0.752
		c-0.296-0.353-0.437-0.919-0.437-1.677c0-0.88,0.006-1.902,0.019-3.058c0.013-1.15,0.019-2.32,0.019-3.508
		c0-2.641-0.649-4.568-1.94-5.77c-1.298-1.202-3.29-1.799-5.976-1.799c-2.442,0-4.382,0.405-5.828,1.208
		c-0.617,0.341-1.06,0.713-1.343,1.112c-0.276,0.405-0.418,0.912-0.418,1.523c0,0.45,0.109,0.816,0.334,1.099
		c0.225,0.276,0.501,0.418,0.835,0.418c0.244,0,0.533-0.084,0.874-0.244c0.604-0.283,1.292-0.52,2.069-0.713
		c0.777-0.193,1.542-0.289,2.313-0.289c1.157,0,2.037,0.289,2.628,0.861c0.591,0.578,0.887,1.516,0.887,2.821v0.957
		c-0.45-0.026-0.989-0.051-1.613-0.077c-0.63-0.032-1.253-0.045-1.863-0.045c-1.176,0-2.191,0.077-3.058,0.231
		c-0.867,0.148-1.619,0.411-2.262,0.784c-1.51,0.887-2.268,2.326-2.268,4.331c0,1.658,0.553,3.033,1.658,4.132
		c1.105,1.099,2.789,1.651,5.05,1.651c1.067,0,2.011-0.18,2.84-0.54c0.829-0.36,1.536-0.855,2.127-1.497
		c0.386,0.643,0.874,1.137,1.459,1.497c0.591,0.36,1.414,0.54,2.474,0.54c1.028,0,1.863-0.238,2.499-0.7
		c0.636-0.469,0.957-1.009,0.957-1.619C51.414,24.887,51.357,24.675,51.247,24.565z M42.13,23.826
		c-0.495,0.225-1.112,0.334-1.863,0.334c-0.752,0-1.388-0.18-1.921-0.546c-0.533-0.36-0.797-0.932-0.797-1.722
		c0-0.63,0.225-1.124,0.675-1.491c0.527-0.437,1.407-0.662,2.634-0.662c0.45,0,0.9,0.013,1.343,0.032
		c0.443,0.019,0.848,0.045,1.214,0.071v1.343c0,0.443,0.006,0.803,0.019,1.073c0.013,0.276,0.039,0.52,0.064,0.733
		C43.074,23.332,42.618,23.608,42.13,23.826z"/>
	<path fill="#002434" d="M59.697,25.336c-0.013-0.379-0.019-0.777-0.019-1.195V3.278c0-0.739-0.109-1.24-0.321-1.504
		c-0.212-0.27-0.585-0.443-1.118-0.52c-0.302-0.058-0.598-0.084-0.9-0.084h-1.664c-0.302,0-0.578,0.026-0.822,0.084
		c-0.341,0.051-0.578,0.129-0.72,0.225c-0.135,0.096-0.206,0.296-0.206,0.61c0,0.218,0.006,0.527,0.026,0.919
		c0.013,0.398,0.019,0.81,0.019,1.227V25.06c0,0.72,0.103,1.214,0.308,1.484c0.206,0.263,0.572,0.437,1.105,0.52
		c0.302,0.051,0.604,0.084,0.906,0.084h1.683c0.302,0,0.572-0.032,0.822-0.084c0.341-0.058,0.578-0.129,0.713-0.225
		c0.141-0.096,0.206-0.302,0.206-0.617C59.716,26.005,59.71,25.709,59.697,25.336z"/>
	<path fill="#002434" d="M77.238,23.454c-0.141-0.199-0.353-0.296-0.623-0.296c-0.141,0-0.27,0.019-0.398,0.051
		c-0.135,0.039-0.251,0.071-0.36,0.096c-0.655,0.173-1.369,0.263-2.146,0.263c-1.022,0-1.761-0.283-2.21-0.842
		s-0.675-1.459-0.675-2.686v-7.967c0.816,0,1.613,0.006,2.39,0.019c0.777,0.013,1.446,0.019,2.005,0.019
		c0.643,0,1.131-0.122,1.471-0.353c0.341-0.238,0.54-0.681,0.598-1.317c0.026-0.308,0.039-0.559,0.039-0.752V9.183
		c0-0.328-0.071-0.553-0.206-0.681s-0.373-0.193-0.713-0.193h-0.88c-0.398,0-0.855,0.006-1.369,0.019
		c-0.52,0.013-1.073,0.019-1.658,0.019h-1.677V4.531c0-0.508-0.251-0.765-0.758-0.765h-0.488c-0.373,0-0.662,0.058-0.88,0.167
		c-0.218,0.109-0.488,0.321-0.797,0.63l-2.455,2.313l-2.499,2.21c-0.296,0.283-0.508,0.514-0.623,0.681
		c-0.116,0.173-0.186,0.392-0.212,0.668c-0.026,0.193-0.045,0.353-0.045,0.488V11.4c0,0.45,0.244,0.675,0.72,0.675h2.641
		c0,0.79-0.013,1.606-0.026,2.455l-0.039,2.499c-0.013,0.835-0.026,1.619-0.039,2.358c-0.019,0.739-0.026,1.388-0.026,1.947
		c0,2.146,0.54,3.714,1.619,4.703c1.073,0.983,2.789,1.478,5.134,1.478c1.664,0,2.981-0.283,3.945-0.848
		c0.97-0.565,1.452-1.381,1.452-2.448C77.45,23.91,77.379,23.653,77.238,23.454z"/>
	<path fill="#002434" d="M97.028,24.026c-0.045-0.9-0.064-1.934-0.064-3.11V10.224c0-0.733-0.103-1.234-0.315-1.497
		c-0.212-0.263-0.585-0.437-1.118-0.52c-0.296-0.058-0.598-0.084-0.9-0.084h-1.677c-0.302,0-0.572,0.026-0.816,0.084
		c-0.328,0.051-0.565,0.129-0.707,0.225c-0.141,0.096-0.212,0.296-0.212,0.61c0,0.231,0.006,0.54,0.019,0.932
		c0.013,0.386,0.019,0.79,0.019,1.208v10.852c-0.341,0.315-0.784,0.578-1.317,0.797c-0.54,0.218-1.105,0.328-1.69,0.328
		c-0.983,0-1.658-0.238-2.037-0.707c-0.373-0.469-0.559-1.247-0.559-2.332v-9.895c0-0.733-0.109-1.234-0.321-1.497
		c-0.206-0.263-0.578-0.437-1.112-0.52c-0.302-0.058-0.598-0.084-0.9-0.084h-1.677c-0.302,0-0.572,0.026-0.816,0.084
		c-0.328,0.051-0.565,0.129-0.707,0.225c-0.148,0.096-0.218,0.296-0.218,0.61c0,0.218,0.006,0.52,0.019,0.919
		c0.019,0.392,0.026,0.803,0.026,1.221v9.979c0,2.217,0.533,3.836,1.606,4.845c1.067,1.002,2.628,1.51,4.671,1.51
		c1.144,0,2.217-0.231,3.213-0.694c0.996-0.456,1.773-1.067,2.332-1.825l0.244,1.015c0.109,0.386,0.257,0.655,0.45,0.816
		c0.186,0.154,0.456,0.251,0.797,0.276c0.231,0.026,0.475,0.045,0.739,0.045h1.407c0.257,0,0.527-0.019,0.797-0.045
		c0.585-0.026,0.88-0.321,0.88-0.887C97.086,25.651,97.067,24.925,97.028,24.026z"/>
	<g>
		<text transform="matrix(1 0 0 1 29.9878 33.2852)" font-family="'CocoGothic'" font-size="5.7828">Tap Your Needs Today</text>
	</g>
	<circle fill="#002434" cx="17.2" cy="31.25" r="2.035"/>
	<circle fill="#002434" cx="23.625" cy="31.25" r="2.035"/>
	<path fill="#002434" d="M23.522,26.275l-12.054-1.722l-0.006-0.006l-0.675-1.561l-3.181-7.344l-4.858-0.347v-3.611h6.033
		l6.38,9.606v0.006c0.443,0.424,0.932,0.79,1.471,1.099c1.163,0.675,2.268,1.009,3.322,1.009c0.688,0,1.292-0.071,1.806-0.212
		l0.347,0.103c0,0,3.348-0.373,2.679-6.027l-5.552-2.05l-3.309-1.452l9.734,1.876C25.661,15.641,30.667,21.134,23.522,26.275z"/>
	<path fill="#9FC638" d="M12.399,11.618c0,0,9.928,0.908,14.266,10.788l0.256,0.514c0,0-14.586,6.23-15.942-8.343
		c0,0,2.891,5.964,11.317,6.811C22.296,21.388,11.529,17.636,12.399,11.618z"/>
</g>
</svg>
