<svg xmlns="http://www.w3.org/2000/svg" xmlns:xlink="http://www.w3.org/1999/xlink" width="1380.224" height="953.525" viewBox="0 0 1380.224 953.525">
  <defs>
    <clipPath id="clip-path">
      <path id="Path_3" data-name="Path 3" d="M115.168,252.68C45.236,288.116-17.31,336.851-67.823,401.627-191.194,559.834-216.587,791.107-95.05,957.751c113.474,155.587,309.035,195.795,489.16,153.51,157.373-36.944,290.52-135.92,455.532-145.5,40.8-2.369,82.457-3.126,122.346-12.9,157.25-38.521,241.57-210.11,228.763-362.376C1183.164,381.4,1014.06,273.5,828.605,221.514,609.817,160.184,328.214,144.722,115.168,252.68Z" transform="translate(174.329 -173.476)" fill="#f7f7f7"/>
    </clipPath>
    <clipPath id="clip-path-2">
      <path id="Path_53" data-name="Path 53" d="M121.637,252.68C51.7,288.116-10.841,336.851-61.354,401.627c-123.372,158.208-148.764,389.48-27.227,556.124,113.474,155.587,309.035,195.795,489.16,153.51,157.373-36.944,290.52-135.92,455.532-145.5,40.8-2.369,82.458-3.126,122.346-12.9,157.249-38.521,241.569-210.11,228.762-362.376C1189.633,381.4,1020.53,273.5,835.075,221.514,616.286,160.184,334.684,144.722,121.637,252.68Z" transform="translate(167.86 -173.476)" fill="none"/>
    </clipPath>
  </defs>
  <g id="Group_13" data-name="Group 13" transform="translate(-102.968 -76.18)">
    <g id="Group_2" data-name="Group 2" transform="translate(102.968 76.18)">
      <path id="Path_1" data-name="Path 1" d="M115.168,252.68C45.236,288.116-17.31,336.851-67.823,401.627-191.194,559.834-216.587,791.107-95.05,957.751c113.474,155.587,309.035,195.795,489.16,153.51,157.373-36.944,290.52-135.92,455.532-145.5,40.8-2.369,82.457-3.126,122.346-12.9,157.25-38.521,241.57-210.11,228.763-362.376C1183.164,381.4,1014.06,273.5,828.605,221.514,609.817,160.184,328.214,144.722,115.168,252.68Z" transform="translate(174.329 -173.476)" fill="#f7f7f7"/>
      <g id="Group_1" data-name="Group 1" transform="translate(0)" clip-path="url(#clip-path)">
        <path id="Path_2" data-name="Path 2" d="M-258.759,1215.175c23.869-75.119,79.827-139.45,150.916-173.494s156.289-37.312,229.778-8.815c105.938,41.08,179.246,140.278,281.125,190.585,109.077,53.86,243.706,44.563,351.342-12.124,83.439-43.942,152.452-113.949,240.355-148.1,83.691-32.512,176.4-29.432,266.089-25.316-18.833,68.6-65.787,124.982-115.684,175.68-81.187,82.491-177.373,156.72-290.607,180.678-76.366,16.158-155.919,8.474-233.028,20.6-87.592,13.77-168.935,52.5-252.846,81.149s-176.244,47.223-260.568,19.812C65.563,1502,27.556,1477.213-9.709,1452.452-106.9,1387.871-195.178,1313.021-258.759,1215.175Z" transform="translate(208.259 -511.093)" fill="#e8e8e8" opacity="0.48"/>
      </g>
    </g>
    <path id="Path_4" data-name="Path 4" d="M115.168,252.68C45.236,288.116-17.31,336.851-67.823,401.627-191.194,559.834-216.587,791.107-95.05,957.751c113.474,155.587,309.035,195.795,489.16,153.51,157.373-36.944,290.52-135.92,455.532-145.5,40.8-2.369,82.457-3.126,122.346-12.9,157.25-38.521,241.57-210.11,228.763-362.376C1183.164,381.4,1014.06,273.5,828.605,221.514,609.817,160.184,328.214,144.722,115.168,252.68Z" transform="translate(277.297 -97.296)" fill="none"/>
    <g id="Group_12" data-name="Group 12" transform="translate(106.838 76.18)">
      <g id="Group_11" data-name="Group 11" transform="translate(0)" clip-path="url(#clip-path-2)">
        <g id="Group_10" data-name="Group 10" transform="translate(367.927 57.935)">
          <g id="Group_3" data-name="Group 3" transform="translate(162.641 748.628)">
            <path id="Path_5" data-name="Path 5" d="M739.344,1566.526s-10.487,50.663-14.36,70.993-5.809,65.279-5.809,65.279h290.588s7.745-112.716,1.936-132.078-9.2-30.979-9.2-30.979S885.2,1592.341,739.344,1566.526Z" transform="translate(-719.175 -1529.092)" fill="#002434"/>
            <path id="Path_6" data-name="Path 6" d="M750.969,1540.331s-3.228,10,.645,19.039c0,0,69.057,21.137,155.217,12.908,50.78-4.85,107.942-39.692,107.942-39.692l-.484-10.649Z" transform="translate(-731.445 -1521.937)" fill="#1f3444"/>
            <path id="Path_7" data-name="Path 7" d="M974.09,1564.543s2.563,14.354,2.563,24.609c0,0,45.628-1.538,55.369-8.715l-2.051-23.584S985.369,1566.08,974.09,1564.543Z" transform="translate(-821.617 -1535.968)" fill="#013b4f"/>
            <path id="Path_8" data-name="Path 8" d="M990.223,1758.073l7.725-19.206s16.646-7.074,24.48-15.886,16.648-46.027,16.648-46.027l-8.813,80.685Z" transform="translate(-828.1 -1584.233)" fill="#013b4f"/>
            <path id="Path_9" data-name="Path 9" d="M1057.411,1686.566a2.067,2.067,0,0,1-1.947-2.763c4.76-13.328,11.576-73.351,11.644-73.956a2.067,2.067,0,0,1,4.107.463c-.281,2.49-6.937,61.107-11.858,74.885A2.067,2.067,0,0,1,1057.411,1686.566Z" transform="translate(-854.269 -1556.528)" fill="#013b4f"/>
          </g>
          <g id="Group_4" data-name="Group 4" transform="translate(190.945)">
            <path id="Path_10" data-name="Path 10" d="M946.814,356.788,941,403.263l-26.456,16.769-76.074,7.925-26.732,2.775-10.79-6.821s-7.741-14.838-9.028-19.359.643-9.688-1.931-14.853c-2.591-5.15-20.662-23.223-23.238-33.553a11.945,11.945,0,0,1,.567-6.7c3.2-9.626,15.038-21.03,18.149-26.211,3.863-6.453,10.975-22.593,16.125-27.115,5.165-4.522,25.184-6.453,29.047-9.028,3.878-2.59,16.141-13.55,23.237-12.907s20.647,7.741,29.69,4.507c9.028-3.219,19.36-12.263,28.388-6.453s11.618,36.787,20.662,41.953c9.028,5.166,20-1.931,23.238,15.5A28.686,28.686,0,0,1,946.814,356.788Z" transform="translate(-766.496 -270.335)" fill="#844b38"/>
            <path id="Path_11" data-name="Path 11" d="M921.646,379.2,838.475,463.92l-26.732,2.775-10.79-6.821s-7.741-14.838-9.028-19.359.643-9.687-1.931-14.853c-2.591-5.151-20.662-23.223-23.238-33.554a11.945,11.945,0,0,1,.567-6.7,14,14,0,0,0,7.818,5.411c10.975,2.575,23.881-1.947,37.431-9.687s37.431-9.028,45.188.644c0,0,32.266-21.291,44.528-21.935S921.646,379.2,921.646,379.2Z" transform="translate(-766.496 -306.298)" fill="#543b30"/>
            <path id="Path_12" data-name="Path 12" d="M908.811,310.261s7.261,3.873,15.49-1.936,20.814-11.617,26.622-8.229,10.65,14.037,10.65,14.037a37.6,37.6,0,0,0-19.847-2.9C930.593,312.682,920.912,318.49,908.811,310.261Z" transform="translate(-823.687 -281.892)" fill="#543b30"/>
          </g>
          <g id="Group_5" data-name="Group 5" transform="translate(0 264.584)">
            <path id="Path_13" data-name="Path 13" d="M681.178,769.4s-98.745,17.909-131.66,64.378S450.772,1100,450.772,1100L559.2,1131.944l58.085-114.234s10.649,177.16,11.617,181.033-6.131,22.911-5.163,25.816,7.1,10.971,7.1,10.971,93.9,16.458,150.054,9.681,113.266-28.075,113.266-28.075a49.8,49.8,0,0,0,6.777-24.2c0-10.107.968-233.309,1.936-261.384s16.457-135.532,16.457-135.532-51.309-25.17-104.554-30.979C766.655,759.789,681.178,769.4,681.178,769.4Z" transform="translate(-448.673 -733.091)" fill="#17d7a0"/>
            <path id="Path_14" data-name="Path 14" d="M849.153,714.3s-10.649,4.841-15.49,11.617-15.49,46.469-15.49,46.469,25.17,51.309,69.7,55.181c0,0,6.777-42.6,11.618-58.086,0,0-36.788-6.776-52.277-38.723Z" transform="translate(-596.318 -713.333)" fill="#16c18c"/>
            <path id="Path_15" data-name="Path 15" d="M1026.509,712.682s14.28,7.261,18.152,12.585,17.425,41.628,17.425,41.628-16.457,43.08-32.914,53.729c0,0-11.133-41.144-18.394-50.825,0,0,17.426-34.852,17.91-39.692Z" transform="translate(-673.719 -712.682)" fill="#16c18c"/>
            <path id="Path_16" data-name="Path 16" d="M635.655,921.95c-.644,1.717-4.431,14.5-9.994,33.508-19.558,66.739-61.206,210.118-66.478,219.161-6.79,11.619-43.578,40.665-66.8,31.944-23.238-8.707-42.6-48.407-41.632-63.888.8-12.814,79.078-169.973,108.861-231.071,6.238-12.783,10.346-21.367,11.174-23.544a39.059,39.059,0,0,1,14.531-18.393l50.338,33.89S638.567,914.209,635.655,921.95Z" transform="translate(-448.651 -775.768)" fill="#17d7a0"/>
            <path id="Path_17" data-name="Path 17" d="M500.367,1208.578a28.568,28.568,0,0,1-10.1-1.726c-14.638-5.484-25.672-21.331-30.946-30.289-7.7-13.086-12.535-27.417-12.021-35.663.637-10.236,43.243-97.737,90.651-194.276,7.209-14.681,13.436-27.36,18.414-37.573,6.742-13.816,10.373-21.461,11.1-23.372a40.916,40.916,0,0,1,15.4-19.433l1.128-.676,52.065,35.054.2.74c.126.461,3.053,11.393-.058,19.664h0c-.731,1.95-6.026,19.975-9.945,33.363-2,6.836-4.239,14.478-6.643,22.7-27.917,95.426-55.549,189.235-60.034,196.926C553.458,1184.49,524.045,1208.578,500.367,1208.578Zm83.57-338.06a38.119,38.119,0,0,0-12.61,16.639c-.789,2.078-4.259,9.392-11.245,23.708-4.98,10.217-11.208,22.9-18.419,37.582-33.51,68.239-89.6,182.452-90.235,192.71-.46,7.373,4.252,21.069,11.457,33.307,8.5,14.443,19.013,24.837,28.835,28.516a24.965,24.965,0,0,0,8.827,1.5c21.768,0,49.866-22.976,55.463-32.553,4.6-7.9,39.054-125.648,59.636-196,2.4-8.219,4.639-15.86,6.644-22.7,6.343-21.668,9.441-32.048,10.042-33.651v0c2.224-5.912.673-13.964.117-16.4Z" transform="translate(-447.263 -774.123)" fill="#16c18c"/>
            <path id="Path_18" data-name="Path 18" d="M1000.568,1288.844l-2.48-3.308c.063-.048,7.1-5.554,8.875-18,.986-6.9-.82-70.529-2.566-132.063-.828-29.18-1.685-59.353-2.294-84.933-1.911-80.249-17.252-179.776-17.407-180.772l4.086-.634c.156,1,15.537,100.784,17.454,181.308.608,25.57,1.465,55.738,2.293,84.913,1.832,64.546,3.563,125.514,2.528,132.764C1009.022,1282.358,1000.913,1288.586,1000.568,1288.844Z" transform="translate(-663.238 -775.555)" fill="#16c18c"/>
            <path id="Path_19" data-name="Path 19" d="M632.648,1259.287l-3.671-1.9c.488-.944,48.973-94.575,58.045-114.153,9.087-19.61,29.512-64.8,29.718-65.25l3.768,1.7c-.206.454-20.639,45.659-29.734,65.286C681.663,1164.63,633.137,1258.342,632.648,1259.287Z" transform="translate(-520.287 -859.483)" fill="#16c18c"/>
            <path id="Path_20" data-name="Path 20" d="M671.77,970.985a30.466,30.466,0,0,1-13.4-3.328c-35.134-17.138-31.631-48.814-29.721-58.115l.053-.256.114-.235c6.742-13.816,10.373-21.461,11.1-23.372a40.916,40.916,0,0,1,15.4-19.433l1.127-.676L708.5,900.625l.2.74c.127.461,3.054,11.394-.059,19.667-.733,1.959-6.026,19.976-9.945,33.36l-.105.362-.228.3C690.409,965.624,681.38,970.985,671.77,970.985Zm-39.126-60.358c-1.767,8.871-4.611,37.632,27.534,53.313,12.681,6.189,24.341,2.461,34.664-11.074,6.272-21.423,9.337-31.693,9.935-33.288v0c2.224-5.912.673-13.964.117-16.4l-48.511-32.66a38.12,38.12,0,0,0-12.61,16.639C642.988,889.224,639.552,896.468,632.644,910.627Z" transform="translate(-519.709 -774.123)" fill="#16c18c"/>
            <path id="Path_21" data-name="Path 21" d="M1155.57,976.652c-2.9,5.809,60.99,127.787,76.964,153.926s53.728-26.139,53.728-26.139l-83.738-286.554Z" transform="translate(-731.868 -754.96)" fill="#17d7a0"/>
            <ellipse id="Ellipse_1" data-name="Ellipse 1" cx="6.777" cy="10.323" rx="6.777" ry="10.323" transform="translate(335.122 106.815)" fill="#16c18c"/>
            <ellipse id="Ellipse_2" data-name="Ellipse 2" cx="6.777" cy="10.323" rx="6.777" ry="10.323" transform="translate(349.643 184.58)" fill="#16c18c"/>
            <ellipse id="Ellipse_3" data-name="Ellipse 3" cx="6.777" cy="10.323" rx="6.777" ry="10.323" transform="translate(356.42 371.104)" fill="#16c18c"/>
            <ellipse id="Ellipse_4" data-name="Ellipse 4" cx="6.777" cy="10.323" rx="6.777" ry="10.323" transform="translate(357.388 466.945)" fill="#16c18c"/>
            <ellipse id="Ellipse_5" data-name="Ellipse 5" cx="6.777" cy="10.323" rx="6.777" ry="10.323" transform="translate(352.386 280.103)" fill="#16c18c"/>
            <ellipse id="Ellipse_6" data-name="Ellipse 6" cx="6.777" cy="10.323" rx="6.777" ry="10.323" transform="translate(339.692 106.598)" fill="#849280"/>
            <ellipse id="Ellipse_7" data-name="Ellipse 7" cx="6.777" cy="10.323" rx="6.777" ry="10.323" transform="translate(354.213 184.362)" fill="#849280"/>
            <ellipse id="Ellipse_8" data-name="Ellipse 8" cx="6.777" cy="10.323" rx="6.777" ry="10.323" transform="translate(360.99 370.886)" fill="#849280"/>
            <ellipse id="Ellipse_9" data-name="Ellipse 9" cx="6.777" cy="10.323" rx="6.777" ry="10.323" transform="translate(361.958 466.727)" fill="#849280"/>
            <ellipse id="Ellipse_10" data-name="Ellipse 10" cx="6.777" cy="10.323" rx="6.777" ry="10.323" transform="translate(356.956 279.886)" fill="#849280"/>
            <path id="Path_22" data-name="Path 22" d="M1196.646,1140.59l-4.134-.056.652-48.308c0-34.693-11.617-128.035-11.734-128.973l4.1-.513c.116.942,11.766,94.538,11.766,129.513Z" transform="translate(-742.297 -813.172)" fill="#16c18c"/>
            <path id="Path_23" data-name="Path 23" d="M1255.123,822.366s11.538,1.192,17.348,16.681,89.063,249.283,91,262.836,1.453,63.894-26.138,75.511c-19.161,8.069-75.511-20.33-81.319-45.016-7.179-30.515-42.112-249.768-42.112-249.768Z" transform="translate(-755.347 -756.761)" fill="#17d7a0"/>
            <path id="Path_24" data-name="Path 24" d="M1327.616,1179.411c-10.908,0-24.951-5.023-36.128-10.708-16.566-8.428-35.5-22.657-38.947-37.316-7.114-30.239-41.792-247.723-42.141-249.916l-.129-.812,42.381-61.941,1.224.126c.523.054,12.884,1.513,19.071,18.011,4.8,12.809,89.106,249.239,91.111,263.271,1.015,7.114,1.316,23.424-2.02,39.2-4.227,19.986-13,33.3-25.363,38.507A23.418,23.418,0,0,1,1327.616,1179.411Zm-113-297.778c2.342,14.678,35.092,219.648,41.952,248.806,2.575,10.944,17.02,24.518,36.8,34.579,17.358,8.83,33.73,12.365,41.707,9.006,27.562-11.6,26.286-63.563,24.895-73.313-1.9-13.329-86.089-249.6-90.89-262.4-4.256-11.355-11.625-14.359-14.476-15.114Z" transform="translate(-753.888 -755.294)" fill="#16c18c"/>
            <path id="Path_25" data-name="Path 25" d="M1251.525,984.97a41.158,41.158,0,0,1-28.1-11.591l3.038-2.8a35.7,35.7,0,0,0,37.821,7.946c26.692-9.614,27.786-40.231,27.793-40.539l4.133.1a57.035,57.035,0,0,1-4.079,18.1c-5.119,12.771-14.264,21.84-26.446,26.227A41.575,41.575,0,0,1,1251.525,984.97Z" transform="translate(-759.176 -803.222)" fill="#16c18c"/>
          </g>
          <g id="Group_6" data-name="Group 6" transform="translate(400.369 214.648)">
            <path id="Path_26" data-name="Path 26" d="M1219.923,629.61s-10.07,48.114-10.07,58.184,10.07,38.043,17.9,51.471,7.832,39.162,7.832,39.162-13.428,42.518-31.329,43.638-50.352-14.546-50.352-14.546-33.568-6.154-34.686-8.951.559-21.259.559-21.259-6.714-20.141-.559-28.533c0,0-3.916-17.9,0-26.854,0,0-.559-20.7,4.476-24.616s54.826-7.833,54.826-7.833,12.309-44.756,16.784-53.708S1219.923,629.61,1219.923,629.61Z" transform="translate(-1116.624 -629.196)" fill="#ecb380"/>
            <path id="Path_27" data-name="Path 27" d="M1119.364,782.889a2.389,2.389,0,0,1-1.248-4.428c10.492-6.413,43.336-2.141,47.045-1.632a2.389,2.389,0,1,1-.648,4.733c-9.615-1.315-36.246-3.7-43.906.977A2.383,2.383,0,0,1,1119.364,782.889Z" transform="translate(-1116.763 -687.775)" fill="#b77156"/>
            <path id="Path_28" data-name="Path 28" d="M1119.362,828.329a2.389,2.389,0,0,1-.958-4.578c9.218-4.034,40.14-2.107,43.635-1.873a2.39,2.39,0,1,1-.318,4.769c-9.176-.612-34.5-1.536-41.4,1.482A2.376,2.376,0,0,1,1119.362,828.329Z" transform="translate(-1116.763 -706.361)" fill="#b77156"/>
            <path id="Path_29" data-name="Path 29" d="M1120.3,875.426a2.389,2.389,0,0,1-1.114-4.5c11.165-5.876,37.766-2.635,38.892-2.494a2.389,2.389,0,0,1-.593,4.742c-.261-.033-26.233-3.2-36.075,1.982A2.379,2.379,0,0,1,1120.3,875.426Z" transform="translate(-1117.139 -724.926)" fill="#b77156"/>
          </g>
          <g id="Group_7" data-name="Group 7" transform="translate(130.104 221.176)">
            <path id="Path_30" data-name="Path 30" d="M680.444,640.524s10.071,48.114,10.071,58.184-10.071,38.043-17.9,51.47-7.833,39.162-7.833,39.162,13.427,42.519,31.33,43.638,50.351-14.546,50.351-14.546,33.568-6.154,34.686-8.951-.559-21.26-.559-21.26,6.713-20.14.559-28.532c0,0,3.916-17.9,0-26.854,0,0,.56-20.7-4.475-24.616s-54.827-7.832-54.827-7.832-12.308-44.757-16.784-53.708S680.444,640.524,680.444,640.524Z" transform="translate(-664.779 -640.11)" fill="#ecb380"/>
            <path id="Path_31" data-name="Path 31" d="M827.166,793.8a2.374,2.374,0,0,1-1.243-.351c-7.666-4.685-34.293-2.292-43.907-.976a2.389,2.389,0,1,1-.647-4.734c3.71-.508,36.554-4.78,47.046,1.633a2.39,2.39,0,0,1-1.248,4.428Z" transform="translate(-710.802 -698.69)" fill="#b77156"/>
            <path id="Path_32" data-name="Path 32" d="M829.156,839.244a2.4,2.4,0,0,1-.957-.2c-6.9-3.019-32.226-2.1-41.4-1.484a2.389,2.389,0,1,1-.317-4.768c3.495-.233,34.415-2.16,43.635,1.874a2.39,2.39,0,0,1-.959,4.579Z" transform="translate(-712.789 -717.275)" fill="#b77156"/>
            <path id="Path_33" data-name="Path 33" d="M831.6,886.34a2.378,2.378,0,0,1-1.111-.275c-9.841-5.179-35.812-2.013-36.074-1.981a2.389,2.389,0,0,1-.593-4.742c1.125-.141,27.726-3.383,38.892,2.494a2.389,2.389,0,0,1-1.114,4.5Z" transform="translate(-715.797 -735.84)" fill="#b77156"/>
          </g>
          <g id="Group_8" data-name="Group 8" transform="translate(251.044 206.843)">
            <path id="Path_34" data-name="Path 34" d="M970.832,691.7v.01c-1.209,5.964-17.312,38.244-17.83,39.277a.034.034,0,0,0-.009.021l-13.562,36.776L919.1,730.036s-36.559-6.729-52.125-38.43c1.747-12.962,3.763-30.967,4.755-46.916.506-8.114.744-15.669.578-21.778-.641-22.6,94.235,18.708,94.235,18.708s.8,13.1,2.057,27.888q.186,2.248.4,4.527c.269,3.05.569,6.109.878,9.117v.042C970.182,686.128,970.5,688.991,970.832,691.7Z" transform="translate(-866.974 -616.15)" fill="#ecb380"/>
            <path id="Path_35" data-name="Path 35" d="M971.792,669.5c-4.766,6.545-25.26,14.132-37.125,13.152-12.262-1-57.434-36.174-59.749-37.968.506-8.109.751-15.665.582-21.781-.643-22.594,94.238,18.716,94.238,18.716S970.536,654.71,971.792,669.5Z" transform="translate(-870.167 -616.148)" fill="#b77156"/>
          </g>
          <g id="Group_9" data-name="Group 9" transform="translate(214.491 66.406)">
            <path id="Path_36" data-name="Path 36" d="M948.869,387.853s9.681,57.439,11.617,74.219,5.163,36.142,3.873,48.4-11.617,43.241-17.426,49.05-35.5,11.617-41.95,9.681-45.178-25.171-49.7-32.27-17.426-70.993-20.008-77.447,0-41.95,3.872-44.532,41.305-3.227,48.4-7.744,29.689-25.171,37.434-25.816S948.869,387.853,948.869,387.853Z" transform="translate(-817.266 -381.357)" fill="#ecb380"/>
            <path id="Path_37" data-name="Path 37" d="M828.279,533.1s-14.441-10.942-18.837-7.294-4.4,25.528-1.883,30.391,13.186,14.588,18.837,13.372,8.79-8.509,8.79-8.509Z" transform="translate(-805.862 -439.107)" fill="#ecb380"/>
            <path id="Path_38" data-name="Path 38" d="M1042.068,492.544s7.1-6.454,11.615-6.454,5.81,26.461,5.164,30.334-6.777,8.713-6.777,8.713l-5.485-.323Z" transform="translate(-900.785 -423.445)" fill="#ecb380"/>
            <path id="Path_39" data-name="Path 39" d="M985.628,537.513a2.068,2.068,0,0,1-.5-4.073c.968-.242,3.314-2.52,5.18-4.744-2.1-4.491-9.435-20.27-11.132-24.8-2.009-5.359-2.067-25.547-2.067-27.832a2.067,2.067,0,1,1,4.134,0c0,6,.325,22.435,1.8,26.381,1.885,5.027,11.456,25.459,11.554,25.664l.537,1.147-.776,1c-1.164,1.494-5.193,6.431-8.23,7.19A2.1,2.1,0,0,1,985.628,537.513Z" transform="translate(-874.68 -418.587)" fill="#b77156"/>
            <path id="Path_40" data-name="Path 40" d="M965.661,579.77a2.17,2.17,0,0,1-.259-.016,35.759,35.759,0,0,1-10.348-3.107,2.067,2.067,0,0,1,1.847-3.7h0a32.016,32.016,0,0,0,9.014,2.7,2.068,2.068,0,0,1-.254,4.119Z" transform="translate(-865.357 -458.263)" fill="#b77156"/>
            <path id="Path_41" data-name="Path 41" d="M908.573,503.321c6.153-1.184,9.681,19.361,3.227,21.621S900.183,504.935,908.573,503.321Z" transform="translate(-845.383 -430.35)" fill="#1f3444"/>
            <path id="Path_42" data-name="Path 42" d="M874.283,473.709s7.1-9.681,11.295-11.94,23.234-3.549,25.492-3.227-.322,9.359-.322,9.359-19.081-.254-23.235.968C882.028,470.482,874.283,473.709,874.283,473.709Z" transform="translate(-833.358 -412.355)" fill="#543b30"/>
            <path id="Path_43" data-name="Path 43" d="M925.535,601.614s16.781.646,20.008.646,24.525-4.2,27.107-5.809,9.681-6.776,9.681-6.776S973.617,612.909,972,615.168s-20.653,5.163-23.558,4.194S925.535,601.614,925.535,601.614Z" transform="translate(-853.954 -465.073)" fill="#fff"/>
            <path id="Path_44" data-name="Path 44" d="M920.909,611.8a2.067,2.067,0,0,1-2.066-2.068c0-3.968,4.309-8.393,4.8-8.884a2.067,2.067,0,0,1,2.925,2.921h0c-1.491,1.5-3.592,4.338-3.592,5.963A2.067,2.067,0,0,1,920.909,611.8Z" transform="translate(-851.265 -469.32)" fill="#b77156"/>
            <path id="Path_45" data-name="Path 45" d="M1018.976,592.388a2.068,2.068,0,0,1-1.851-1.143c-1.6-3.2-5.3-3.06-5.459-3.055a2.067,2.067,0,0,1-.242-4.127c.265-.015,6.562-.342,9.4,5.332a2.069,2.069,0,0,1-1.848,2.993Z" transform="translate(-887.694 -462.814)" fill="#b77156"/>
            <path id="Path_46" data-name="Path 46" d="M1045.536,525.441h-.073a2.068,2.068,0,0,1-1.995-2.137c.337-9.771,6.787-20.84,7.061-21.307a2.067,2.067,0,0,1,3.563,2.1c-.061.106-6.192,10.643-6.493,19.354A2.066,2.066,0,0,1,1045.536,525.441Z" transform="translate(-901.347 -429.428)" fill="#b77156"/>
            <path id="Path_47" data-name="Path 47" d="M1055.118,526.8c-.061,0-.12,0-.182-.008l-7.422-.645a2.067,2.067,0,1,1,.359-4.119l7.422.645a2.067,2.067,0,0,1-.176,4.127Z" transform="translate(-902.214 -437.883)" fill="#b77156"/>
            <path id="Path_48" data-name="Path 48" d="M837.765,567.644A2.069,2.069,0,0,1,835.8,566.2c-4.072-12.8-17.524-14.694-17.658-14.712a2.067,2.067,0,1,1,.534-4.1c.66.086,16.2,2.282,21.065,17.558a2.07,2.07,0,0,1-1.971,2.7Z" transform="translate(-810.071 -448.073)" fill="#b77156"/>
            <path id="Path_49" data-name="Path 49" d="M829.191,571.3a2.068,2.068,0,0,1-1.8-3.072c1.4-2.528,5.616-6.789,11.5-4.829a2.067,2.067,0,1,1-1.308,3.922c-4.13-1.376-6.477,2.74-6.574,2.915A2.067,2.067,0,0,1,829.191,571.3Z" transform="translate(-814.407 -454.313)" fill="#b77156"/>
            <path id="Path_50" data-name="Path 50" d="M1009.6,491.445c5.7-1.3,7.1,19.039,1.774,20.007S1003.957,492.735,1009.6,491.445Z" transform="translate(-886.392 -425.573)" fill="#1f3444"/>
            <path id="Path_51" data-name="Path 51" d="M984.072,454.03s.484,6.777,4.356,6.777,14.521-2.9,16.942-2.9h8.228s-2.9-8.228-6.777-8.228S984.072,454.03,984.072,454.03Z" transform="translate(-877.478 -408.811)" fill="#543b30"/>
            <path id="Path_52" data-name="Path 52" d="M934.736,602.672c-6.026,0-10.231-.341-10.765-.386a2.067,2.067,0,0,1,.352-4.12c.41.036,41.222,3.324,55.12-11.3a2.067,2.067,0,0,1,3,2.848C971.819,600.888,948.519,602.672,934.736,602.672Z" transform="translate(-852.566 -463.683)" fill="#b77156"/>
          </g>
        </g>
      </g>
    </g>
  </g>
</svg>
