<?xml version="1.0" encoding="UTF-8"?><svg xmlns="http://www.w3.org/2000/svg" viewBox="0 0 280.21 208.55"><defs><style>.d{fill:#fff;}.e{fill:#f9a07b;}.f{fill:#0a2240;}.g{fill:#225570;}.h{stroke:#42cca1;}.h,.i,.j,.k,.l{fill:none;stroke-miterlimit:10;}.m{fill:#9df4d7;}.n{fill:#0b2d50;}.o{fill:#42cca1;}.p{fill:#3c738c;}.i{stroke:#0b2d50;}.i,.j{stroke-width:2px;}.i,.j,.l{stroke-linecap:round;}.j,.l{stroke:#cc454e;}.q{fill:#262d40;}.k{stroke:#9df4d7;}.r{fill:#cc454e;}.s{fill:#e06a58;}.t{fill:#e8729b;}.u{fill:#0b3051;}</style></defs><g id="a"/><g id="b"><g id="c"><g><g><g><path class="k" d="M272.8,106.81v-14.04h-5.32c-.64-2.45-1.61-4.77-2.86-6.9l3.76-3.77-9.93-9.93-3.77,3.76c-2.13-1.25-4.45-2.22-6.9-2.86v-5.32h-14.04v5.32c-2.45,.64-4.77,1.61-6.9,2.86l-3.77-3.76-9.93,9.93,3.76,3.77c-1.25,2.13-2.22,4.45-2.86,6.9h-5.32v14.04h5.32c.65,2.45,1.61,4.77,2.86,6.9l-3.76,3.77,9.93,9.93,3.77-3.76c2.13,1.25,4.45,2.22,6.9,2.86v5.32h14.04v-5.32c2.45-.65,4.77-1.61,6.9-2.86l3.77,3.76,9.93-9.93-3.76-3.77c1.25-2.13,2.22-4.45,2.86-6.9h5.32Zm-32.03,5.14c-6.72,0-12.17-5.45-12.17-12.17s5.45-12.16,12.17-12.16,12.16,5.45,12.16,12.16-5.45,12.17-12.16,12.17Z"/><path class="m" d="M230.38,141.98l-2.67-6.96-2.64,1.01c-.78-1.1-1.71-2.06-2.73-2.88l1.15-2.59-6.81-3.03-1.15,2.58c-1.29-.21-2.63-.26-3.97-.11l-1.01-2.64-6.96,2.67,1.01,2.64c-1.1,.78-2.06,1.71-2.88,2.73l-2.59-1.15-3.03,6.81,2.58,1.15c-.21,1.29-.25,2.63-.11,3.97l-2.64,1.01,2.67,6.96,2.64-1.01c.79,1.09,1.71,2.06,2.73,2.88l-1.15,2.59,6.81,3.03,1.15-2.58c1.29,.21,2.63,.25,3.97,.11l1.01,2.64,6.96-2.67-1.01-2.64c1.09-.79,2.06-1.71,2.88-2.73l2.59,1.15,3.03-6.81-2.58-1.15c.21-1.29,.26-2.63,.11-3.97l2.64-1.01Zm-14.91,8.64c-3.33,1.28-7.07-.39-8.35-3.72-1.28-3.33,.39-7.07,3.72-8.34,3.33-1.28,7.07,.39,8.34,3.72,1.28,3.33-.39,7.07-3.71,8.35Z"/><path class="m" d="M207.58,117.56l-1.8-4.7-1.78,.68c-.53-.74-1.15-1.39-1.85-1.94l.78-1.75-4.6-2.05-.78,1.75c-.87-.14-1.78-.17-2.68-.07l-.68-1.78-4.7,1.8,.68,1.78c-.74,.53-1.39,1.15-1.94,1.85l-1.75-.78-2.05,4.6,1.75,.78c-.14,.87-.17,1.77-.07,2.68l-1.78,.68,1.8,4.7,1.78-.68c.53,.74,1.15,1.39,1.85,1.94l-.78,1.75,4.6,2.05,.78-1.75c.87,.14,1.77,.17,2.68,.07l.68,1.78,4.7-1.8-.68-1.78c.74-.53,1.39-1.15,1.94-1.85l1.75,.78,2.05-4.6-1.75-.78c.14-.87,.17-1.78,.07-2.68l1.78-.68Zm-10.07,5.84c-2.25,.86-4.78-.26-5.64-2.51-.86-2.25,.26-4.77,2.51-5.64,2.25-.86,4.77,.26,5.64,2.51,.86,2.25-.26,4.78-2.51,5.64Z"/></g><g><path class="o" d="M205.94,35.21c0,7.05-3.3,13.34-8.43,17.4-3.78,3-8.55,4.78-13.75,4.78s-9.96-1.78-13.75-4.78c-5.14-4.06-8.43-10.35-8.43-17.4,0-12.25,9.93-22.18,22.18-22.18s22.18,9.93,22.18,22.18Z"/><g><circle class="d" cx="183.76" cy="27.91" r="7.26" transform="translate(-2.04 22.72) rotate(-7.04)"/><path class="d" d="M197.51,49.82c-3.78,3-8.55,4.78-13.75,4.78s-9.96-1.78-13.75-4.78c1.42-6.24,2.72-11.63,4.08-12.99,1.92-1.92,7.01-3.04,9.66-3.04s7.99,1.36,8.97,2.34c2.01,2,3.74,7.54,4.79,13.69Z"/></g></g><g><g><path class="o" d="M151.88,89.88v-10.95c0-2.99,2.42-5.41,5.41-5.41h34.51c2.99,0,5.41,2.42,5.41,5.41v10.95c0,2.99-2.42,5.41-5.41,5.41h-34.5c-2.99,0-5.42-2.42-5.42-5.41Z"/><polyline class="o" points="166.46 89.31 149.76 105.58 176.82 91.9"/></g><g><path class="d" d="M156.07,78.66v-.06c0-.44,.36-.81,.81-.81h17.06c.44,0,.81,.36,.81,.81v.06c0,.44-.36,.81-.81,.81h-17.06c-.44,0-.81-.36-.81-.81Z"/><path class="d" d="M175.51,78.66v-.06c0-.44,.36-.81,.81-.81h14.89c.44,0,.81,.36,.81,.81v.06c0,.44-.36,.81-.81,.81h-14.89c-.44,0-.81-.36-.81-.81Z"/><path class="d" d="M169.01,82.33v-.06c0-.44,.36-.81,.81-.81h21.39c.44,0,.81,.36,.81,.81v.06c0,.44-.36,.81-.81,.81h-21.39c-.44,0-.81-.36-.81-.81Z"/><path class="d" d="M156.07,82.33v-.06c0-.44,.36-.81,.81-.81h9.55c.44,0,.81,.36,.81,.81v.06c0,.44-.36,.81-.81,.81h-9.55c-.44,0-.81-.36-.81-.81Z"/><path class="d" d="M171.98,85.99v-.06c0-.44,.36-.81,.81-.81h18.42c.44,0,.81,.36,.81,.81v.06c0,.44-.36,.81-.81,.81h-18.42c-.44,0-.81-.36-.81-.81Z"/><path class="d" d="M156.07,85.99v-.06c0-.44,.36-.81,.81-.81h12.72c.44,0,.81,.36,.81,.81v.06c0,.44-.36,.81-.81,.81h-12.72c-.44,0-.81-.36-.81-.81Z"/><path class="d" d="M156.07,89.66v-.06c0-.44,.36-.81,.81-.81h4.72c.44,0,.81,.36,.81,.81v.06c0,.44-.36,.81-.81,.81h-4.72c-.44,0-.81-.36-.81-.81Z"/><path class="d" d="M164.07,89.66v-.06c0-.44,.36-.81,.81-.81h26.32c.44,0,.81,.36,.81,.81v.06c0,.44-.36,.81-.81,.81h-26.32c-.44,0-.81-.36-.81-.81Z"/></g></g><g><g><circle class="o" cx="47.36" cy="65.38" r="21.34" transform="translate(-31.9 80.73) rotate(-65.05)"/><g><g><circle class="d" cx="42.33" cy="75.85" r="5.17"/><polygon class="o" points="39.61 77.71 39.37 74.43 42.08 72.57 45.05 74 45.29 77.28 42.58 79.13 39.61 77.71"/></g><g><circle class="d" cx="52.39" cy="54.91" r="5.17"/><polygon class="o" points="49.82 56.45 50 52.28 53.14 49.53 56.11 50.96 55.93 55.13 52.79 57.87 49.82 56.45"/></g><path class="d" d="M45.91,73.46l-3.96-1.9,2.92-6.74c.19-.43,.39-.85,.61-1.26l3.43-6.5,3.96,1.9-2.82,6.64c-.22,.51-.46,1.02-.72,1.51l-3.42,6.35Z"/></g></g><path class="o" d="M62.18,76.86c.76-.35,13.01,.21,13.01,.21l-8.82-8.1-4.18,7.9Z"/></g><g><circle class="o" cx="96.96" cy="20.97" r="20.97" transform="translate(39.22 101.64) rotate(-66.61)"/><g><rect class="d" x="96.26" y="3.1" width="1.4" height="17.61"/><rect class="d" x="88.52" y="17.44" width="1.4" height="17.85" transform="translate(118.32 114.74) rotate(-124.69)"/><path class="d" d="M98.89,20.97c0,1.07-.86,1.93-1.93,1.93s-1.93-.86-1.93-1.93,.86-1.93,1.93-1.93,1.93,.86,1.93,1.93Z"/></g></g></g><g><g><g><path class="o" d="M153.9,162.98c-1.24-19.17,7.14-39.02,21.27-50.37,.44,19.27-7.87,38.77-21.27,50.37Z"/><path class="o" d="M172.87,117.77c-5.95,11.09-11.1,22.7-15.38,34.68-5.2,14.54-9.29,29.99-18.19,42.18"/></g><g><path class="o" d="M149.44,175.04c7.15-16,21.34-28.08,36.99-31.5-6.66,17.14-21.65,30.22-36.99,31.5Z"/><path class="o" d="M182.6,147.06c-10.69,9.41-21.56,18.55-32.61,27.42"/></g><g><path class="o" d="M145.22,188.98c9.55-14.27,27.18-21.72,41.77-17.65-10.73,14.09-28.39,21.56-41.77,17.65Z"/><path class="o" d="M183.49,172.36c-12.52,7.83-26.03,13.62-39.96,17.1"/></g><g><path class="o" d="M150.38,170.19c3.05-16.07-1.53-33.98-11.73-45.83-4.18,15.79-.19,34.29,11.73,45.83Z"/><path class="o" d="M139.71,128.46c2.01,14.95,5.59,28.95,11.13,42.63"/></g><g><path class="o" d="M145.14,183.88c-1.3-16.52-9.77-32.03-22.15-40.59,.72,8.75,3.04,17.18,6.73,24.85,4.25,8.81,10.48,14.39,15.42,15.75Z"/><path class="o" d="M124.83,146.62c4.87,13.77,11.88,26.54,20.62,37.6"/></g></g><g><g><path class="o" d="M240.77,179.91c6.76-17.58,22.3-31.85,39.45-36.19-7.51,17.34-22.85,31.32-39.45,36.19Z"/><path class="o" d="M276.06,147.38c-9.81,7.45-19.12,15.69-27.81,24.62-10.55,10.84-20.51,22.92-33.37,30.15"/></g><g><path class="o" d="M231.88,188.84c12.88-11.33,30.38-16.31,45.61-12.97-12.91,12.56-31.52,18.09-45.61,12.97Z"/><path class="o" d="M272.65,177.45c-13.3,4.02-26.66,7.72-40.06,11.12"/></g><g><path class="o" d="M222.44,199.53c14.3-8.81,32.93-8.25,44.15,1.33-15.26,8.17-33.93,7.61-44.15-1.33Z"/><path class="o" d="M263.08,200.34c-14.28,1.87-28.6,1.51-42.33-1.08"/></g><g><path class="o" d="M234.7,184.9c9.28-13.07,12.58-30.89,8.42-45.61-10.17,12.36-14.23,30.47-8.42,45.61Z"/><path class="o" d="M242.37,143.36c-4.36,14.14-6.93,28.06-7.63,42.52"/></g><g><path class="o" d="M224.46,194.95c5.62-15.24,4.5-32.52-2.94-45.2-2.95,8.09-4.36,16.54-4.23,24.88,.14,9.57,3.36,17.1,7.17,20.32Z"/><path class="o" d="M221.77,153.47c-1.34,14.26-.38,28.5,2.82,41.91"/></g></g><g><path class="o" d="M49.23,149.17c-6.89-21.07-26.12-38.1-48.48-42.93,9.4,18.23,26.46,32.74,48.48,42.93Z"/><path class="o" d="M50.39,152.44c-15.09-8.53-34-10.42-50.39-5.02,15.2,7.59,33.22,9.71,50.39,5.02Z"/><path class="o" d="M54.57,157.01c-16.31-2.26-33.39,1.76-46.64,10.98,15.02,5.46,33.04,1.92,46.64-10.98Z"/><path class="o" d="M59.65,166.99c-16.15-.07-32.03,7.61-41.53,20.07,7.19,1.44,14.82,.58,21.42-2.41,6.59-2.99,12.12-8.08,20.11-17.67Z"/><path class="o" d="M71.04,183.7c-15.93-2.73-32.9,2.2-44.38,12.91,6.85,2.6,14.53,3.02,21.54,1.17,7.01-1.85,13.33-5.96,22.84-14.08Z"/><path class="o" d="M53.85,150.17c-10.52-14.18-13.37-33.28-7.4-49.53,4.56,7.73,8.5,15.9,10.34,24.58,1.84,8.68,1.48,17.94-2.94,24.95Z"/><path class="o" d="M60.27,163.85c-2.49-15.06,2.66-31.02,13.54-41.93,1.25,15.58-3.52,31.45-13.54,41.93Z"/><g><path class="h" d="M5.64,110.02c32.01,20.48,57.04,51.01,70.26,85.69"/><path class="o" d="M47.44,108.12c3.89,15.81,6.26,31.95,7.06,48.14"/><path class="o" d="M71.42,128.03c-1.28,12.76-5.22,25.22-11.51,36.45"/><path class="o" d="M6.74,147.79c14.67,2.79,29.59,4.3,44.51,4.53"/><path class="o" d="M15.58,166.74c13.53-.98,26.84-4.26,39.15-9.65"/><path class="o" d="M23.69,184.79c12.49-6.23,24.97-12.46,37.46-18.69"/><path class="o" d="M31.81,195.79c16.3-3.15,21.14-6.9,39.24-12.09"/></g></g></g><g><path class="s" d="M135.01,165.93s1.41,12.93,2.99,13.97c2.82,1.86,35.49,6.17,35.49,6.17l-1.07,8.5s-44.74,4.02-46.64,1.78c-3.3-3.88-9.1-22.59-9.1-22.59l18.33-7.83Z"/><path class="o" d="M113.44,132.64l3.61-8.68s9.81,4.61,13.04,10.3c3.46,6.08,7.69,38.42,7.69,38.42,0,0-17.31,3.99-20.49,2.29-3.18-1.69-3.85-42.33-3.85-42.33Z"/></g><path class="f" d="M85.91,92.37c-2.53-.93-5.21-1.74-7.92-1.53s-5.48,1.64-6.4,4.03c-.66,1.69-.35,3.68-1.39,5.2-.99,1.46-2.96,2.06-4.81,2.18-1.85,.13-3.71-.12-5.55,.12-5.67,.75-9.72,6.91-7.85,11.96,.74,2.01,2.26,3.93,1.91,6.02-.37,2.24-2.72,3.72-3.69,5.8-1.28,2.77,.25,6.13,2.78,8.01,2.53,1.88,5.82,2.6,9.02,3.07,4.4,.66,8.94,.97,13.29,.04s8.5-3.22,10.75-6.8c1-1.58,1.6-3.38,2.76-4.86,2.4-3.07,6.64-4.26,9.99-6.44,3.65-2.39,6.33-7.04,4.18-10.68-2.07-3.5-7.47-4.28-9.64-7.72-.9-1.42-1.11-3.12-1.69-4.67-.59-1.56-2.01-2.35-5.75-3.72Z"/><g><path class="e" d="M100.67,135.28c.64,.73,1.39,1.54,2.44,1.61,1.1,.08,2.02-.7,2.73-1.46,3.66-3.87,6.08-8.63,7.05-13.53-.91-.52-1.78-1.01-2.58-1.48-.73-.44-1.29-1.05-1.6-1.77-.22-.53-.3-1.08-.24-1.66,.52-4.84,.97-7.54,2.67-12.46-8.08-1.82-15.7-3.99-20.08-7.65-.53,2.25-1.17,6.67-2.51,11.04-1.44,4.63-3.68,9.21-7.48,11.18,7.46,4.41,14.12,9.88,19.6,16.16Z"/><path class="s" d="M108.47,117.01c-.06,.58,.02,1.14,.24,1.66-4.78,5.8-15.47-1.78-20.16-10.73,1.35-4.37,1.98-8.79,2.51-11.04,4.37,3.66,12,5.83,20.08,7.65-1.7,4.92-2.16,7.61-2.67,12.46Z"/></g><g><path class="o" d="M121.78,187.1c-1.06,7,6.49,14.53,6.68,18.26-16.04,0-49.63,.98-66.73-1.35-.78-4.32,7.67-14.03,7.67-23.61,0-1.27-.05-2.66-.15-4.16-.27-4.28-.9-9.37-1.6-14.59-1.91-14-4.45-28.97-2.57-32.08,3.67-6.05,12.26-10.16,16.52-11.93,1.46-.61,2.42-.93,2.49-.97,5.34,9.11,16.21,16.88,20.31,16.53,1.14-.09,4.52-1.27,6.76-12.52,.87,.5,1.74,.95,2.6,1.4,4.25,2.21,8.23,4.03,9.37,6.87,3.03,7.48,6,26.34,5.34,33.04-.66,6.76-3.38,11.93-5.29,18.72-.44,1.59-.85,3.28-1.18,5.1-.08,.41-.15,.83-.21,1.27Z"/><path class="o" d="M128.46,205.37c-16.04,0-49.63,.98-66.73-1.35-.78-4.32,7.67-14.03,7.67-23.61,0-1.27-.05-2.66-.15-4.16-.27-4.28-.9-9.37-1.6-14.59,3.03,3.2,7.46-10.33,9.42-6.37,10.6,21.39,18.95,27.01,33.48,27.01,4.33,0,8.32-.6,12.64-1.58-.44,1.59-.85,3.28-1.18,5.1-.08,.41-.15,.84-.21,1.28-1.06,6.98,6.49,14.52,6.68,18.26Z"/><path class="o" d="M113.74,122.1c-.69,5.01-2.73,11.75-8.67,13.53-8.03,2.4-19.64-12.6-23.49-17.96,1.46-.61,2.42-.93,2.49-.97,5.34,9.11,16.21,16.88,20.31,16.53,1.14-.09,4.52-1.27,6.76-12.52,.87,.49,1.74,.95,2.6,1.4Z"/></g><g><g><polygon class="n" points="117.04 197.84 116.98 203.42 216.85 204.02 217.05 197.68 117.04 197.84"/><g><polygon class="n" points="260.13 148 257.9 145.75 185.17 145.27 148.68 198.04 150.58 199.58 260.13 148"/><polygon class="n" points="186.57 147.22 150.58 199.58 219.33 199.92 260.13 148 186.57 147.22"/></g></g><ellipse class="p" cx="203.94" cy="176.64" rx="8" ry="4"/></g><g><path class="u" d="M118.52,95.54c1.13-6.08,5.31-10.41,9.32-9.66,4.01,.75,6.35,6.29,5.21,12.37-1.13,6.08-5.31,10.41-9.32,9.66-4.01-.75-6.35-6.29-5.21-12.37Z"/><path class="n" d="M133.06,79.16c-.75,5.3-3.11,11.13-6.56,17.58-1.21-5.28-1.98-11.72-3.05-18.16-1.09-6.45-2.47-12.9-4.88-18.17-.54-1.17-1.13-2.28-1.77-3.31,1.42-.14,2.87,0,4.24,.38,2.15,.57,4.16,1.68,5.8,3.16,2.73,2.43,4.56,5.74,5.65,9.23,.9,2.9,1.06,5.98,.57,9.28Z"/><g><path class="e" d="M129.01,84.63c-.04,1.04-.11,2.11-.21,3.16-1.47,17.14-8.67,28.9-19.68,28.9-15.55,0-25.62-17.43-25.62-34.51s10.32-29.04,22.4-27.63c6.96,.8,12.05,3.11,15.67,6.5,2.39,2.25,4.12,4.98,5.3,8.08,1.35,3.47,2,7.4,2.13,11.64,0,.01,.01,.03,.01,.04,.05,1.25,.04,2.53,0,3.83Z"/><path class="s" d="M129.01,84.63c-.46-1.66-1.15-3.27-2.09-4.72-9.17,4.79-20.09,6.64-30.45,4.89-1.97,1.64-3.9,3.26-5.84,4.88,.04-7.8,.15-13.07,3.19-16.85,2.85-3.54,7.62-4.88,12.12-5.46,5.08-.66,10.24-.64,15.3,.1,1.94,.27,3.95,.69,5.64,1.67,1.35,3.47,2,7.4,2.13,11.64,0,.01,.01,.03,.01,.04,.05,1.24,.03,2.51-.01,3.82Z"/></g><path class="n" d="M131.26,74.08c-2.13,1.8-4.81,3.3-7.81,4.51-8.54,3.45-19.64,4.59-28.3,4.17-4.25,9.34-5.97,12.69-7.06,20.84-4.16-3.9-7.54-11.04-8.54-16.65-.99-5.59-.9-11.46,.66-16.96,2.45-8.67,8.65-13.3,12.94-15.56,1.07-.59,2.04-.99,2.78-1.29,5.48-2.12,11.66-1.93,17.29-.21,3.07,.95,5.65,2.56,7.82,4.55,4.39,3.96,7.1,9.33,8.85,13.35,.55,1.23,1,2.35,1.37,3.24Z"/><path class="g" d="M133.06,79.16c-.35-1.87-.88-3.69-1.63-5.44-.42-.99-.93-1.95-1.53-2.88-1.95-3.07-4.79-5.59-8.23-6.71-.98-1.37-2.01-2.61-3.09-3.7-3.9-3.96-8.47-6.23-13.32-7.02-4.03-.65-8.23-.28-12.1,1.03,1.07-.59,2.04-.99,2.78-1.29,5.48-2.12,11.66-1.93,17.29-.21,3.07,.95,5.65,2.56,7.82,4.55,2.15,.57,4.16,1.68,5.8,3.16,2.73,2.43,4.56,5.74,5.65,9.23,.89,2.9,1.05,5.98,.56,9.28Z"/><g><g><path class="i" d="M100.11,89.67c2.87-1.64,5.86-2.38,10.04-.86"/><path class="i" d="M119.78,89.55c2.46-1.84,6.11-2.02,8.01,0"/><path class="j" d="M116.81,98.92c.25,1.3,.12,4.18-.5,5.48"/><ellipse class="q" cx="107.1" cy="97.93" rx="1.19" ry="1.87"/><ellipse class="q" cx="122.6" cy="97.06" rx="1.19" ry="1.87"/></g><g><path class="r" d="M115.34,106.94s-.23,.45-.68,1.06c-.7,.93-1.88,2.22-3.5,2.73h0c-.68,.22-1.42,.3-2.25,.15-2.42-.43-3.06-2.67-3.18-4.39-.03-.34-.03-.64-.02-.93,.01-.7,.09-1.16,.09-1.16,3.86,2.13,9.54,2.54,9.54,2.54Z"/><path class="d" d="M115.34,106.94s-.23,.45-.68,1.06c-1.97-.03-6-1.04-8.95-2.44,.01-.7,.09-1.16,.09-1.16,3.86,2.13,9.54,2.54,9.54,2.54Z"/><path class="t" d="M111.16,110.72c-.68,.22-1.42,.3-2.25,.15-2.42-.43-3.06-2.67-3.18-4.39,1.17,.14,2.31,.59,3.25,1.31,.99,.75,1.74,1.78,2.18,2.93Z"/></g></g><g><path class="o" d="M88.13,86.71s-.14-8.03,3.21-16.02c4.19-10.02,12.74-14.3,21.04-14.59,9.99-.35,16.25,6.35,16.25,6.35,0,0-3.25-5.74-9.67-7.39-4.21-1.08-10.57-1.26-15.67,.82-5.26,2.13-11.81,8.05-14.18,14.31-2.36,6.26-3.52,16-3.52,16l2.55,.52Z"/><g><ellipse class="u" cx="86.74" cy="95.89" rx="7.79" ry="11.8" transform="translate(-9.45 9.48) rotate(-5.94)"/><path class="u" d="M83.35,87.95c2.76-.42,5.59,3.19,6.32,8.05,.73,4.86-.92,9.13-3.68,9.55-2.76,.42-5.59-3.19-6.32-8.05-.73-4.86,.92-9.13,3.68-9.55Z"/></g><g><ellipse class="n" cx="112.44" cy="114.35" rx="4.15" ry="2.58"/><path class="n" d="M91.59,105.71s6.09,7.83,16.69,8.64"/></g></g></g><g><g><g><path class="e" d="M116.98,182.92l-.4,10.3s-37.26,11.16-43.41,7.63c-3-1.73-5.8-11.22-7.9-20.49-2.19-9.74-3.59-19.22-3.59-19.22l21.84-4.28s.01,13.32,.75,21.02c.26,2.87,.64,4.95,1.15,5.3,1.93,1.27,31.56-.25,31.56-.25Z"/><path class="s" d="M84.28,177.86c-3.97,1.29-11.63,3.28-19,2.49-2.19-9.74-3.59-19.22-3.59-19.22l21.84-4.28s.01,13.31,.75,21.01Z"/></g><g><path class="e" d="M115.92,183.03c5.54-1.19,14.92-4.03,18.81-5.01,2.76-.7,9.96,3.03,11.86,6.54,.83,1.53,1.62,10.22-1.26,9.32-1.44-.45-1.2-4.17-1.66-5.7-.37-1.24-1.54-2.44-3.32-3.47,1.19,2.97,1.15,5.56,1.02,8.77-.03,.71-.07,1.45-.41,2.06-.35,.61-1.1,1.05-1.74,.78-.66-.27-.88-1.09-1.03-1.8-.51-2.47-1.02-4.95-1.23-7.74,.05,2.75,0,5.51-.18,8.25-.13,2.1-1.17,3.25-2.45,2.89-.57-.16-.81-.69-1.05-1.39-.39,1.35-1.35,2.83-2.6,2.27-.76-.34-1.23-3.09-1.1-5.91-2.4,1.49-5.1,2.12-8.22,2.26-2.8,.13-5.66-.39-7.34-2.29,.17-2.97,1.15-7.36,1.91-9.83Z"/><path class="l" d="M133.33,196.1c.19-2.23,0-4.49-.57-6.64"/></g></g><path class="o" d="M81.07,135.25c-1.58-4.46-7.39-13.6-7.39-13.6,0,0-8.86,3.69-12,9.94-5.32,10.59-2.62,41-2.62,41,7.17,3,21.56,3.05,27.69,2.18,0,0-2.51-30.6-5.68-39.53Z"/></g><rect class="n" x="17.78" y="202.18" width="254.02" height="6.37"/></g></g></g></svg>