<?xml version="1.0" encoding="UTF-8"?><svg xmlns="http://www.w3.org/2000/svg" viewBox="0 0 234.56 135.74"><defs><style>.d{fill:#0caf7d;}.e{fill:#fff;}.f{fill:#16bf87;}.g{fill:#fffcfd;}.h{fill:#17d7a0;}.i{opacity:.54;}.i,.j{fill:#efefef;}.k{fill:#002434;}</style></defs><g id="a"/><g id="b"><g id="c"><g><path class="j" d="M163.49,34.33c.13,.28,.23,.45,.28,.64,.3,1.03,.88,1.79,1.77,2.29,.13,.07,.19,.29,.29,.44-.18,.05-.39,.19-.55,.14-1-.31-2.07-2.15-1.93-3.25,0-.05,.05-.09,.14-.27Z"/><path class="j" d="M155.96,42.99c-.94,.15-1.91-.37-2.36-1.3-.24-.48-.48-1-.09-1.64,.32,.65,.51,1.31,.91,1.78,.39,.47,.99,.75,1.54,1.16Z"/><path class="j" d="M160.17,36.91s.06-.23,.15-.27c.09-.04,.25,.07,.35,.15,.38,.36,.76,.72,1.12,1.11,.13,.14,.18,.36,.27,.55-.21,.02-.44,.11-.62,.05-.67-.25-1.25-.97-1.26-1.59Z"/><path class="j" d="M168.67,29.74c.81-.64,1.74-.67,2.69-.51,.1,.02,.18,.2,.26,.3-.09,.07-.17,.2-.26,.2-.89,.01-1.79,0-2.69,0Z"/><path class="j" d="M170.19,39.34c.15,.13,.25,.18,.31,.26,.2,.29,.4,.58,.56,.89,.06,.12,.01,.31,.01,.46-.13,0-.34,.05-.39-.03-.25-.37-.48-.75-.67-1.16-.04-.08,.1-.26,.18-.44Z"/><path class="j" d="M166.06,36.96c-.78-.04-1.25-.65-1.14-1.4,.37,.46,.73,.9,1.14,1.4Z"/><path class="j" d="M169.35,40.16c.2,.38,.35,.67,.53,1.01-.62-.05-.83-.43-.53-1.01Z"/><g><circle class="i" cx="104.98" cy="81.46" r="54.28"/><ellipse class="j" cx="103.76" cy="125.63" rx="39.41" ry="9.86"/><g><path class="k" d="M126.05,122.22c-.05-.13-.14-.25-.24-.35-.14-.14-.28-.23-.45-.31-.15-.07-.31-.1-.47-.14-.16-.03-.32-.03-.47-.02-.12,0-.24,.01-.36,.03-.38,.07-.75,.17-1.09,.36-.17,.1-.34,.21-.49,.34-.06,.05-.12,.12-.18,.17-.13,.12-.26,.26-.36,.41-.19,.24-.35,.49-.51,.75-.03,.05-.06,.1-.09,.14-.05-.23-.1-.47-.16-.71-.11-.48,.27-.67,.14-1.15-.06-.23-.09-.65-.14-.88-.05-.22-.1-.59-.13-.82-.07-.49-.28-.81-.34-1.31-.12-.95-.24-1.84-.38-2.79-.14-1.01-.28-1.97-.41-2.98-.12-.98-.13-1.84-.25-2.81-.12-.97-.13-2.1-.23-3.07-.1-.98-.24-1.57-.34-2.54-.05-.49-.1-1.37-.17-1.85-.06-.49-.28-.88-.35-1.37-.14-.9-.12-1.97-.26-2.87-.17-1.02-.44-2.39-.61-3.4-.31-1.86-.28-3.23-.62-5.08l-.14-.45-1.35,.22c.28,1.56,.53,3.14,.77,4.71,.31,1.96,.62,3.93,.92,5.9,.07,.5,.15,1,.22,1.51,.07,.49,.12,.98,.19,1.47,.11,.96,.2,1.94,.3,2.9,.05,.49,.1,.98,.15,1.47,.05,.49,.11,.98,.16,1.47,.11,.96,.24,1.93,.34,2.9,.11,.99,.24,1.97,.37,2.95,.06,.47,.12,.93,.18,1.39,.06,.44,.11,.88,.16,1.32l.17,1.48c.06,.48,.11,.97,.18,1.45v.05c.05,.24,.09,.47,.15,.71,.06,.23,.12,.46,.18,.68,.11,.44,.22,.89,.3,1.34,.09,.42,.17,.84,.24,1.26,.03,.15,.07,.31,.17,.43,.07,.08,.15,.17,.25,.2,.11,.03,.2,.06,.32,.04,.27-.04,.44-.25,.57-.46,.13-.21,.23-.44,.34-.66,.11-.2,.22-.39,.35-.57,.14-.2,.29-.4,.45-.58,.14-.13,.27-.26,.43-.37,.16-.09,.33-.16,.49-.22,.21-.05,.41-.09,.62-.1,.12,0,.23,.01,.34,.04,.06,.02,.11,.04,.16,.06l.07,.05s.01,.02,.03,.03c0,.03,0,.05,0,.08,0,.01,0,.02,0,.03,0,.01,0,.02-.01,.03-.09,.15-.2,.27-.31,.4-.27,.27-.56,.52-.87,.74-.17,.13-.35,.25-.53,.37-.23,.15-.45,.3-.68,.46-.47,.32-.95,.63-1.43,.94-.04,0-.08,0-.12,0-.13,.02-.23,.09-.32,.19-.05,.07-.11,.14-.13,.22-.03,.08-.04,.16-.02,.25,.02,.13,.09,.23,.19,.32,.15,.12,.37,.14,.54,.06,.11-.04,.2-.11,.29-.17,.1-.06,.19-.13,.29-.2,.2-.14,.4-.28,.6-.41,.39-.27,.78-.54,1.17-.81,.22-.15,.44-.3,.66-.46,.26-.19,.51-.39,.74-.61,.24-.23,.49-.48,.67-.76,.1-.16,.16-.32,.19-.5,.01-.09,0-.18,0-.27,0-.08-.03-.18-.06-.26Zm-9.87-59.21s0,.08,0,.12c.02,.01,.04,.02,.06,.03v-.1s-.02-.03-.06-.05Zm0,.48c0,.07,0,.14,0,.21,0,.22,0,.45,0,.68,.19,.29,.42,.59,.7,.88-.11-.58-.33-1.16-.68-1.76Zm.53,2.57c-.22-.25-.42-.51-.57-.76-.01,.39-.04,.78-.06,1.17-.04,.63-.1,1.26-.13,1.9,0,.1-.01,.19-.01,.29-.02,.27-.03,.54-.04,.81,0,.13,0,.25,0,.38,0,.1-.01,.2-.01,.3,0,.25-.01,.51-.01,.76h0c0,.34,0,.67-.02,.99,0,.02,0,.04,0,.06,0,.18-.02,.37-.02,.55-.02,.33-.03,.66-.04,.99,0,0,0,.02,0,.02,0,.05,0,.1,0,.15,.03-.09,.08-.16,.15-.22,0-.11,0-.18,0-.22,.05-.51,.13-1.02,.23-1.52l.02,.04c.03-.12,.14-.64,.17-.78-.01,.02-.03,.04-.04,.05,.05-.19,.1-.38,.14-.57-.1-.37-.17-.74-.07-1.13,0,.05,.02,.09,.03,.14,.05-.18,.09-.36,.14-.54,0-.01,0-.02,.01-.03,.5-.75,.28-1.85,.41-1.87,0-.11,0-.23-.03-.35,.01-.22,.02-.43,.01-.64-.07,.01-.16,.02-.25,.01Zm-.81,9.08c-.05,.06-.1,.12-.13,.18,0-.13,.02-.27,.03-.42,0-.03-.03-.13-.06-.27,0,.24,0,.49,0,.73,0,.07,0,.15,0,.22,0,.04,0,.08,0,.12,0,.09,0,.19,0,.29,.05,.14,.13,.28,.22,.41,.02,.03,.03,.06,.04,.09-.04-.45-.08-.9-.1-1.36h0Zm-5.89-12.47c-.04,.17-.08,.34-.12,.5,.02,0,.04-.01,.06-.02,.08-.03,.16-.06,.24-.09-.05-.13-.11-.26-.18-.39Z"/><path class="k" d="M81.96,121.72c-.02,.09-.05,.18-.05,.27,0,.18,.03,.35,.1,.52,.13,.31,.33,.6,.53,.86,.19,.26,.4,.5,.63,.72,.19,.19,.38,.37,.58,.56,.34,.33,.68,.66,1.02,.99,.18,.17,.35,.34,.52,.51,.09,.08,.17,.16,.25,.24,.08,.07,.16,.15,.26,.21,.16,.11,.37,.13,.55,.03,.11-.06,.2-.15,.24-.28,.03-.09,.03-.17,.02-.25,0-.09-.05-.16-.09-.24-.06-.11-.15-.2-.28-.24-.04-.01-.08-.02-.12-.02-.42-.38-.84-.77-1.25-1.17-.19-.19-.39-.38-.59-.57-.15-.15-.31-.3-.46-.45-.27-.27-.51-.56-.73-.88-.09-.14-.18-.29-.24-.45,0-.01,0-.02,0-.03,0-.01,0-.02,0-.03,0-.03,.01-.05,.02-.08,.01,0,.02-.02,.03-.03l.08-.04c.05,0,.11-.02,.17-.03,.11,0,.22,0,.34,.02,.2,.05,.4,.12,.59,.21,.15,.09,.31,.19,.45,.3,.13,.14,.25,.28,.36,.44,.13,.21,.24,.43,.35,.65,.09,.21,.17,.41,.24,.62,.07,.23,.14,.47,.23,.71,.09,.23,.23,.47,.49,.55,.11,.04,.21,.03,.32,.01,.11-.02,.2-.09,.28-.16,.12-.1,.18-.25,.23-.39,.14-.4,.29-.8,.45-1.2,.16-.43,.34-.85,.53-1.27,.1-.22,.2-.43,.29-.64,.1-.23,.18-.45,.26-.68l.02-.05c.16-.46,.29-.93,.42-1.4l.42-1.43c.12-.43,.24-.85,.38-1.27,.14-.45,.28-.89,.41-1.34,.29-.95,.58-1.9,.86-2.85,.27-.94,.56-1.87,.83-2.8,.13-.47,.28-.95,.4-1.42,.13-.47,.26-.95,.39-1.43,.26-.94,.51-1.88,.79-2.81,.14-.47,.28-.95,.43-1.42,.16-.49,.32-.97,.47-1.45,.64-1.89,1.27-3.78,1.9-5.66,.51-1.51,1.01-3.02,1.55-4.51l-1.3-.44-.21,.42c-.65,1.77-.85,3.12-1.46,4.91-.33,.97-.83,2.28-1.17,3.25-.29,.86-.46,1.92-.74,2.79-.15,.47-.43,.82-.57,1.29-.14,.47-.34,1.32-.47,1.8-.26,.94-.5,1.5-.76,2.44-.26,.94-.46,2.05-.74,2.99-.29,.94-.44,1.78-.72,2.73-.3,.97-.6,1.9-.9,2.87-.29,.91-.57,1.77-.84,2.69-.14,.47-.4,.76-.55,1.23-.07,.22-.18,.57-.27,.79-.09,.22-.19,.63-.29,.85-.21,.45,.14,.7-.06,1.16-.1,.23-.19,.45-.28,.68-.02-.05-.04-.1-.06-.16-.11-.29-.23-.56-.37-.82-.08-.16-.18-.32-.29-.46-.05-.07-.1-.14-.15-.2-.12-.15-.27-.29-.42-.41-.3-.24-.66-.41-1.02-.54-.11-.04-.23-.06-.35-.09-.15-.03-.31-.06-.47-.06-.16,0-.33,.01-.49,.05-.18,.05-.34,.11-.5,.23-.12,.08-.22,.18-.29,.31-.04,.07-.09,.17-.1,.25Zm19.73-56.92v.1s.03-.01,.05-.02c0-.04,.01-.08,.02-.12-.04,0-.07,.02-.07,.04Zm-.97,2.06c.32-.24,.6-.49,.83-.75,.03-.23,.07-.45,.11-.67,.01-.07,.02-.14,.03-.2-.45,.53-.77,1.07-.97,1.62Zm-.23,.77c-.04,.21-.07,.42-.1,.64-.04,.11-.07,.23-.09,.34,.13,.04-.28,1.09,.09,1.92,0,.01,0,.02,0,.03,.02,.19,.03,.37,.04,.55,.02-.04,.04-.08,.05-.13,.03,.4-.1,.75-.26,1.1,.01,.2,.03,.39,.04,.59-.01-.02-.02-.04-.03-.06,0,.14,.03,.67,.04,.8l.03-.04c.01,.51,.01,1.02-.02,1.53,0,.03-.01,.11-.03,.22,.06,.07,.09,.15,.11,.24,.01-.05,.02-.1,.02-.14,0,0,0-.02,0-.02,.04-.33,.09-.66,.13-.99,.03-.18,.05-.37,.07-.55,0-.02,0-.04,.01-.06,.04-.32,.1-.65,.14-.98h0c.04-.26,.08-.51,.12-.76,.02-.1,.03-.2,.04-.3,.02-.12,.04-.25,.05-.38,.03-.26,.06-.54,.09-.81,.02-.1,.02-.19,.04-.29,.07-.63,.12-1.26,.19-1.89,.04-.39,.08-.78,.14-1.16-.19,.23-.43,.45-.69,.66-.09,0-.17-.03-.24-.05Zm-.5,9.15c-.09,.44-.2,.88-.32,1.32,.02-.03,.04-.06,.06-.08,.11-.12,.22-.24,.29-.37,.02-.1,.03-.19,.05-.28,0-.04,.01-.08,.02-.12,.01-.07,.03-.14,.04-.21,.04-.24,.09-.48,.12-.72-.05,.13-.09,.23-.1,.26-.01,.15-.03,.29-.04,.41-.02-.06-.05-.13-.1-.2h0Zm7.67-10.95c.07,.05,.14,.09,.22,.13,.02,.01,.04,.02,.06,.03-.01-.17-.02-.34-.03-.51-.09,.11-.17,.23-.24,.35Z"/><path class="k" d="M154.87,61.46c-.05-.52-.11-1.04-.21-1.55-.09-.47-.19-.93-.35-1.38-.17-.5-.38-.99-.62-1.45-.46-.85-1.12-1.53-1.75-2.24-.33-.37-.73-.69-1.16-.92-.29-.15-.6-.24-.92-.21-.34,.03-.61,.13-.92,.27-.2,.1-.4,.23-.6,.36-.84,.57-1.62,1.25-2.39,1.9-1.44,1.22-2.71,2.64-3.9,4.1-1.26,1.57-2.55,3.12-3.77,4.72-.26,.35-.53,.7-.8,1.05s-.55,.69-.82,1.04c-.13,.17-.27,.33-.41,.5-.13,.15-.26,.32-.4,.47-.09-.29-.16-.59-.25-.87-.13-.42-.26-.84-.39-1.26-.29-.92-.6-1.84-.93-2.73-.33-.92-.74-1.81-1.19-2.68-.36-.69-.77-1.35-1.18-2.02l-.52,2.15c.06,.09,.11,.17,.15,.26,.35,.64,.66,1.3,.95,1.96,.65,1.72,1.22,3.47,1.71,5.25,.06,.2,.12,.41,.18,.62,.07,.23,.11,.46,.21,.68,.07,.15,.14,.26,.25,.39,.11,.13,.24,.24,.38,.33,.11,.08,.42,.15,.55,.15,.02,0,.06,0,.09,0,.16,0,.33-.05,.47-.13,.29-.13,.53-.34,.76-.56,.26-.25,.5-.55,.74-.82,.65-.73,1.24-1.52,1.84-2.3,.16-.22,.33-.44,.51-.65,.55-.72,1.13-1.41,1.7-2.12,.6-.74,1.19-1.48,1.8-2.22,.34-.41,.69-.82,1.04-1.21,.33-.38,.68-.75,1.03-1.12,.11-.13,.24-.24,.36-.36,.18-.17,.35-.36,.54-.52,.12-.11,.25-.23,.38-.34,.04,.16,.11,.32,.18,.47,.1,.22,.23,.42,.36,.63,.29,.45,.61,.86,.94,1.28,.57,.74,1.17,1.47,1.81,2.15,.62,.67,1.25,1.32,2.02,1.82,.28,.18,.6,.31,.94,.33,.31,.02,.6-.05,.86-.24,.28-.2,.48-.47,.59-.8,.08-.27,.12-.55,.15-.82,.03-.44,.04-.89,0-1.33Zm-1.77,1.22s-.09-.07-.13-.09c-.8-.65-1.48-1.44-2.16-2.21-.49-.55-.95-1.13-1.41-1.71-.25-.34-.49-.69-.69-1.06v-.02c.02-.07,.03-.14,.03-.21,0-.14-.04-.27-.11-.39-.05-.08-.11-.15-.19-.21,.12-.1,.24-.2,.36-.29,.19-.14,.37-.28,.56-.41,.21-.14,.42-.29,.65-.42,.07,.05,.15,.09,.22,.14,.25,.22,.47,.47,.71,.72,.25,.26,.49,.54,.72,.82,.14,.2,.27,.39,.39,.6,.13,.22,.24,.46,.34,.69,.15,.41,.29,.82,.4,1.26,.11,.42,.18,.86,.24,1.28,.06,.51,.1,1.02,.07,1.53Z"/><path class="k" d="M52.64,62.79c.02,.28,.07,.55,.15,.82,.11,.33,.31,.6,.59,.8,.25,.19,.55,.26,.86,.24,.33-.02,.66-.15,.94-.33,.77-.5,1.4-1.15,2.02-1.82,.64-.69,1.24-1.41,1.81-2.15,.33-.42,.65-.83,.94-1.28,.13-.2,.26-.41,.36-.63,.07-.15,.14-.31,.18-.47,.13,.11,.26,.23,.38,.34,.19,.16,.36,.35,.54,.52,.12,.11,.24,.23,.36,.36,.35,.37,.7,.73,1.03,1.12,.35,.39,.69,.8,1.04,1.21,.61,.73,1.21,1.48,1.8,2.22,.56,.71,1.15,1.4,1.7,2.12,.17,.21,.34,.43,.51,.65,.6,.78,1.19,1.57,1.84,2.3,.24,.28,.48,.57,.74,.82,.23,.22,.47,.43,.76,.56,.15,.08,.31,.13,.47,.13,.03,0,.07,0,.09,0,.14,0,.44-.07,.55-.15,.14-.1,.27-.2,.38-.33,.11-.13,.19-.24,.25-.39,.11-.22,.15-.45,.21-.68,.06-.21,.12-.42,.18-.62,.5-1.78,1.06-3.52,1.71-5.25,.29-.66,.6-1.32,.95-1.96,.05-.09,.1-.17,.15-.26l-.52-2.15c-.42,.67-.82,1.33-1.18,2.02-.45,.86-.86,1.75-1.19,2.68-.33,.9-.64,1.81-.93,2.73-.13,.42-.26,.84-.39,1.26-.09,.29-.16,.58-.25,.87-.14-.15-.27-.32-.4-.47-.14-.16-.28-.33-.41-.5-.28-.34-.55-.69-.82-1.04s-.54-.7-.8-1.05c-1.22-1.6-2.5-3.15-3.77-4.72-1.19-1.46-2.46-2.88-3.9-4.1-.77-.65-1.55-1.33-2.39-1.9-.2-.13-.39-.26-.6-.36-.31-.14-.58-.24-.92-.27-.32-.02-.64,.07-.92,.21-.43,.23-.83,.55-1.16,.92-.63,.71-1.29,1.39-1.75,2.24-.24,.46-.45,.95-.62,1.45-.16,.45-.26,.91-.35,1.38-.11,.51-.16,1.03-.21,1.55-.05,.44-.04,.89,0,1.33Zm1.84-1.65c.06-.42,.13-.86,.24-1.28,.11-.43,.24-.85,.4-1.26,.11-.23,.21-.46,.34-.69,.12-.2,.25-.4,.39-.6,.23-.28,.46-.55,.72-.82,.24-.24,.46-.5,.71-.72,.07-.05,.15-.09,.22-.14,.23,.13,.44,.29,.65,.42,.2,.13,.38,.27,.56,.41,.11,.09,.24,.19,.36,.29-.07,.06-.14,.13-.19,.21-.07,.12-.11,.25-.11,.39,0,.07,0,.14,.03,.21v.02c-.2,.37-.44,.72-.69,1.06-.46,.59-.92,1.16-1.41,1.71-.69,.77-1.36,1.56-2.16,2.21-.04,.02-.08,.06-.13,.09-.03-.51,0-1.02,.07-1.53Z"/><g><path class="d" d="M78.23,28.8l.11,.31-.04,2.25-.44,5.2,13.2,.5,21.15,1.59,14.31-3.45,4.87-6.84c-6.53,.46-53.16,.44-53.16,.44Z"/><path class="h" d="M133.95,47.2c-.13-4.32-.29-8.68-1.02-12.95h0c-.02-.44-.17-.9-.25-1.31-.3-1.57-.59-3.13-.89-4.7-.06-.34-.49-.38-.71-.19-2.19,1.9-4.38,3.8-6.58,5.7-3.06-.06-6.13-.12-9.2-.17-5.12-.08-10.23-.15-15.35-.19-4.82-.03-9.65-.05-14.47,.02-.53,0-1.06,.01-1.6,.02-.13-.11-.27-.22-.4-.33-.7-.59-1.39-1.19-2.07-1.8-.93-.83-1.86-1.66-2.78-2.51-.19-.18-.54-.17-.67,.09-.9,1.7-1.81,3.39-2.71,5.09-.1,.08-.17,.22-.17,.35-.06,1.62-.12,3.24-.17,4.87-.13,4.01-.25,8.03-.34,12.05-.12,5.13-.21,10.27-.24,15.4-.03,4.96-.02,9.92,.14,14.88,.11,3.57,.21,7.19,.79,10.72,.05,.29,.1,.57,.16,.86,.04,.19,.23,.3,.41,.31,4.45,.3,8.92,.47,13.38,.6,9.31,.27,18.65,.31,27.96-.18,5.18-.27,10.36-.7,15.49-1.54,.19-.03,.3-.24,.31-.41,.3-5.16,.52-10.33,.7-15.5,.35-9.72,.58-19.46,.3-29.18Z"/><g><path class="g" d="M91.19,35.67c-.7,0-1.26,.57-1.26,1.26s.57,1.26,1.26,1.26,1.26-.57,1.26-1.26-.57-1.26-1.26-1.26Z"/><path class="g" d="M119.01,35.67c-.7,0-1.26,.57-1.26,1.26s.57,1.26,1.26,1.26,1.26-.57,1.26-1.26-.57-1.26-1.26-1.26Z"/></g><path class="k" d="M90.56,37.39c.13,.5,.89,.29,.77-.21-1.51-6.31,1.61-12.93,7.55-15.6,5.79-2.61,12.83-.7,16.53,4.47,1.11,1.55,1.85,3.32,2.34,5.15,.51,1.92,.65,3.88,.98,5.83,.04,.21,.34,.14,.35-.05,.12-1.85-.15-3.74-.56-5.54-.4-1.76-1.04-3.49-1.97-5.04-1.67-2.78-4.32-4.89-7.35-6.01-6.29-2.33-13.72,.34-17.11,6.13-1.9,3.25-2.49,7.22-1.54,10.87Z"/><polyline class="f" points="78.48 28.68 84.49 33.43 75.51 33.52 78 28.77"/><polyline class="f" points="130.8 28.11 124.5 33.76 132.81 33.52 131.67 28.03"/></g><g><circle class="e" cx="112.87" cy="65.15" r="5.31" transform="translate(30.41 166.06) rotate(-80.74)"/><circle class="e" cx="95.41" cy="65.15" r="5.31" transform="translate(9.97 142.91) rotate(-76.63)"/><path class="j" d="M98.53,60.86c.54,.83,.86,1.83,.86,2.89,0,2.93-2.38,5.31-5.31,5.31-1.17,0-2.25-.38-3.13-1.02,.95,1.45,2.58,2.41,4.45,2.41,2.93,0,5.31-2.38,5.31-5.31,0-1.76-.86-3.32-2.18-4.29Z"/><path class="j" d="M115.99,60.86c.54,.83,.86,1.83,.86,2.89,0,2.93-2.38,5.31-5.31,5.31-1.17,0-2.25-.38-3.13-1.02,.95,1.45,2.58,2.41,4.45,2.41,2.93,0,5.31-2.38,5.31-5.31,0-1.76-.86-3.32-2.18-4.29Z"/><path class="k" d="M95.41,70.7c-3.06,0-5.55-2.49-5.55-5.55s2.49-5.55,5.55-5.55,5.55,2.49,5.55,5.55-2.49,5.55-5.55,5.55Zm0-10.62c-2.79,0-5.06,2.27-5.06,5.06s2.27,5.06,5.06,5.06,5.06-2.27,5.06-5.06-2.27-5.06-5.06-5.06Z"/><path class="k" d="M97.99,67.53c0,1.42-1.15,2.57-2.57,2.57s-2.57-1.15-2.57-2.57,1.15-2.57,2.57-2.57,2.57,1.15,2.57,2.57Z"/><path class="e" d="M95.84,67.06c0,.58-.47,1.05-1.05,1.05s-1.05-.47-1.05-1.05,.47-1.05,1.05-1.05,1.05,.47,1.05,1.05Z"/><path class="k" d="M112.87,70.7c-3.06,0-5.55-2.49-5.55-5.55s2.49-5.55,5.55-5.55,5.55,2.49,5.55,5.55-2.49,5.55-5.55,5.55Zm0-10.62c-2.79,0-5.06,2.27-5.06,5.06s2.27,5.06,5.06,5.06,5.06-2.27,5.06-5.06-2.27-5.06-5.06-5.06Z"/><circle class="k" cx="112.87" cy="67.53" r="2.57" transform="translate(22.92 163.49) rotate(-77.74)"/><path class="e" d="M113.29,67.06c0,.58-.47,1.05-1.05,1.05s-1.05-.47-1.05-1.05,.47-1.05,1.05-1.05,1.05,.47,1.05,1.05Z"/><path class="k" d="M89.16,54.46c1.12,.79,1.46-1.21,4.02-2.44,2.14-1.02,3.82-.24,4.01-1.18,.18-.95-1.9-1.7-5.09-.37-2.37,.99-4.24,3.07-2.94,3.99Z"/><path class="k" d="M120.06,54.42c-1.19,.85-1.59-1.27-4.36-2.55-2.31-1.06-4.11-.21-4.32-1.22-.21-1.01,2.01-1.82,5.46-.44,2.56,1.03,4.59,3.22,3.22,4.21Z"/><path class="k" d="M112.24,79.01c-.12,0-.23-.06-.3-.17,0,0-.55-.88-1.73-1.78-1.09-.83-2.96-1.85-5.69-2.01-5.24-.32-8.38,3.77-8.41,3.81-.12,.15-.33,.18-.49,.07-.15-.12-.18-.33-.07-.49,.03-.05,.86-1.13,2.38-2.18,1.41-.97,3.7-2.09,6.63-1.91,2.92,.18,4.93,1.28,6.1,2.17,1.28,.98,1.85,1.91,1.88,1.95,.1,.16,.05,.38-.12,.48-.06,.03-.12,.05-.18,.05Z"/><path class="k" d="M94.63,77.26c-.55,.88-.65,2.03-.25,2.99,.04,.09,.12,.15,.21,.12,.08-.02,.16-.13,.12-.21-.36-.88-.29-1.91,.22-2.72,.12-.19-.18-.37-.3-.18h0Z"/><path class="k" d="M112.81,77.53c.66,.64,.92,1.65,.64,2.53-.07,.21,.27,.31,.34,.09,.31-1,.02-2.14-.73-2.87-.16-.16-.41,.09-.25,.25h0Z"/></g></g></g><g><g><path class="j" d="M183.85,35.35c-.32-.78-.24-1.43-.09-2.07,.51-2.21,1.71-3.94,3.41-5.24,1.63-1.25,3.42-2.13,5.41-2.45,.46-.07,.95,0,1.41,.08,.15,.03,.27,.29,.41,.45-.16,.11-.32,.29-.49,.32-4.2,.57-7.48,2.54-9.19,6.93-.25,.64-.54,1.25-.86,1.99Z"/><path class="j" d="M179.55,21.61c-1.14,.98-2,2.07-2.5,3.44-.5,1.36-.16,2.79-.12,4.23-.59-.07-.66-.49-.73-.85-.24-1.23-.16-2.45,.29-3.62,.45-1.16,1.12-2.15,2.01-2.95,.26-.23,.55-.54,1.06-.25Z"/><path class="j" d="M211.14,28.78c.02-2.92-2.02-4.43-3.64-6.23l.11-.17c.28,.1,.6,.13,.83,.3,1.77,1.28,2.89,3.01,3.02,5.36,.01,.23-.06,.46-.09,.7l-.23,.04Z"/><path class="j" d="M175.64,42.91c-2.19-.11-4.98-3.81-4.1-5.57,.44,2.68,2.41,3.91,4.1,5.57Z"/><path class="j" d="M183.49,31.79c.05-1.59,.68-2.9,1.85-3.9,.39-.34,.81-.78,1.48-.51-.66,.73-1.35,1.33-1.86,2.08-.51,.75-.84,1.63-1.25,2.46l-.22-.12Z"/><path class="j" d="M220.02,39.97c.2-.26,.34-.47,.51-.65,.85-.89,1.54-1.86,1.68-3.19,.01-.1,.14-.25,.21-.26,.09,0,.18,.13,.27,.2,.01,0,.01,.03,.02,.05,.29,1.16-1.14,4.21-2.69,3.83Z"/><path class="j" d="M222.05,40.59c.27-.22,.55-.44,.81-.68,.4-.36,.84-.7,1.19-1.11,.43-.51,.84-1.07,.54-1.92,.55,.21,.71,.56,.66,1.04-.13,1.33-1.86,2.88-3.2,2.67Z"/><path class="j" d="M189.44,42.63c1.61-1.13,2.74-2.67,3.59-4.49,.19,1.16-.48,1.96-1.04,2.78-.62,.9-1.28,1.79-2.54,1.71Z"/><path class="j" d="M177.93,28.66c-.57-.26-.64-.79-.68-1.29-.08-1.13,.23-2.17,.82-3.1,.08-.13,.29-.18,.45-.26,0,.17,.03,.37-.04,.51-.52,1.11-.59,2.28-.48,3.48,.01,.15,.02,.3,.02,.45,0,.05-.04,.1-.09,.21Z"/><path class="j" d="M185.56,20.15c1.27-.82,4.36,.64,4.5,2.25-1.35-1.3-2.83-1.99-4.5-2.25Z"/><path class="j" d="M207.77,24.55c.07-.06,.09-.1,.12-.11,1.04-.11,2.45,1.41,2.33,2.53-.01,.11-.09,.28-.17,.31-.08,.03-.24-.05-.31-.14-.61-.77-1.21-1.55-1.82-2.33-.06-.07-.1-.16-.16-.26Z"/><path class="j" d="M202.36,41.43c-.54,1.23-3.79,1.69-4.53,.57,1.59,.15,3.09,.03,4.53-.57Z"/><path class="j" d="M209.35,37.73c-.34,.63-.86,.78-1.45,.79-1.29,0-2.36-.63-2.83-1.83,1.38,.92,2.68,1.75,4.29,1.04Z"/><path class="j" d="M172.74,38.4c.96,1.02,1.86,1.98,2.76,2.94l-.1,.16c-.89-.16-1.5-.85-2.1-1.52-.38-.42-.66-.93-.57-1.58Z"/><path class="j" d="M217.06,38.93c.47,.56,.21,1.12,0,1.65-.34,.85-.78,1.6-1.83,1.6,.76-.98,1.61-1.9,1.83-3.25Z"/><path class="j" d="M218.44,33.33c-1.31-.15-2.5-.28-3.75-.42,.86-.72,3-.5,3.75,.42Z"/><path class="j" d="M223.49,37.49c.35,1.08-1.18,2.86-2.48,2.75,.52-.46,1-.81,1.39-1.25,.4-.45,.72-.99,1.09-1.51Z"/><path class="j" d="M181.1,44.48c1.18,.14,2.37,.28,3.64,.43-.52,.67-2.6,.42-3.64-.43Z"/><path class="j" d="M219.3,39.35c.61-.85,1.16-1.62,1.71-2.39,.36,.64-.68,2.17-1.71,2.39Z"/><path class="j" d="M175.66,40.04c-1.01-.1-1.78-1.01-1.59-1.95,.51,.62,1.01,1.24,1.59,1.95Z"/><path class="j" d="M190.38,25.62c.66-.83,1.77-1.11,2.45-.56-.77,.18-1.54,.35-2.45,.56Z"/><path class="j" d="M190.07,40.91c.44-.5,.97-1.1,1.43-1.62,.11,.74-.86,1.76-1.43,1.62Z"/><path class="j" d="M178.9,27.38c-.55-.57-.61-1.49-.17-1.98,.07-.08,.2-.1,.31-.15,.04,.11,.11,.23,.1,.34-.03,.3-.09,.59-.13,.88-.04,.27-.06,.55-.1,.9Z"/><path class="j" d="M182.95,30.19c-.07-.89,.61-1.83,1.4-1.89l-1.4,1.89Z"/><path class="j" d="M215,40.88l.75-1.05c.23,.62-.03,1.04-.75,1.05Z"/><path class="j" d="M192.28,21.13c4.5-3.93,12.72-3.95,17.93,.41,2.66,2.23,3.56,5.16,3.12,8.66-.02,.15-.04,.3-.06,.45-.02,.13-.04,.26-.05,.33,.89-.07,1.78-.25,2.65-.19,2.98,.23,5.85,.96,8.54,2.4,1.24,.66,2.13,1.73,2.71,3.09,.05,.12,.11,.23,.18,.36,1.15-.24,1.93,.36,2.47,1.33,.35,.64,.83,.88,1.49,1,.72,.14,1.43,.39,2.12,.67,.32,.13,.6,.4,.85,.66,.57,.62,.47,1.22-.3,1.46-.7,.21-1.45,.39-2.17,.37-2.04-.05-4.05,.15-6.05,.52-1.06,.19-2.12,.43-3.19,.49-1.51,.09-2.99-.13-4.41-.85-.91,1.66-2.27,2.67-4,3.09-1.39,.34-2.77,.15-4.07-.35-1.4-.54-2.76-1.23-4.1-1.93-.49-.25-.9-.17-1.37-.01-1.29,.44-2.57,.97-3.89,1.24-2.17,.46-4.32,.18-6.41-.63-.21-.08-.43-.19-.62-.32-.19-.13-.35-.3-.51-.44-.73,.68-1.42,1.39-2.17,2.01-1.81,1.48-3.88,2.11-6.14,2.12-4.79,.02-9.23-1.33-13.36-3.91-.33-.2-.62-.33-.99-.13-3.55,1.87-7.34,2.34-11.23,2.2-1.59-.06-3.17-.12-4.72-.59-3.64-1.11-3.76-4.27-2.33-6.74,1.04-1.81,2.64-2.69,4.51-2.91,1.52-.17,3.06-.08,4.6-.1,.1,0,.2,0,.32,0,.18-1.41,.71-2.62,1.42-3.78,1.28-2.08,3.14-3.08,5.37-3.44,1.96-.31,3.86-.02,5.8,.56-.02-.26-.02-.5-.05-.73-.23-2.16,.61-3.93,1.82-5.52,2.97-3.89,6.78-5.34,11.37-4.32,1.38,.31,2.53,1.14,3.59,2.11,.45,.42,.88,.87,1.35,1.33Zm13.81,14.49c.77,.74,1.57,1.02,2.5,.7,.96-.33,1.69-1,2.28-1.86,.82-1.19,1.17-2.58,1.4-4.01,.52-3.22-.16-6-2.7-8.03-3.75-3-7.95-3.74-12.45-2.61-1.59,.4-3.1,1.04-4.28,2.34-.35,.38-.73,.33-1.08-.02-.44-.44-.86-.9-1.31-1.33-1.15-1.11-2.44-1.96-3.99-2.21-4.53-.73-8.77,1.57-10.95,5.9-.67,1.34-.99,2.71-.45,4.19,.02,.05,.03,.11,.04,.16,.1,.52-.01,.65-.48,.5-.32-.1-.61-.32-.94-.37-1.53-.25-3.05-.6-4.62-.38-2.95,.41-4.88,1.57-6.19,5.06-.24,.63-.45,1.34-.15,1.99,.3,.65,.73,1.23,1.13,1.83,.15,.23,.36,.42,.55,.63l-.09,.18c-.22-.06-.46-.07-.65-.18-.73-.42-1.31-1.01-1.68-1.82-.07-.15-.25-.36-.38-.36-1.67-.06-3.35-.26-5.02,.08-1.92,.39-3.37,1.41-4.09,3.43-.65,1.82-.07,3.27,1.6,4.01,.26,.11,.53,.22,.8,.29,2.75,.71,5.54,.6,8.32,.39,2.41-.18,4.71-.94,6.89-2.06,.59-.3,1.15-.28,1.7,.12,.38,.27,.79,.51,1.19,.74,3.12,1.72,6.44,2.64,9.92,2.97,3.66,.35,6.83-.65,9.27-3.73,.41-.52,.65-1.19,.98-1.79,.08-.14,.21-.26,.31-.38,.07,.16,.16,.31,.2,.47,.03,.12,.02,.27-.03,.39-.25,.71,.18,1.12,.6,1.47,.32,.27,.72,.52,1.12,.61,.96,.22,1.94,.43,2.91,.49,2.35,.16,4.51-.64,6.61-1.66-.07-.17-.16-.33-.17-.49-.01-.19,.05-.38,.08-.57,.14,.1,.3,.17,.42,.3,.28,.3,.5,.7,.83,.93,1.62,1.2,3.44,1.91,5.36,2.32,2.63,.55,4.78-.52,6.1-3.03,.16-.3,.34-.59,.56-.95,.08,.22,.17,.34,.17,.46,0,.59,.36,.77,.8,.87,.64,.15,1.28,.28,1.91,.44,1.73,.43,3.4-.13,5.09-.3,1.96-.21,3.92-.39,5.88-.6,.43-.05,.86-.13,1.43-.22-.74-.62-1.43-.74-2.13-.82-1.02-.12-1.89-.45-2.37-1.53-.07-.15-.18-.28-.29-.4-.47-.55-.89-.6-1.49-.2-.36,.24-.62,.15-.7-.3-.36-2.01-1.59-3.19-3.26-3.94-2.04-.91-4.18-1.51-6.35-1.92-1.15-.22-2.32-.3-3.44,.2-.22,.1-.42,.36-.54,.6-.47,.9-.8,1.91-1.38,2.73-.91,1.28-2.15,2.07-3.73,2.02-.99-.04-1.59-.65-1.61-1.75Z"/></g><g><path class="j" d="M44.8,6.4c1.91-2.08,4.18-2.54,6.65-2.11,3.66,.64,5.68,4.9,4.2,8.8-.1,.28-.21,.55-.31,.82,1.25,0,2.46,.03,3.67,0,2.83-.09,5.54,.49,8.09,1.93,1.23,.69,2.34,1.6,2.87,3.14,.6,1.76,.02,3.24-.94,4.56-1.65,2.26-3.92,3.12-6.34,3.52-.84,.14-1.72,.08-2.57,.05-.58-.02-1.04,.07-1.53,.55-1.4,1.37-3.15,1.9-4.9,2.3-3.19,.73-6.4,1.35-9.62,.29-.98-.32-1.89-.87-2.85-1.29-.19-.09-.5-.16-.64-.05-2.89,2.31-6.2,3.13-9.6,3.61-3.48,.49-6.9,.08-10.27-.95-1.83-.56-3.46-1.47-4.16-3.71-4.34,2-8.64,1.97-12.92,.11-1.8-.78-3.19-2.08-3.56-4.44-.19-1.2,.1-2.22,.82-3.08,1.34-1.61,3.06-2.32,4.93-2.52,1.14-.12,2.3-.02,3.56-.02,.07-.38,.13-.96,.27-1.52,1.13-4.37,3.69-7.02,7.51-7.98,3.22-.81,6.43-.79,9.53,.99,.05-.71,.05-1.38,.15-2.03,.29-1.75,1.18-3.12,2.29-4.3,3.29-3.51,9.51-4.54,13.48-.31,.47,.5,.88,1.09,1.26,1.7,.35,.58,.62,1.23,.96,1.93ZM11.17,21.98c-.96-.56-1.35-1.3-1.64-2.16-.07-.22-.25-.53-.41-.56-2.65-.47-5.12-.03-7.21,2.07-.6,.6-.76,1.38-.53,2.29,.34,1.35,1.16,2.26,2.22,2.65,1.63,.6,3.32,1.1,5.01,1.34,2.61,.37,5.14-.4,7.65-1.18,.59-2.8,2.22-4.98,3.62-4.85-.61,.98-1.29,1.91-1.8,2.95-.95,1.9-.43,3.79,1.26,4.8,.52,.31,1.09,.57,1.65,.74,3.92,1.22,7.87,1.35,11.87,.47,3.97-.87,7.41-2.81,10.22-6.19,.08-.09,.2-.14,.38-.25-.07,1.55-.9,2.52-1.67,3.65,.51,.24,.95,.46,1.4,.64,3.27,1.27,6.57,.82,9.85,.09,2.75-.62,5.32-1.69,7.1-4.4,.02-.03,.09,0,.24-.02l-.52,1.73c2.4-.13,4.73-.41,6.77-1.94,.62-.46,1.17-1.11,1.61-1.8,.87-1.36,.74-2.66-.41-3.69-.78-.69-1.68-1.28-2.6-1.67-4.03-1.69-8.17-1.36-12.32-.72-.33,.05-.66,.06-.98,.09,.49-.82,1.08-1.4,1.61-2.04,1.95-2.3,1.56-5.89-.82-7.41-2.12-1.35-6.32-1.18-8.11,2.33-.1,.19-.25,.35-.47,.65-.11-.53-.18-.89-.26-1.24-.47-2.1-1.35-3.9-2.84-5.29-2.74-2.57-7.9-1.89-10.61,.65-1.86,1.75-2.93,3.88-2.28,6.78,.13,.59,.14,1.23,.21,1.84-.76-.42-1.26-1.07-1.88-1.42-3.5-2-7.11-1.89-10.69-.37-2.56,1.08-4.09,3.35-4.89,6.3-.45,1.66-.25,3.3,.26,5.14Z"/><path class="j" d="M34.99,22.81c.33-.29,.49-.49,.69-.59,2.1-1.09,3.33-3.09,4.33-5.36,.13-.29,.4-.5,.6-.75,.04,.36,.19,.76,.11,1.08-.57,2.19-1.69,3.94-3.35,5.21-.65,.5-1.35,.75-2.37,.4Z"/><path class="j" d="M13.43,14.02c-.33,1.34-.91,2.67-.91,4,0,1.32,.58,2.64,.95,4.11-.27-.18-.58-.28-.75-.51-1.42-1.89-1.18-5.78,.43-7.45,.09-.09,.22-.12,.29-.15Z"/><path class="j" d="M22.74,25.74c-1.01-.09-1.66-1.32-1.49-2.51,.31-2.18,1.04-3.3,2.12-3.03-1.32,1.65-1.91,3.42-.63,5.53Z"/><path class="j" d="M58.63,23.43c-.65,1.68-3.86,3.93-5.73,4.02,1.95-1.37,3.78-2.65,5.73-4.02Z"/><path class="j" d="M14.29,15.87c-.67,1.88,.23,3.38,.9,4.98-1.05-.17-1.56-.89-1.8-2.39-.21-1.27,.03-2.13,.9-2.59Z"/><path class="j" d="M66.99,20.23c.21,1.35-1.9,3.52-3.48,3.46,1.17-1.16,2.34-2.33,3.48-3.46Z"/><path class="j" d="M41.6,19.11c-.24,1.58-1.7,3.22-2.76,3.23,.88-1.03,1.84-2.15,2.76-3.23Z"/><path class="j" d="M63.18,22.53c.61-.71,1.29-1.51,1.95-2.28,.14,1.02-1.1,2.39-1.95,2.28Z"/><path class="j" d="M51.62,14.32c.54-1.18,1.01-2.23,1.49-3.29,.74,.75-.13,2.74-1.49,3.29Z"/><path class="j" d="M23.98,24.75c-.26-.35-.66-.66-.76-1.07-.2-.8-.18-1.63,.44-2.38,.17,1.15,.33,2.18,.48,3.2l-.17,.25Z"/><path class="j" d="M55.91,23.62c-.39,1.38-1.56,2.03-2.62,1.68,.92-.59,1.77-1.13,2.62-1.68Z"/><path class="j" d="M42.87,20.03c-.2,1.09-.85,1.81-1.96,1.84,.58-.69,1.16-1.38,1.73-2.08l.22,.24Z"/><path class="j" d="M8.83,21.98c-.23-.16-.54-.26-.66-.5-.16-.31-.19-.72-.24-1.1,0-.05,.28-.23,.3-.2,.21,.25,.42,.51,.57,.81,.11,.23,.14,.52,.21,.78l-.16,.2Z"/><path class="j" d="M25.04,22.76c-.63-1.07-.53-1.64,.4-2.31-.14,.82-.25,1.46-.4,2.31Z"/><path class="j" d="M15.49,17.3c.2,.68,.4,1.35,.61,2.03l-.24,.1c-.67-.47-.73-1.21-.63-2.03l.26-.1Z"/><path class="j" d="M63.83,20.61c-.39,.3-.79,.6-1.18,.91l-.23-.37,1.12-.99,.29,.45Z"/><path class="j" d="M6.77,21.76c-.16-.35-.33-.69-.46-1.05-.01-.03,.26-.19,.4-.29,.16,.36,.33,.72,.49,1.08l-.43,.26Z"/></g></g></g></g></g></svg>